<svg width="184" height="189" xmlns="http://www.w3.org/2000/svg" xmlns:xlink="http://www.w3.org/1999/xlink"><defs><path id="a" d="M.06 123.237V.265h115.69v122.972z"/></defs><g fill="none" fill-rule="evenodd"><path d="M174.849 107.947c0 43.63-35.369 79-79 79-43.63 0-78.999-35.37-78.999-79s35.369-79 78.999-79c43.631 0 79 35.37 79 79" fill="#E1E6FA"/><path d="M56.643 161.984l-3.099-.63 2.237-11.01 3.1.63a1 1 0 1 0 .398-1.96l-5.059-1.028-3.034 14.93 5.059 1.028a1 1 0 0 0 .398-1.96M134.68 163.944l5.06-1.028-3.034-14.93-5.06 1.028a1 1 0 0 0 .398 1.96l3.1-.63 2.238 11.01-3.1.63a1 1 0 0 0 .398 1.96" fill="#89A4F5"/><path d="M56.87 189v-23.142c0-21.346 17.304-38.65 38.649-38.65 21.346 0 38.65 17.304 38.65 38.65V189M109.857 114.429H81.182c-8.435 0-15.273-6.838-15.273-15.274 0-8.434 6.838-15.272 15.273-15.272h28.675c8.435 0 15.273 6.838 15.273 15.272 0 8.436-6.838 15.274-15.273 15.274" fill="#FFF"/><path d="M109.857 114.429v-1H81.182a14.22 14.22 0 0 1-10.092-4.181 14.224 14.224 0 0 1-4.181-10.093 14.224 14.224 0 0 1 4.181-10.092 14.22 14.22 0 0 1 10.092-4.18h28.675c3.945 0 7.507 1.596 10.093 4.18a14.223 14.223 0 0 1 4.18 10.092c0 3.945-1.596 7.507-4.18 10.093a14.224 14.224 0 0 1-10.093 4.181v2c8.988-.001 16.273-7.285 16.273-16.274 0-8.987-7.285-16.271-16.273-16.272H81.182c-8.988.001-16.272 7.285-16.273 16.272.001 8.989 7.285 16.273 16.273 16.274h28.675v-1" fill="#3B3191"/><path d="M92.567 99.155a4.364 4.364 0 1 1-8.728.002 4.364 4.364 0 0 1 8.728-.002M114.074 99.155a4.364 4.364 0 1 1-8.729.001 4.364 4.364 0 0 1 8.729-.001" fill="#FF7878"/><path d="M111.268 99.155h-1a3.369 3.369 0 0 1-3.363 3.365 3.37 3.37 0 0 1-3.364-3.365 3.369 3.369 0 0 1 3.364-3.363 3.368 3.368 0 0 1 3.363 3.363h2a5.364 5.364 0 1 0-10.728.002 5.364 5.364 0 0 0 10.728-.002h-1M57.87 180.585v-14.727c.001-10.4 4.212-19.806 11.027-26.623 6.817-6.814 16.222-11.026 26.622-11.027 10.4.001 19.806 4.213 26.623 11.027 6.815 6.817 11.027 16.223 11.027 26.623v14.727a1 1 0 0 0 2 0v-14.727c0-21.899-17.752-39.649-39.65-39.65-21.898.001-39.648 17.751-39.649 39.65v14.727a1 1 0 0 0 2 0" fill="#3B3191"/><path d="M112.827 156.26h3.831v13.338a1 1 0 1 0 2 0V154.26h-5.831a1 1 0 1 0 0 2M74.944 169.598V156.26h34.299a1 1 0 0 0 0-2H72.944v15.338a1 1 0 0 0 2 0" fill="#3B3191"/><path d="M89.294 165.936h-1a1.574 1.574 0 0 1-1.571 1.571 1.575 1.575 0 0 1-1.572-1.571 1.575 1.575 0 0 1 1.572-1.573c.867.002 1.57.704 1.571 1.573h2a3.572 3.572 0 1 0-7.143-.003 3.572 3.572 0 0 0 7.143.003h-1M109.866 165.936h-1a1.575 1.575 0 0 1-1.572 1.571 1.574 1.574 0 0 1-1.571-1.571 1.575 1.575 0 0 1 1.571-1.573c.867.002 1.57.704 1.572 1.573h2a3.573 3.573 0 0 0-3.572-3.573 3.573 3.573 0 0 0 0 7.144 3.573 3.573 0 0 0 3.572-3.571h-1M88.74 119.637h13.558a1 1 0 1 0 0-2H88.74a1 1 0 0 0 0 2M88.74 124.312h13.558a1 1 0 1 0 0-2H88.74a1 1 0 1 0 0 2" fill="#89A4F5"/><path d="M89.762 99.155h-1a3.37 3.37 0 0 1-3.364 3.365 3.369 3.369 0 0 1-3.363-3.365 3.368 3.368 0 0 1 3.363-3.363 3.37 3.37 0 0 1 3.364 3.363h2a5.364 5.364 0 1 0-10.729.003 5.364 5.364 0 0 0 10.729-.003h-1" fill="#3B3191"/><path d="M69.603 107.502a14.2 14.2 0 0 1-2.694-8.347 14.224 14.224 0 0 1 4.181-10.092 14.22 14.22 0 0 1 10.092-4.18h28.675c3.945 0 7.507 1.596 10.093 4.18a14.42 14.42 0 0 1 1.658 1.989c.035.063.069.125.102.188a14.826 14.826 0 0 0-10.401-4.249H83.373c-8.217 0-14.878 6.661-14.878 14.878v.001c0 1.994.395 3.895 1.108 5.632" fill="#D4D4E7"/><path d="M70.239 108.856a14.828 14.828 0 0 1-4.477-10.63c0-8.217 6.661-14.879 14.879-14.879h27.935c5.615 0 10.499 3.113 13.032 7.705a14.42 14.42 0 0 0-1.658-1.989 14.224 14.224 0 0 0-10.093-4.18H81.182a14.22 14.22 0 0 0-10.092 4.18 14.224 14.224 0 0 0-4.181 10.092c.001 3.12.998 6 2.694 8.347.19.463.402.915.636 1.354" fill="#312983"/><mask id="b" fill="#fff"><use xlink:href="#a"/></mask><path d="M56.39 94.542c0 15.295-12.4 27.695-27.695 27.695C13.399 122.237 1 109.837 1 94.542s12.399-27.695 27.695-27.695c15.295 0 27.695 12.4 27.695 27.695" fill="#FFF" mask="url(#b)"/><path d="M56.39 94.542h-1c-.001 7.375-2.987 14.042-7.819 18.876-4.834 4.832-11.502 7.818-18.876 7.819-7.375-.001-14.042-2.987-18.876-7.819C4.986 108.584 2 101.917 2 94.542 2 87.167 4.986 80.5 9.819 75.666c4.834-4.832 11.501-7.818 18.876-7.819 7.374.001 14.042 2.987 18.876 7.819 4.832 4.834 7.818 11.501 7.819 18.876h2c-.001-15.848-12.847-28.694-28.695-28.695C12.847 65.848.001 78.694 0 94.542c.001 15.848 12.847 28.694 28.695 28.695 15.848-.001 28.694-12.847 28.695-28.695h-1" fill="#3B3191" mask="url(#b)"/><path d="M114.75 35.223c0 18.754-15.204 33.957-33.958 33.957-18.754 0-33.958-15.203-33.958-33.957S62.038 1.265 80.792 1.265c18.754 0 33.958 15.204 33.958 33.958" fill="#FFF" mask="url(#b)"/><path d="M114.75 35.223h-1c0 9.104-3.687 17.337-9.653 23.304-5.967 5.966-14.201 9.653-23.305 9.653s-17.337-3.687-23.305-9.653c-5.965-5.967-9.652-14.2-9.653-23.304.001-9.104 3.688-17.338 9.653-23.305 5.968-5.966 14.201-9.653 23.305-9.653s17.338 3.687 23.305 9.653c5.966 5.967 9.653 14.201 9.653 23.305h2c0-19.307-15.651-34.958-34.958-34.958S45.835 15.916 45.834 35.223C45.835 54.53 61.485 70.18 80.792 70.18s34.958-15.65 34.958-34.957h-1" fill="#3B3191" mask="url(#b)"/><path d="M182.333 114.597c0 11.644-9.439 21.084-21.084 21.084-11.643 0-21.083-9.44-21.083-21.084s9.44-21.083 21.083-21.083c11.645 0 21.084 9.439 21.084 21.083" fill="#FFF"/><path d="M182.333 114.597h-1a20.012 20.012 0 0 1-5.882 14.201 20.02 20.02 0 0 1-14.202 5.883 20.017 20.017 0 0 1-14.2-5.883 20.017 20.017 0 0 1-5.883-14.201 20.02 20.02 0 0 1 5.883-14.201 20.012 20.012 0 0 1 14.2-5.882c5.55 0 10.564 2.246 14.202 5.882a20.014 20.014 0 0 1 5.882 14.201h2c0-12.196-9.886-22.083-22.084-22.083-12.196 0-22.082 9.887-22.083 22.083.001 12.197 9.887 22.083 22.083 22.084 12.198-.001 22.084-9.887 22.084-22.084h-1" fill="#3B3191"/><path d="M94.859 27.933a11.22 11.22 0 0 1-3.505 1.308c-1.082-1.151-2.425-1.727-4.029-1.727-1.5 0-2.791.541-3.872 1.622-1.082 1.081-1.623 2.372-1.623 3.872 0 .418.053.837.158 1.256a15.22 15.22 0 0 1-6.305-1.674 15.155 15.155 0 0 1-4.997-4.082 5.131 5.131 0 0 0-.785 2.773c0 1.954.82 3.471 2.459 4.552a4.748 4.748 0 0 1-2.459-.68v.105c0 1.29.41 2.441 1.23 3.453.819 1.012 1.874 1.657 3.165 1.936a6.95 6.95 0 0 1-1.465.157c-.349 0-.698-.035-1.046-.105a5.769 5.769 0 0 0 1.961 2.748 5.045 5.045 0 0 0 3.166 1.072c-1.988 1.57-4.255 2.355-6.802 2.355-.418 0-.854-.018-1.308-.052 2.581 1.639 5.389 2.458 8.424 2.458 2.442 0 4.674-.47 6.698-1.412 2.023-.942 3.671-2.171 4.944-3.689a17.37 17.37 0 0 0 2.956-5.023c.698-1.832 1.047-3.671 1.047-5.52v-.68a11.208 11.208 0 0 0 2.72-2.878c-1.011.453-2.057.75-3.139.889 1.186-.732 1.989-1.744 2.407-3.034" fill="#FF7878"/><path d="M72.831 40.804a5.23 5.23 0 0 1-.798-.061 10.003 10.003 0 0 1-5.95-9.146 10.003 10.003 0 1 1 19.281-3.731 5.492 5.492 0 0 0-1.911 1.27c-1.082 1.081-1.623 2.372-1.623 3.872 0 .418.053.837.158 1.256a15.22 15.22 0 0 1-6.305-1.674 15.155 15.155 0 0 1-4.997-4.082 5.131 5.131 0 0 0-.785 2.773c0 1.954.82 3.471 2.459 4.552a4.748 4.748 0 0 1-2.459-.68v.105c0 1.29.41 2.441 1.23 3.453.819 1.012 1.874 1.657 3.165 1.936a6.95 6.95 0 0 1-1.465.157" fill="#FFF"/><path d="M76.084 41.597a9.97 9.97 0 0 1-4.051-.854c.266.041.532.061.798.061a6.95 6.95 0 0 0 1.465-.157c-1.291-.279-2.346-.924-3.165-1.936a5.336 5.336 0 0 1-1.23-3.453v-.105c.767.454 1.587.68 2.459.68-1.639-1.081-2.459-2.598-2.459-4.552 0-1.011.262-1.936.785-2.773a15.155 15.155 0 0 0 4.997 4.082 15.22 15.22 0 0 0 6.305 1.674 5.153 5.153 0 0 1-.158-1.256c0-1.5.541-2.791 1.623-3.872a5.492 5.492 0 0 1 1.911-1.27 9.971 9.971 0 0 1 .72 3.731c0 5.523-4.478 10-10 10" fill="#FF9393"/><path fill="#FFF" d="M92.916 45.764l-3.281-2.566 3.281 2.566"/><path fill="#FF9393" d="M89.635 43.198l-5.885-4.601 5.885 4.601"/><path d="M86.084 31.597h-1a8.967 8.967 0 0 1-2.637 6.364 8.96 8.96 0 0 1-6.363 2.636 8.964 8.964 0 0 1-6.365-2.636 8.965 8.965 0 0 1-2.635-6.364 8.967 8.967 0 0 1 2.635-6.364 8.972 8.972 0 0 1 6.365-2.636 8.97 8.97 0 0 1 6.363 2.636 8.968 8.968 0 0 1 2.637 6.364h2c-.001-6.075-4.925-10.999-11-11-6.076.001-11 4.925-11.001 11 .001 6.076 4.925 11 11.001 11 6.075 0 10.999-4.924 11-11h-1" fill="#3B3191"/><path d="M93.532 44.976l-9.166-7.166a1 1 0 1 0-1.232 1.575l9.167 7.167a1 1 0 1 0 1.231-1.576" fill="#3B3191"/><path d="M41.317 105.752H15.899a2.08 2.08 0 0 1-2.081-2.081V86.428c0-1.149.932-2.081 2.081-2.081h25.418c1.149 0 2.081.932 2.081 2.081v17.243a2.08 2.08 0 0 1-2.081 2.081" fill="#FFF"/><path d="M41.317 105.752v-1H15.899a1.083 1.083 0 0 1-1.081-1.081V86.428a1.084 1.084 0 0 1 1.081-1.081h25.418c.597.001 1.08.485 1.081 1.081v17.243a1.082 1.082 0 0 1-1.081 1.081v2a3.081 3.081 0 0 0 3.081-3.081V86.428a3.082 3.082 0 0 0-3.081-3.081H15.899a3.082 3.082 0 0 0-3.081 3.081v17.243a3.081 3.081 0 0 0 3.081 3.081h25.418v-1" fill="#3B3191"/><path d="M27.271 91.941a3.405 3.405 0 1 1-6.81-.003 3.405 3.405 0 0 1 6.81.003" fill="#FF7878"/><path d="M26.076 91.941h-1a2.407 2.407 0 0 1-2.405 2.403 2.407 2.407 0 0 1-2.404-2.403 2.408 2.408 0 0 1 2.404-2.405 2.41 2.41 0 0 1 2.405 2.405h2a4.405 4.405 0 0 0-8.809 0 4.404 4.404 0 0 0 8.809 0h-1" fill="#3B3191"/><path d="M18.47 103.679l13.113-8.955 7.674 5.911a1 1 0 0 0 1.221-1.584l-8.25-6.354a1.002 1.002 0 0 0-1.174-.034l-13.712 9.365a1 1 0 0 0 1.128 1.652" fill="#89A4F5"/><path d="M38.334 95.638l2.787-2.006a1 1 0 0 0-1.169-1.624l-2.787 2.007a1 1 0 1 0 1.169 1.623" fill="#D4D4E7"/><path fill="#FF7878" d="M155.083 110.222v11.875l10-5.625-10-6.25"/><path d="M158.583 109.097h-1v11.875a1.003 1.003 0 0 0 1.491.871l10-5.625a.996.996 0 0 0 .509-.848.997.997 0 0 0-.47-.871l-10-6.25a.998.998 0 0 0-1.53.848h1l-.53.848 8.571 5.357-7.041 3.96v-10.165h-1l-.53.848.53-.848" fill="#3B3191"/></g></svg>