<svg width="186" height="201" xmlns="http://www.w3.org/2000/svg"><g fill="none" fill-rule="evenodd"><path d="M179.97 110.348c0 49.697-40.288 89.984-89.985 89.984S0 160.045 0 110.348C0 60.65 40.288 20.362 89.985 20.362s89.985 40.288 89.985 89.986" fill="#E1E6FA"/><path fill="#FFF" d="M38.976 201h103.333v-29H38.976z"/><path d="M32.201 185.056l4.646-23.517.005-.035c1.272-10.263 9.994-17.97 20.336-17.97h66.108a20.493 20.493 0 0 1 20 16.029v.002l5.661 25.043a1 1 0 0 0 1.951-.441l-5.661-25.043.001.003a22.492 22.492 0 0 0-21.952-17.593H57.188c-11.352.001-20.924 8.459-22.321 19.724l.992.123-.981-.194-4.639 23.482a1 1 0 1 0 1.962.387" fill="#3B3191"/><path d="M110.823 142.917H67.309c0 13.987 11.338 25.325 25.325 25.325s25.325-11.338 25.325-25.325h-7.136" fill="#FFF"/><path d="M31.22 184.862l4.639-23.481c1.335-10.764 10.482-18.847 21.329-18.847h66.108a21.493 21.493 0 0 1 20.976 16.811l5.661 25.043-118.713.474" fill="#FFF"/><path d="M52.8 169.212l-3.81 22.622a1 1 0 1 0 1.972.332l3.81-22.622a1 1 0 1 0-1.972-.332M130.026 169.545l3.63 21.456a1 1 0 1 0 1.972-.334l-3.63-21.456a1 1 0 0 0-1.972.334" fill="#89A4F5"/><path d="M92.792 168.282c-13.987 0-25.325-11.339-25.325-25.325h9.497c0 12.691 7.447 23.173 19.627 25.01-1.242.187-2.504.315-3.799.315" fill="#D4D4E7"/><path d="M80.689 131.569v9.973h-14.38v1c0 14.54 11.785 26.325 26.325 26.325s26.324-11.785 26.325-26.325v-1h-14.136v-9.973h-2v11.973h15.136v-1h-1a24.244 24.244 0 0 1-7.124 17.201 24.244 24.244 0 0 1-17.201 7.124 24.244 24.244 0 0 1-17.201-7.124 24.244 24.244 0 0 1-7.124-17.201h-1v1h15.38v-11.973h-2M118.035 120.039h-1c0 1.317-.531 2.5-1.394 3.365a4.744 4.744 0 0 1-3.365 1.393 4.746 4.746 0 0 1-3.365-1.393 4.738 4.738 0 0 1-1.393-3.365c0-1.317.531-2.5 1.393-3.364a4.742 4.742 0 0 1 3.365-1.394 4.74 4.74 0 0 1 3.365 1.394 4.734 4.734 0 0 1 1.394 3.364h2a6.76 6.76 0 0 0-13.517 0 6.758 6.758 0 0 0 6.758 6.758 6.758 6.758 0 0 0 6.759-6.758h-1" fill="#3B3191"/><path d="M92.239 82.369c-12.625 0-22.912 9.987-23.407 22.489l-.023.069v21.848c0 12.939 10.49 23.43 23.431 23.43 12.625 0 22.913-9.987 23.407-22.489l.024-.069v-21.848c0-12.939-10.491-23.43-23.432-23.43" fill="#FFF"/><path d="M91.123 116.724a1.921 1.921 0 0 1-3.84 0 1.92 1.92 0 0 1 3.84 0" fill="#3B3191"/><path d="M85.575 112.883h6.949" fill="#FFF"/><path d="M85.575 113.883h6.949a1 1 0 0 0 0-2h-6.949a1 1 0 0 0 0 2M107.077 116.724a1.921 1.921 0 0 1-3.84 0 1.921 1.921 0 0 1 3.84 0" fill="#3B3191"/><path d="M101.529 112.883h6.95" fill="#FFF"/><path d="M101.529 113.883h6.95a1 1 0 0 0 0-2h-6.95a1 1 0 0 0 0 2" fill="#3B3191"/><path d="M112.939 114.588l-.104 15.741c-.031-3.962-5.43-7.95-11.93-9.428-9.39-2.133-22.306 3.103-26.806 7.751v-13.965h-.057c.034-.227.057-.459.057-.695a4.566 4.566 0 0 0-4.566-4.566c-.135 0-.267.01-.397.022v9.087c.13.014.262.025.397.025v13.511c.642 1.468.762 3.009 1.261 4.536.593 1.812 1.58 3.429 2.795 4.894 2.342 2.825 4.901 5.432 8.238 7.073 3.473 1.71 7.145 2.007 10.959 2.194.29.013.579.02.87.027 1.086-.223 2.159-.496 3.264-.628.172-.083.374-.135.61-.135.114 0 .221.012.32.032.412-.132.823-.259 1.241-.38l.12-.059c.21-.099.416-.142.613-.145.631-.171 1.267-.331 1.903-.491l.001-.001c.976-.344 1.98-.768 2.963-1.267a73.335 73.335 0 0 0 4.402-4.102 57.556 57.556 0 0 0 3.995-6.199c.734-2.084 1.489-4.159 2.016-6.31v-20.962c-2.302.201-2.115 2.098-2.165 4.44" fill="#D4D4E7"/><path d="M108.588 95.286a4.964 4.964 0 1 1-9.928-.002 4.964 4.964 0 0 1 9.928.002" fill="#FF7878"/><path d="M106.846 95.286h-1a3.947 3.947 0 0 1-1.161 2.802 3.945 3.945 0 0 1-2.803 1.161 3.945 3.945 0 0 1-2.803-1.161 3.947 3.947 0 0 1-1.161-2.802 3.95 3.95 0 0 1 1.161-2.803 3.95 3.95 0 0 1 2.803-1.161 3.95 3.95 0 0 1 2.803 1.161 3.95 3.95 0 0 1 1.161 2.803h2a5.965 5.965 0 0 0-11.928 0 5.964 5.964 0 0 0 11.928 0h-1" fill="#3B3191"/><path d="M79.37 105.074h48.939a1 1 0 1 0 0-2H79.37a1 1 0 0 0 0 2" fill="#89A4F5"/><path d="M92.239 82.369v-1c-13.165.001-23.889 10.413-24.406 23.45l.999.039-.948-.318-.023.069-.052.154v22.012c.001 13.492 10.937 24.429 24.431 24.43 13.165-.001 23.891-10.412 24.406-23.45l-.999-.039.943.332.024-.069.057-.162v-22.018c-.001-13.492-10.939-24.429-24.432-24.43v2a22.36 22.36 0 0 1 15.862 6.57 22.355 22.355 0 0 1 6.57 15.86v21.848h1l-.943-.333-.025.07-.05.142-.006.15c-.471 11.967-10.321 21.53-22.407 21.529a22.353 22.353 0 0 1-15.861-6.57 22.355 22.355 0 0 1-6.57-15.86v-21.848h-1l.948.318.023-.068.046-.136.005-.143c.474-11.967 10.322-21.53 22.408-21.529v-1" fill="#3B3191"/><path d="M71.023 125.797a5.758 5.758 0 1 1 0-11.516" fill="#FFF"/><path d="M71.023 124.797a4.744 4.744 0 0 1-3.365-1.393 4.742 4.742 0 0 1-1.394-3.365 4.738 4.738 0 0 1 1.394-3.364 4.74 4.74 0 0 1 3.365-1.394 1 1 0 1 0 0-2 6.759 6.759 0 0 0 0 13.516 1 1 0 0 0 0-2M94.57 125.022a.726.726 0 0 0-.681.976 3.062 3.062 0 0 0 5.745 0 .727.727 0 0 0-.682-.976H94.57" fill="#3B3191"/><path d="M55.309 100.167c0 12.058-9.775 21.833-21.833 21.833-12.059 0-21.834-9.775-21.834-21.833 0-12.058 9.775-21.833 21.834-21.833 12.058 0 21.833 9.775 21.833 21.833" fill="#FFF"/><path d="M55.309 100.167h-1a20.767 20.767 0 0 1-6.102 14.731A20.76 20.76 0 0 1 33.476 121a20.76 20.76 0 0 1-14.732-6.102 20.763 20.763 0 0 1-6.102-14.731 20.763 20.763 0 0 1 6.102-14.731 20.76 20.76 0 0 1 14.732-6.102 20.76 20.76 0 0 1 14.731 6.102 20.767 20.767 0 0 1 6.102 14.731h2c-.001-12.611-10.223-22.833-22.833-22.833-12.612 0-22.833 10.222-22.834 22.833.001 12.61 10.222 22.832 22.834 22.833 12.61-.001 22.832-10.223 22.833-22.833h-1" fill="#3B3191"/><path d="M36.293 100.379l-.931-3.634c-.3-1.14-.691-2.792-.991-3.993h-.059c-.301 1.201-.602 2.853-.902 3.993l-.871 3.634h3.754zm-4.475 3.994l-1.14 4.685h-5.616l5.886-20.241h7.207l6.035 20.241h-5.855l-1.291-4.685h-5.226z" fill="#FF7878"/><path d="M34.293 100.379l.969-.248-.932-3.638-.001-.003c-.295-1.12-.686-2.77-.988-3.98l-.189-.758h-1.621l-.189.757c-.312 1.25-.614 2.902-.899 3.982l-.003.011-1.169 4.877h6.31l-.319-1.248-.969.248v-1h-2.486l.576-2.401-.973-.233.967.254c.315-1.201.615-2.852.905-4.004l-.97-.243v1h.059v-1l-.97.242c.298 1.193.688 2.845.994 4.006l-.001-.007.93 3.634.969-.248v-1 1zm-4.475 3.994l-.971-.236-.955 3.921h-3.498l5.305-18.241h5.711l5.439 18.241h-3.752l-1.291-4.685h-6.773l-.186.764.971.236v1h4.464l1.291 4.685h7.959l-6.631-22.241h-8.703l-6.469 22.241h7.735l1.326-5.448-.972-.237v1-1z" fill="#3B3191"/><path d="M181.309 55.917c0 16.798-13.619 30.417-30.417 30.417-16.798 0-30.416-13.619-30.416-30.417 0-16.799 13.618-30.416 30.416-30.416 16.798 0 30.417 13.617 30.417 30.416" fill="#FFF"/><path d="M181.309 55.917h-1c-.001 8.126-3.291 15.474-8.616 20.801-5.327 5.324-12.675 8.615-20.801 8.616-8.126-.001-15.474-3.292-20.8-8.616-5.325-5.327-8.616-12.675-8.616-20.801 0-8.126 3.291-15.474 8.616-20.801 5.326-5.324 12.674-8.615 20.8-8.616 8.126.001 15.474 3.292 20.801 8.616 5.325 5.327 8.615 12.675 8.616 20.801h2c-.001-17.352-14.066-31.416-31.417-31.417-17.351.001-31.416 14.065-31.416 31.417 0 17.351 14.065 31.416 31.416 31.417 17.351-.001 31.416-14.066 31.417-31.417h-1" fill="#3B3191"/><path d="M136.892 69.209v-9.917a2.416 2.416 0 0 1 2.417-2.416h29.167a2.415 2.415 0 0 1 2.416 2.416v9.917a2.416 2.416 0 0 1-2.416 2.417h-29.167a2.417 2.417 0 0 1-2.417-2.417" fill="#FFF"/><path d="M136.892 69.209h1v-9.917a1.418 1.418 0 0 1 1.417-1.416h29.167a1.417 1.417 0 0 1 1.416 1.416v9.917a1.417 1.417 0 0 1-1.416 1.416h-29.167a1.418 1.418 0 0 1-1.417-1.416h-2a3.416 3.416 0 0 0 3.417 3.416h29.167a3.417 3.417 0 0 0 3.416-3.416v-9.917a3.416 3.416 0 0 0-3.416-3.416h-29.167a3.415 3.415 0 0 0-3.417 3.416v9.917h1" fill="#3B3191"/><path d="M142.642 65.667a1.415 1.415 0 1 1 0-2.833 1.416 1.416 0 1 1 0 2.833" fill="#D4D4E7"/><path fill="#E1E8FC" d="M163.392 68.167h3.334v-7.834h-3.334z"/><path fill="#C4D1FA" d="M161.726 68.167h-3.334v-4.945l3.097-2.889h.237v7.834"/><path fill="#A7BBF8" d="M156.726 68.167h-3.334v-.284l3.334-3.108v3.392"/><path fill="#89A4F5" d="M148.392 68.167h3.334v-7.833h-3.334z"/><path d="M145.34 70.72l-6.763-7.253a2.418 2.418 0 0 1 .119-3.416l21.333-19.89a2.415 2.415 0 0 1 3.415.12l6.763 7.253c.91.976.857 2.505-.119 3.415l-21.333 19.89a2.415 2.415 0 0 1-3.415-.119" fill="#FFF"/><path d="M145.34 70.72l.731-.682-6.762-7.253a1.406 1.406 0 0 1-.381-.966 1.41 1.41 0 0 1 .45-1.036l21.333-19.89.001-.001c.275-.256.616-.379.965-.38.382.001.754.149 1.036.451l6.763 7.253c.256.275.379.616.38.965a1.408 1.408 0 0 1-.45 1.037l-21.333 19.89a1.414 1.414 0 0 1-2.002-.07l-1.462 1.364a3.41 3.41 0 0 0 2.499 1.087 3.409 3.409 0 0 0 2.329-.918l21.333-19.89v-.001a3.413 3.413 0 0 0 .168-4.828l-6.762-7.253a3.413 3.413 0 0 0-4.829-.169l-21.333 19.89a3.416 3.416 0 0 0-.168 4.829l6.763 7.253.731-.682" fill="#3B3191"/><path d="M147.13 64.209a1.417 1.417 0 1 1-1.93-2.075 1.417 1.417 0 0 1 1.93 2.075" fill="#D4D4E7"/><path fill="#CECBE3" d="M164.012 51.886l-5.343-5.729 2.438-2.273 5.342 5.729-2.437 2.273"/><path fill="#9D98C8" d="M160.355 55.297l-5.342-5.73 2.437-2.273 5.342 5.729-2.437 2.274"/><path fill="#6C65AD" d="M156.697 58.706l-4.055-4.35v-2.579l1.151-1.073 5.343 5.729-2.439 2.273"/><path fill="#3B3191" d="M153.04 62.116l-5.342-5.73 2.439-2.273 5.342 5.729-2.439 2.274"/><path d="M149.226 71h-9.917a2.416 2.416 0 0 1-2.417-2.417V39.417A2.417 2.417 0 0 1 139.309 37h9.917a2.416 2.416 0 0 1 2.416 2.417v29.166A2.415 2.415 0 0 1 149.226 71" fill="#FFF"/><path d="M149.226 71v-.999h-9.917a1.42 1.42 0 0 1-1.417-1.418V39.417a1.418 1.418 0 0 1 1.417-1.416h9.917a1.417 1.417 0 0 1 1.416 1.416v29.166a1.419 1.419 0 0 1-1.416 1.418v2a3.418 3.418 0 0 0 3.416-3.418V39.417A3.418 3.418 0 0 0 149.226 36h-9.917a3.417 3.417 0 0 0-3.417 3.417v29.166a3.417 3.417 0 0 0 3.417 3.418h9.917V71" fill="#3B3191"/><path d="M145.684 65.251a1.416 1.416 0 1 1-2.833 0 1.416 1.416 0 0 1 2.833 0" fill="#D4D4E7"/><path fill="#FDD" d="M140.351 44.5h7.833v-3.333h-7.833z"/><path fill="#FBB" d="M140.351 49.501h7.833v-3.334h-7.833z"/><path fill="#FF9A9A" d="M140.351 54.5h7.833v-3.333h-7.833z"/><path fill="#FF7878" d="M140.351 59.5h7.833v-3.333h-7.833z"/><path d="M102.559 35.376c0 18.754-15.203 33.958-33.958 33.958S34.643 54.13 34.643 35.376c0-18.754 15.203-33.958 33.958-33.958s33.958 15.204 33.958 33.958" fill="#FFF"/><path d="M102.559 35.376h-1c-.001 9.104-3.688 17.337-9.653 23.304-5.968 5.966-14.201 9.653-23.305 9.654-9.104-.001-17.338-3.688-23.305-9.654-5.966-5.967-9.652-14.2-9.653-23.304.001-9.104 3.687-17.337 9.653-23.305 5.967-5.966 14.201-9.652 23.305-9.653 9.104.001 17.337 3.687 23.305 9.653 5.965 5.968 9.652 14.201 9.653 23.305h2C103.558 16.069 87.908.419 68.601.418 49.294.419 33.644 16.069 33.643 35.376c.001 19.307 15.651 34.957 34.958 34.958 19.307-.001 34.957-15.651 34.958-34.958h-1" fill="#3B3191"/><path d="M82.642 46.001h-28.5a2.334 2.334 0 0 1-2.333-2.334V24.334A2.334 2.334 0 0 1 54.142 22h28.5a2.334 2.334 0 0 1 2.334 2.334v19.333a2.334 2.334 0 0 1-2.334 2.334" fill="#FFF"/><path d="M82.642 46.001v-1h-28.5a1.336 1.336 0 0 1-1.333-1.334V24.334A1.336 1.336 0 0 1 54.142 23h28.5a1.338 1.338 0 0 1 1.334 1.334v19.333a1.338 1.338 0 0 1-1.334 1.334v2a3.335 3.335 0 0 0 3.334-3.334V24.334A3.335 3.335 0 0 0 82.642 21h-28.5a3.334 3.334 0 0 0-3.333 3.334v19.333a3.334 3.334 0 0 0 3.333 3.334h28.5v-1" fill="#3B3191"/><path d="M66.892 30.514a3.817 3.817 0 1 1-7.634 0 3.817 3.817 0 0 1 7.634 0" fill="#FF7878"/><path d="M65.552 30.514h-1a2.821 2.821 0 0 1-2.817 2.817 2.821 2.821 0 0 1-2.817-2.817 2.822 2.822 0 0 1 2.817-2.817 2.821 2.821 0 0 1 2.817 2.817h2a4.817 4.817 0 1 0-9.635 0 4.817 4.817 0 0 0 9.635 0h-1" fill="#3B3191"/><path d="M56.956 43.576l14.776-10.09 8.675 6.682a1 1 0 0 0 1.22-1.585l-9.25-7.125a1.002 1.002 0 0 0-1.174-.033l-15.375 10.5a1 1 0 1 0 1.128 1.651" fill="#89A4F5"/><path d="M79.227 34.562l3.125-2.25a1.001 1.001 0 0 0-1.169-1.623l-3.125 2.25a1 1 0 0 0 1.169 1.623" fill="#D4D4E7"/><path d="M184.309 127.167c0 12.058-9.776 21.833-21.833 21.833-12.059 0-21.833-9.775-21.833-21.833 0-12.059 9.774-21.833 21.833-21.833 12.057 0 21.833 9.774 21.833 21.833" fill="#FFF"/><path d="M184.309 127.167h-1a20.767 20.767 0 0 1-6.102 14.731A20.763 20.763 0 0 1 162.476 148a20.76 20.76 0 0 1-14.732-6.102 20.762 20.762 0 0 1-6.101-14.731c0-5.756 2.33-10.958 6.101-14.731a20.764 20.764 0 0 1 14.732-6.102 20.765 20.765 0 0 1 14.731 6.102 20.767 20.767 0 0 1 6.102 14.731h2c-.001-12.611-10.223-22.832-22.833-22.833-12.612.001-22.833 10.222-22.833 22.833 0 12.61 10.221 22.832 22.833 22.833 12.61-.001 22.832-10.223 22.833-22.833h-1" fill="#3B3191"/><path d="M155.476 123.167h16.166a1 1 0 0 0 0-2h-16.166a1 1 0 1 0 0 2M155.476 127.167h16.166a1 1 0 0 0 0-2h-16.166a1 1 0 1 0 0 2M155.476 131.167h16.166a1 1 0 0 0 0-2h-16.166a1 1 0 1 0 0 2M155.476 135.167h8.166a1 1 0 0 0 0-2h-8.166a1 1 0 1 0 0 2" fill="#89A4F5"/></g></svg>