<svg width="64" height="55" xmlns="http://www.w3.org/2000/svg"><g fill="none" fill-rule="evenodd"><path fill="none" d="M-660-355h1680V845H-660z"/><g stroke-linejoin="round" stroke-width="2"><path d="M32 14c-.333-7.333-5.49-11-15.47-11C7.5 3 3 10 3 16.5s-.96 11 16.5 26" stroke="#FF636E" stroke-dasharray="3,2"/><path d="M31.99 14c.334-7.333 5.49-11 15.47-11 9.03 0 13.53 7 13.53 13.5s.96 11-16.5 26" stroke="#FF636E" stroke-dasharray="3,2"/><path stroke="#623CDC" fill="#FFF" stroke-linecap="round" d="M14 1h4v4h-4zM30 11h4v4h-4zM1 18h4v4H1zM46 1h4v4h-4zM59 18h4v4h-4z"/><g transform="translate(21 20)" stroke="#623CDC" stroke-linecap="round"><path d="M3 34l1.5-8h13l1.5 8zM5 25c-.667-3.333-2.333-7-5-11L11 0l11 14c-2.667 4-4.333 7.667-5 11M11 1v12"/><circle cx="11" cy="15" r="2"/></g></g></g></svg>
