<svg fill="none" xmlns="http://www.w3.org/2000/svg" viewBox="0 0 74 74"><g filter="url(#filter0_d)"><rect x="2" y="1" width="70" height="70" rx="5" fill="#F6F5FF"/><rect x="2.5" y="1.5" width="69" height="69" rx="4.5" stroke="#D7D7DE"/></g><path d="M38.4 42.138c0-.967-.424-1.887-1.18-2.487-1.158-.918-3.164-2.05-6.02-2.05-2.856 0-4.862 1.132-6.02 2.05-.756.6-1.18 1.52-1.18 2.487V44h14.4v-1.862z" fill="#695FF6"/><circle cx="31.2" cy="32" r="4" fill="#695FF6"/><circle cx="42.4" cy="32" r="4" fill="#695FF6"/><path d="M48.42 39.651c-1.158-.918-3.164-2.05-6.02-2.05-.898 0-1.7.12-2.43.302a6.326 6.326 0 011.63 4.235V44h8v-1.862c0-.967-.424-1.887-1.18-2.487z" fill="#695FF6"/><defs><filter id="filter0_d" x="0" y="0" width="74" height="74" filterUnits="userSpaceOnUse" color-interpolation-filters="sRGB"><feFlood flood-opacity="0" result="BackgroundImageFix"/><feColorMatrix in="SourceAlpha" values="0 0 0 0 0 0 0 0 0 0 0 0 0 0 0 0 0 0 127 0" result="hardAlpha"/><feOffset dy="1"/><feGaussianBlur stdDeviation="1"/><feColorMatrix values="0 0 0 0 0.0666667 0 0 0 0 0.0588235 0 0 0 0 0.2 0 0 0 0.1 0"/><feBlend in2="BackgroundImageFix" result="effect1_dropShadow"/><feBlend in="SourceGraphic" in2="effect1_dropShadow" result="shape"/></filter></defs></svg>
