<svg width="158" height="158" xmlns="http://www.w3.org/2000/svg" xmlns:xlink="http://www.w3.org/1999/xlink"><defs><path id="a" d="M.06 158V0H158v158z"/></defs><g fill="none" fill-rule="evenodd"><mask id="b" fill="#fff"><use xlink:href="#a"/></mask><path d="M158 79c0 43.631-35.369 79-79 79-43.63 0-79-35.369-79-79C0 35.37 35.37 0 79 0c43.631 0 79 35.37 79 79" fill="#E1E6FA" mask="url(#b)"/><path fill="#FFF" d="M78.74 43.138L28.167 79.484l50.573 46.321 44.249-1.917 7.75-44.75-51.999-36"/><path stroke="#3B3191" stroke-width="2" stroke-linecap="round" stroke-linejoin="round" d="M78.74 43.138L28.167 79.484l50.573 46.321 44.249-1.917 7.75-44.75z"/><path d="M36.49 79.888h85.499" stroke="#89A4F5" stroke-width="2" stroke-linecap="round"/><path fill="#FFF" d="M114.739 119.138H44.07V33.805h62.502l8.167 8v77.333"/><path stroke="#3B3191" stroke-width="2" stroke-linecap="round" stroke-linejoin="round" d="M114.739 119.138H44.07V33.805h62.502l8.167 8z"/><path fill="#FFF" d="M131.5 145.773H28.167V79.484l51.614 31.446L131.5 79.484v66.289"/><path stroke="#3B3191" stroke-width="2" stroke-linecap="round" stroke-linejoin="round" d="M131.5 145.773H28.167V79.484l51.614 31.446L131.5 79.484z"/><path d="M74.24 114.638l-39.5 25.25m50.999-25.25l39.5 25.25" stroke="#89A4F5" stroke-width="2" stroke-linecap="round"/><path d="M97.563 67.398c0 .26-.154.544-.461.853l-6.45 6.289 1.528 8.883c.012.083.018.201.018.355 0 .249-.062.459-.186.631-.125.172-.306.258-.542.258-.226 0-.462-.071-.711-.214l-7.978-4.192-7.976 4.192c-.261.143-.498.214-.711.214-.249 0-.435-.086-.56-.258a1.05 1.05 0 0 1-.186-.631c0-.071.011-.189.035-.355l1.528-8.883-6.467-6.289c-.296-.32-.444-.605-.444-.853 0-.438.331-.711.995-.817l8.919-1.297 3.997-8.084c.225-.486.516-.729.87-.729.356 0 .646.243.871.729l3.997 8.084 8.919 1.297c.663.106.995.379.995.817" fill="#FF7878"/><path d="M93.563 67.398c0 .26-.154.544-.461.853l-6.45 6.289 1.528 8.883c.012.083.018.201.018.355 0 .249-.062.459-.186.631-.125.172-.306.258-.542.258-.226 0-.462-.071-.711-.214l-7.977-4.192-7.977 4.192c-.261.143-.498.214-.711.214-.249 0-.435-.086-.56-.258a1.05 1.05 0 0 1-.186-.631c0-.071.011-.189.035-.355l1.528-8.883-6.467-6.289c-.296-.32-.444-.605-.444-.853 0-.438.331-.711.995-.817l8.919-1.297 3.997-8.084c.225-.486.515-.729.871-.729.355 0 .645.243.87.729l3.997 8.084 8.919 1.297c.663.106.995.379.995.817z" stroke="#3B3191" stroke-width="2"/><path stroke="#89A4F5" stroke-width="2" stroke-linecap="round" d="M105.462 38.805v4.437h3.944"/></g></svg>