<svg width="38" height="55" xmlns="http://www.w3.org/2000/svg"><g fill="none" fill-rule="evenodd"><path fill="none" d="M-273-355h1680V845H-273z"/><g transform="translate(1 1)"><path d="M12 40c-2.667-6.667-4-12.667-4-18 0-9.333 3.333-16.667 10-22 6.667 5.333 10 12.667 10 22 0 5.333-1.333 11.333-4 18H12z" stroke="#623CDC" stroke-width="2" stroke-linecap="round" stroke-linejoin="round"/><circle stroke="#FF636E" stroke-width="2" stroke-linecap="round" stroke-linejoin="round" cx="18" cy="15" r="2"/><path stroke="#623CDC" stroke-width="2" stroke-linecap="round" stroke-linejoin="round" d="M27 36H0v-5l8-6"/><path stroke="#623CDC" stroke-width="2" stroke-linecap="round" stroke-linejoin="round" d="M24 36h12v-5l-8-6"/><rect fill="#623CDC" x="17" y="27" width="2" height="10" rx="1"/><path d="M12.5 6h11" stroke="#623CDC" stroke-width="2" stroke-linecap="round" stroke-linejoin="round"/><rect fill="#FF636E" x="17" y="44" width="2" height="10" rx="1"/><rect fill="#FF636E" x="12" y="44" width="2" height="6" rx="1"/><rect fill="#FF636E" x="22" y="44" width="2" height="6" rx="1"/></g></g></svg>
