<svg width="156" height="22" xmlns="http://www.w3.org/2000/svg"><g fill-rule="nonzero" fill="#120F4D" opacity=".3"><path d="M11.066 4.616v16.5H6.747v-16.5H.27v-3.3h16.194v3.3h-5.398zm17.527 9.9h-8.98c.142 2.2 1.658 3.209 3.089 3.209 1.087 0 2.001-.246 2.574-.918l2.802 2.47c-1.2 1.573-3.375 2.518-5.376 2.518-4.32 0-7.065-3.098-7.065-7.936 0-4.692 2.888-7.975 6.693-7.975 4.005 0 6.32 3.294 6.32 7.666 0 .586-.028.966-.057.966zm-6.463-4.94c-1.43 0-2.317.54-2.46 2.74h5.149c-.115-2.2-.916-2.74-2.69-2.74zm15.93 12.262c-3.919 0-7.035-3.265-7.035-7.957s3.032-7.985 7.207-7.985c2.86 0 4.69 1.428 5.95 3.381l-2.603 2.681c-.887-1.283-1.83-2.186-3.432-2.186-1.888 0-3.118 1.603-3.118 4.108 0 2.45 1.23 4.082 3.118 4.082 1.544 0 2.517-.7 3.547-1.953l2.517 2.419c-1.46 1.982-3.177 3.41-6.15 3.41zm17.809-.722V13.24c0-2.738-.515-3.555-2.146-3.555-1.63 0-2.173.817-2.173 3.47v7.962h-4.318V2.285L51.55.272V7.24c0-.729 1.73-1.34 3.303-1.34 3.833 0 5.334 2.68 5.334 6.994v8.224h-4.318zM75.957 7.062c-.715-1.398-1.86-2.215-3.66-2.215-3.004 0-4.72 2.682-4.72 6.47 0 3.672 1.745 6.47 4.748 6.47 1.804 0 2.862-.787 3.92-2.594l3.374 2.04c-1.372 2.885-3.776 4.604-7.407 4.604-5.235 0-8.753-4.081-8.753-10.521 0-6.208 3.66-10.52 8.894-10.52 3.777 0 6.065 1.864 7.322 4.515l-3.718 1.751zm14.702 3.847c-.63-.584-1.267-.991-2.153-.991-1.543 0-2.41.672-2.41 3.322v7.876H81.78v-15.4h4.318v1.521c1.08-.728 1.552-1.34 2.954-1.34 1.286 0 2.19.524 2.705 1.078l-1.097 3.934zm12.711 10.07v-.482c-1.08.729-1.73 1.34-3.303 1.34-3.833 0-5.333-2.681-5.333-6.993V5.716h3.238v8.777c0 2.74 1.055 3.556 2.686 3.556 1.628 0 2.712-.817 2.712-3.47V5.716h4.319v15.4H103.2l.17-.137zm15.654.137V13.24c0-2.738-.244-3.555-1.876-3.555-1.628 0-1.902.817-1.902 3.47v7.962h-4.319v-15.4h4.319V7.24c0-.729 1.46-1.34 3.033-1.34 3.833 0 5.064 2.68 5.064 6.994v8.224h-4.319zm14.765.722c-3.92 0-7.035-3.265-7.035-7.957s3.032-7.985 7.207-7.985c2.861 0 4.691 1.428 5.949 3.381l-2.6 2.681c-.889-1.283-1.831-2.186-3.432-2.186-1.89 0-3.12 1.603-3.12 4.108 0 2.45 1.23 4.082 3.12 4.082 1.542 0 2.516-.7 3.546-1.953l2.517 2.419c-1.463 1.982-3.178 3.41-6.152 3.41zm17.623-.32V13.24c0-2.738-.515-3.555-2.146-3.555-1.628 0-2.173.817-2.173 3.47v7.962h-4.318V2.285l4.318-2.013V7.24c0-.729 1.73-1.34 3.303-1.34 3.834 0 5.334 2.68 5.334 6.994v8.224h-4.217l-.101.4z"/></g></svg>