<svg width="277" height="277" xmlns="http://www.w3.org/2000/svg" xmlns:xlink="http://www.w3.org/1999/xlink"><defs><path id="a" d="M0 .228h276.7721V277H0z"/><path d="M.372 53.6127c0 29.2798 23.7361 53.0153 53.0146 53.0153 29.2792 0 53.014-23.7355 53.014-53.0153 0-29.2785-23.7348-53.0134-53.014-53.0134C24.1081.5993.372 24.3343.372 53.6127z" id="c"/><path d="M.372 53.6127c0 29.2798 23.7361 53.0153 53.0146 53.0153 29.2792 0 53.014-23.7355 53.014-53.0153 0-29.2785-23.7348-53.0134-53.014-53.0134C24.1081.5993.372 24.3343.372 53.6127z" id="e"/><path d="M.372 53.6127c0 29.2798 23.7361 53.0153 53.0146 53.0153 29.2792 0 53.014-23.7355 53.014-53.0153 0-29.2785-23.7348-53.0134-53.014-53.0134C24.1081.5993.372 24.3343.372 53.6127z" id="g"/><path d="M.372 53.6127c0 29.2798 23.7361 53.0153 53.0146 53.0153 29.2792 0 53.014-23.7355 53.014-53.0153 0-29.2785-23.7348-53.0134-53.014-53.0134C24.1081.5993.372 24.3343.372 53.6127z" id="i"/><path d="M.372 53.6127c0 29.2798 23.7361 53.0153 53.0146 53.0153 29.2792 0 53.014-23.7355 53.014-53.0153 0-29.2785-23.7348-53.0134-53.014-53.0134C24.1081.5993.372 24.3343.372 53.6127z" id="k"/><path d="M.372 53.6127c0 29.2798 23.7361 53.0153 53.0146 53.0153 29.2792 0 53.014-23.7355 53.014-53.0153 0-29.2785-23.7348-53.0134-53.014-53.0134C24.1081.5993.372 24.3343.372 53.6127z" id="m"/><path d="M.372 53.6127c0 29.2798 23.7361 53.0153 53.0146 53.0153 29.2792 0 53.014-23.7355 53.014-53.0153 0-29.2785-23.7348-53.0134-53.014-53.0134C24.1081.5993.372 24.3343.372 53.6127z" id="o"/><path d="M.372 53.6127c0 29.2798 23.7361 53.0153 53.0146 53.0153 29.2792 0 53.014-23.7355 53.014-53.0153 0-29.2785-23.7348-53.0134-53.014-53.0134C24.1081.5993.372 24.3343.372 53.6127z" id="q"/><path d="M.372 53.6127c0 29.2798 23.7361 53.0153 53.0146 53.0153 29.2792 0 53.014-23.7355 53.014-53.0153 0-29.2785-23.7348-53.0134-53.014-53.0134C24.1081.5993.372 24.3343.372 53.6127z" id="s"/><path d="M53.3866 106.628c29.2792 0 53.014-23.7355 53.014-53.0153 0-29.2785-23.7348-53.0134-53.014-53.0134C24.1081.5993.372 24.3343.372 53.6127c0 29.2798 23.7361 53.0153 53.0146 53.0153z" id="u"/></defs><g fill="none" fill-rule="evenodd"><g><mask id="b" fill="#fff"><use xlink:href="#a"/></mask><path d="M138.3864 247.8756c-60.3445 0-109.2618-48.918-109.2618-109.2619 0-60.3438 48.9173-109.2618 109.2618-109.2618 60.3439 0 109.2612 48.918 109.2612 109.2618 0 60.344-48.9173 109.2619-109.2612 109.2619m0-247.6476C61.958.228 0 62.1854 0 138.6137c0 76.4284 61.958 138.3864 138.3864 138.3864 76.4277 0 138.3857-61.958 138.3857-138.3864C276.7721 62.1854 214.8141.228 138.3864.228" fill="#5048C7" mask="url(#b)"/></g><g transform="translate(85 85)"><mask id="d" fill="#fff"><use xlink:href="#c"/></mask><path fill="#F6F5FF" mask="url(#d)" d="M-73.613 112.874l-3.926-3.9253L35.5562-4.1464l3.9253 3.9258z"/></g><g transform="translate(85 85)"><mask id="f" fill="#fff"><use xlink:href="#e"/></mask><path fill="#F6F5FF" mask="url(#f)" d="M-57.751 112.874l-3.926-3.9253L51.4182-4.1464l3.9259 3.9258z"/></g><g transform="translate(85 85)"><mask id="h" fill="#fff"><use xlink:href="#g"/></mask><path fill="#F6F5FF" mask="url(#h)" d="M-41.8894 112.874l-3.9259-3.9253L67.2799-4.1464l3.9259 3.9258z"/></g><g transform="translate(85 85)"><mask id="j" fill="#fff"><use xlink:href="#i"/></mask><path fill="#F6F5FF" mask="url(#j)" d="M-26.0274 112.874l-3.926-3.9253L83.142-4.1464 87.067-.2206z"/></g><g transform="translate(85 85)"><mask id="l" fill="#fff"><use xlink:href="#k"/></mask><path fill="#F6F5FF" mask="url(#l)" d="M-10.1658 112.874l-3.9258-3.9253L99.0035-4.1464l3.9253 3.9258z"/></g><g transform="translate(85 85)"><mask id="n" fill="#fff"><use xlink:href="#m"/></mask><path fill="#F6F5FF" mask="url(#n)" d="M5.6962 112.874l-3.9259-3.9253L114.8655-4.1464l3.9259 3.9258z"/></g><g transform="translate(85 85)"><mask id="p" fill="#fff"><use xlink:href="#o"/></mask><path fill="#F6F5FF" mask="url(#p)" d="M21.5582 112.874l-3.9259-3.9253L130.727-4.1464l3.9258 3.9258z"/></g><g transform="translate(85 85)"><mask id="r" fill="#fff"><use xlink:href="#q"/></mask><path fill="#F6F5FF" mask="url(#r)" d="M37.4199 112.874l-3.9253-3.9253L146.5886-4.1464l3.9258 3.9258z"/></g><g transform="translate(85 85)"><mask id="t" fill="#fff"><use xlink:href="#s"/></mask><path fill="#F6F5FF" mask="url(#t)" d="M53.2815 112.874l-3.9252-3.9253L162.4508-4.1464l3.9253 3.9258z"/></g><g transform="translate(85 85)"><mask id="v" fill="#fff"><use xlink:href="#u"/></mask><path fill="#F6F5FF" mask="url(#v)" d="M69.1431 112.874l-3.9252-3.9253L178.3131-4.1464l3.9252 3.9258z"/></g></g></svg>
