<svg width="174" height="17" xmlns="http://www.w3.org/2000/svg" xmlns:xlink="http://www.w3.org/1999/xlink"><defs><path id="a" d="M.0002-.0002H173.071v16.0578H.0002z"/></defs><g fill="none" fill-rule="evenodd"><mask id="b" fill="#fff"><use xlink:href="#a"/></mask><path d="M154.8002 16.0578c-4.935 0-7.389-3.927-9.555-7.392-2.099-3.36-3.914-6.261-7.514-6.261-3.601 0-5.413 2.901-7.514 6.261-2.165 3.465-4.62 7.392-9.553 7.392-4.933 0-7.387-3.927-9.552-7.392-2.101-3.36-3.915-6.261-7.515-6.261-3.601 0-5.414 2.901-7.514 6.261-2.165 3.465-4.619 7.392-9.553 7.392-4.932 0-7.386-3.927-9.552-7.392-2.1-3.36-3.913-6.261-7.514-6.261-3.6 0-5.412 2.901-7.513 6.261-2.164 3.465-4.619 7.392-9.55 7.392-4.933 0-7.388-3.927-9.553-7.392-2.1-3.36-3.914-6.261-7.514-6.261-3.599 0-5.413 2.901-7.513 6.261-2.166 3.465-4.62 7.392-9.553 7.392-4.933 0-7.387-3.927-9.553-7.392-2.1-3.36-3.913-6.261-7.513-6.261-.664 0-1.202-.538-1.202-1.202 0-.665.538-1.203 1.202-1.203 4.933 0 7.387 3.927 9.552 7.392 2.1 3.359 3.913 6.262 7.514 6.262 3.6 0 5.414-2.903 7.514-6.262 2.165-3.465 4.62-7.392 9.552-7.392 4.934 0 7.388 3.927 9.553 7.392 2.1 3.359 3.913 6.262 7.514 6.262 3.599 0 5.412-2.903 7.512-6.262 2.164-3.465 4.619-7.392 9.551-7.392 4.933 0 7.388 3.927 9.553 7.392 2.1 3.359 3.914 6.262 7.513 6.262 3.6 0 5.414-2.903 7.514-6.262 2.165-3.465 4.62-7.392 9.553-7.392 4.933 0 7.388 3.927 9.554 7.392 2.099 3.359 3.913 6.262 7.513 6.262s5.413-2.903 7.514-6.262c2.165-3.465 4.62-7.392 9.553-7.392 4.933 0 7.388 3.927 9.553 7.392 2.101 3.359 3.915 6.262 7.516 6.262s5.414-2.903 7.515-6.262c2.166-3.465 4.62-7.392 9.553-7.392.664 0 1.203.538 1.203 1.203 0 .664-.539 1.202-1.203 1.202-3.6 0-5.415 2.901-7.514 6.261-2.166 3.465-4.621 7.392-9.554 7.392" fill="#192E56" mask="url(#b)"/></g></svg>
