<svg width="124" height="22" xmlns="http://www.w3.org/2000/svg"><g fill-rule="nonzero" fill="#120F4D"><path d="M59.612 4.363V.939H46.011v20.54h13.601v-3.425H49.271v-5.128h9.843V9.501h-9.843V4.363zM69.705 21.479V.939h3.262v17.115h9.408v3.425zM85.031 21.479V.939h3.261v17.115H97.7v3.425zM63.036.939h3.258v20.54h-3.258zM0 11.302C0 5.395 4.563.609 10.193.605c5.628.004 10.188 4.789 10.188 10.696C20.381 17.21 15.821 22 10.193 22 4.563 22 0 17.21 0 11.302m5.291-5.146a7.46 7.46 0 0 0-2.029 5.146 7.44 7.44 0 0 0 2.029 5.144c1.262 1.322 2.982 2.135 4.903 2.135 1.918 0 3.641-.812 4.899-2.135a7.429 7.429 0 0 0 2.029-5.144 7.452 7.452 0 0 0-2.029-5.146c-1.258-1.314-2.98-2.124-4.899-2.124-1.922 0-3.641.81-4.903 2.124M38.668 12.668c2.354-.743 4.068-3.022 4.073-5.738-.005-3.306-2.557-5.99-5.709-5.99H27.2v20.539h3.262v-8.553h4.546l4.915 8.553h3.806l-5.061-8.811zm-8.207-3.167V4.363h6.57c1.35 0 2.444 1.148 2.445 2.566-.001 1.414-1.096 2.567-2.445 2.571h-6.57v.001zM24.892 3.129c0 1.392-1.079 2.518-2.402 2.518-1.327 0-2.399-1.126-2.399-2.518 0-1.393 1.073-2.523 2.399-2.523 1.323-.001 2.402 1.13 2.402 2.523M112.241.939h-3.965l-5.018 7.627L98.239.939h-3.965l7.348 11.172v9.368h3.263v-9.358zM119.615 0c-2.419 0-4.388 2.057-4.388 4.609 0 2.537 1.969 4.6 4.388 4.6 2.422 0 4.385-2.062 4.385-4.6C124 2.057 122.037 0 119.615 0m0 8.477c-2.036 0-3.685-1.736-3.685-3.867 0-2.143 1.649-3.879 3.685-3.879 2.03 0 3.685 1.736 3.685 3.879-.001 2.13-1.655 3.867-3.685 3.867"/><path d="M121.583 3.596c0-.764-.581-1.379-1.301-1.379h-2.473v4.701h.747V4.967h1.249l.896 1.951h.83l-.919-2c.563-.152.971-.685.971-1.322zm-3.027-.592h1.726c.31 0 .555.264.557.592a.568.568 0 0 1-.557.58h-1.726V3.004z"/></g></svg>
