<svg width="235" height="20" xmlns="http://www.w3.org/2000/svg"><path d="M233.747 17.253c-.684 0-1.254.573-1.254 1.345 0 .773.57 1.345 1.254 1.345.683 0 1.253-.572 1.253-1.345 0-.772-.57-1.345-1.253-1.345zm-45.354 2.604h5.754v-.515l-.626-.143c-.57-.143-.826-.458-.826-1.26v-7.782h1.339c.826 0 1.253.2 1.31 1.946l.143 3.662c.114 3.29 1.054 4.207 2.65 4.207 1.623 0 2.05-1.117 2.05-2.69v-.658h-.598v.486c0 1.059-.142 1.803-.542 1.803-.37 0-.398-.286-.484-1.603l-.17-2.517c-.228-3.377-.656-4.55-3.134-5.008 2.364-.629 3.817-2.375 3.817-4.864 0-3.233-2.535-4.778-4.957-4.778h-9.714v.515l.541.114c1.026.23 1.054.773 1.054 3.09V15.25c0 2.547-.712 3.777-2.336 3.777-1.452 0-2.25-.715-2.25-3.49V2.002c0-.801.256-1.03.882-1.173l.77-.172V.143h-5.954v.515l.626.172c.57.171.77.4.77 1.201v13.305c0 3.004 1.737 4.664 4.387 4.664 2.65 0 3.96-1.66 3.96-4.75V2.832c0-1.545.313-2.088 1.566-2.088.998 0 1.425.343 1.425 1.287V17.94c0 .802-.256 1.088-.826 1.231l-.627.172v.515zM226.624 2.03c0-.8.257-1.058.826-1.173l.77-.172V.143h-5.926v.515l.627.172c.57.171.826.4.826 1.201v16.024c0 .772-.313 1.201-1.197 1.201-1.025 0-1.168-.343-1.538-2.031L217.366.085h-1.14l-3.475 16.596c-.4 1.86-.599 2.29-1.368 2.518l-.485.143v.515h4.075v-.515l-.598-.115c-.855-.171-1.083-.629-.656-2.804l2.052-10.615 2.25 11.245c.342 1.63.314 1.946-.912 2.174l-.598.115v.515h15.099v-6.524h-.541c-.285 3.004-.883 5.837-3.305 5.837h-1.14V2.031zm-8.888 12.504v-.772h-3.846l-.113.772h3.959zM201.84 2.375V16.05c0 2.06 0 3.033-1.026 3.205l-.513.086v.515h4.188v-.515c-1.823-.258-1.823-.887-1.823-3.119V3.233l-.684-.63 6.98 17.254h1.196V3.949c0-2.347 0-2.862 1.14-3.177l.399-.114V.143h-4.303v.515l.485.114c1.453.258 1.453.83 1.453 3.005v9.957l.285-.086L204.318.143h-4.074v.515l.399.114c.456.144.712.659 1.197 1.603zM192.695.83h1.14c1.139 0 2.193.744 2.193 4.463 0 3.806-.797 4.178-2.393 4.178h-.94V.83zm-18.973 8.984c0 8.269-.684 9.442-2.165 9.442-1.482 0-2.137-1.173-2.137-9.385 0-7.954.712-9.099 2.137-9.099 1.481 0 2.165 1.145 2.165 9.042zm3.105.172c0-5.465-1.738-9.986-5.27-9.986-3.561 0-5.243 4.52-5.243 9.986 0 5.493 1.738 10.014 5.243 10.014 3.618 0 5.27-4.52 5.27-10.014zM164.634 2.03c0-.8.2-1.058.769-1.201l.627-.172V.143h-5.897v.515l.712.172c.57.143.883.343.883 1.173v13.762c0 1.917-.171 3.462-1.595 3.462-.912 0-1.596-.715-1.567-1.23.085-.887 1.567-.83 1.68-2.26.086-1.03-.57-1.46-1.167-1.545-.883-.115-1.966.629-1.995 2.117-.028 1.917 1.225 3.663 3.362 3.663 2.365 0 4.188-1.603 4.188-4.665V2.031zm-95.151 0c0-.8.256-1.058.826-1.173l.77-.172V.143h-5.926v.515l.627.172c.57.171.826.4.826 1.201v16.024c0 .772-.314 1.201-1.197 1.201-1.026 0-1.197-.343-1.567-2.031L60.196.085h-1.14l-3.475 16.596c-.399 1.86-.599 2.29-1.368 2.518l-.484.143v.515h4.074v-.515l-.599-.115c-.854-.171-1.082-.629-.655-2.804L58.6 5.751l2.251 11.302c.313 1.63.313 1.946-.912 2.174l-.598.115v.515h15.127v-6.524h-.54c-.286 3.004-.884 5.837-3.305 5.837h-1.14V2.031zM148.794.83h.627c1.767 0 2.365 2.832 2.564 5.837h.541V.143h-10.341v6.524h.541c.2-3.005.798-5.837 2.564-5.837h.627v17.11c0 .801-.256 1.087-.826 1.23l-.74.172v.515h6.153v-.515l-.884-.2c-.54-.143-.826-.315-.826-1.203V.83zm-13.019 9.127l.883.029c1.282.028 1.652.515 1.91 3.634h.54V5.665h-.54c-.314 2.49-.656 3.548-1.881 3.577l-.912.028V.83h1.966c2.194 0 2.678 2.775 2.991 5.837h.541V.143h-9.828v.515l.627.172c.655.171.826.572.826 1.23v15.88c0 .801-.256 1.087-.826 1.23l-.627.172v.515h10.113v-6.524h-.541c-.342 2.976-.712 5.837-3.276 5.837h-1.966V9.957zm-10.74 0l.883.029c1.282.028 1.652.515 1.909 3.634h.541V5.665h-.541c-.313 2.49-.655 3.548-1.88 3.577l-.912.028V.83h1.966c2.194 0 2.678 2.832 2.991 5.837h.541V.143H120.42v.515l.912.172c.655.171.826.572.826 1.23v15.88c0 .801-.257 1.087-.826 1.23l-.627.172v.515h10.113v-6.524h-.54c-.343 2.976-.713 5.837-3.277 5.837h-1.966V9.957zM113.326.83h.855c1.14 0 2.194.744 2.194 4.463 0 3.748-.798 4.178-2.393 4.178h-.656V.83zm-4.301 19.027h5.754v-.515l-.627-.143c-.57-.143-.826-.458-.826-1.26v-7.782h1.054c.827 0 1.254.344 1.311 1.946l.142 3.662c.115 3.29 1.054 4.207 2.65 4.207 1.624 0 2.05-1.117 2.05-2.69v-.658h-.597v.486c0 1.059-.143 1.803-.542 1.803-.37 0-.399-.286-.484-1.603l-.171-2.517c-.228-3.462-.684-4.55-3.133-5.008 2.364-.629 3.817-2.375 3.817-4.864 0-3.233-2.536-4.778-4.957-4.778h-5.441v.515l.626.172c.57.171.826.4.826 1.201V17.94c0 .802-.256 1.088-.826 1.231l-.626.172v.515zM104.666.83h.627c1.766 0 2.364 2.832 2.564 5.837h.54V.143h-10.34v6.524h.541c.2-3.005.798-5.837 2.564-5.837h.627v17.11c0 .801-.257 1.087-.826 1.23l-.741.172v.515h6.01v-.515l-.74-.172c-.74-.171-.826-.744-.826-1.23V.83zm-6.58 13.905c0-5.865-6.41-7.41-6.41-11.673 0-.916.341-2.29 1.765-2.29 2.052 0 2.821 2.661 3.163 5.895h.541V.143h-.342c-.142.63-.399.916-.769.916-.655 0-.997-1.03-2.564-1.03-2.421 0-4.074 2.031-4.074 4.692 0 4.835 6.41 6.867 6.41 11.33 0 2.032-.94 3.176-2.222 3.176-1.909 0-3.162-2.26-3.504-5.894h-.541v6.524h.342c.284-.944.655-1.03.968-1.03.542 0 1.111 1.145 2.763 1.145 2.536 0 4.473-2.203 4.473-5.237zM79.425 2.031c0-.8.256-1.058.825-1.173l.77-.172V.143h-5.926v.515l.627.172c.57.171.826.4.826 1.201V17.94c0 .802-.256 1.088-.826 1.231l-.627.172v.515h9.316v-6.524h-.542c-.284 3.004-.883 5.837-3.304 5.837h-1.14V2.031zm-18.86 12.504v-.772H56.72l-.114.772h3.96zM44.1 19.915h1.168l2.65-14.078h-.4l2.906 14.077h1.026L54.926 3.32c.37-1.745.57-2.346 1.253-2.518l.541-.143V.143h-4.017v.515l.599.114c.854.172 1.054.687.655 2.804l-2.25 11.13h.341L49.77 2.977c-.228-1.116-.37-2.032.57-2.204l.626-.114V.143h-5.498v.515l.37.086c.57.143.656.486.884 1.574l.883 4.263-.171-2.575-1.966 10.415h.257L43.416 2.976c-.256-1.173-.342-2.06.57-2.232l.427-.086V.143h-5.612v.515l.541.143c.513.143.798.4 1.14 1.974l3.618 17.14zM28.887 9.956l.883.029c1.282.028 1.652.515 1.909 3.634h.541V5.665h-.541c-.313 2.49-.655 3.548-1.88 3.577l-.912.028V.83h1.966c2.193 0 2.678 2.832 2.99 5.837h.542V.143h-9.828v.515l.627.172c.655.171.826.572.826 1.23v15.88c0 .801-.257 1.087-.826 1.23l-.627.172v.515H34.67v-6.524h-.541c-.342 2.976-.712 5.837-3.276 5.837h-1.966V9.957zm-17.92 9.9h5.84v-.515l-.654-.143c-.513-.115-.855-.458-.855-1.26v-7.81H19.6v7.81c0 .802-.342 1.145-.855 1.26l-.655.143v.515h5.84v-.515l-.627-.172c-.57-.143-.826-.458-.826-1.259V2.031c0-.8.257-1.058.826-1.201l.627-.172V.143h-5.84v.515l.655.172c.484.143.855.343.855 1.173v7.353h-4.302V2.003c0-.801.314-1.03.855-1.173l.655-.172V.143h-5.84v.515l.627.172c.57.171.826.4.826 1.201V17.94c0 .802-.256 1.088-.826 1.231l-.627.172v.515zM6.61.83h.627C9.002.83 9.601 3.662 9.8 6.667h.541V.143H0v6.524h.541C.741 3.662 1.34.83 3.105.83h.627v17.11c0 .801-.256 1.087-.826 1.23l-.74.172v.515h6.153v-.515l-.884-.2c-.54-.143-.826-.315-.826-1.203V.83z" fill-rule="nonzero" fill="#120F4D"/></svg>
