<svg width="53" height="24" xmlns="http://www.w3.org/2000/svg"><g fill-rule="nonzero" fill="#623CDC"><path d="M15.863 13.574a3.961 3.961 0 0 0-1.322-.849c-.756-.282-.944-.282-2.927-.282H8.309v8.012h2.927c2.738 0 3.116-.094 4.06-.66.944-.565 1.605-1.885 1.605-3.3 0-1.225-.377-2.261-1.038-2.921m-.661-10.18c-.378-.378-.85-.66-1.322-.755-.661-.188-1.039-.188-2.927-.188H8.309v7.352h3.21c1.322 0 2.36-.188 3.022-.471 1.038-.471 1.7-1.697 1.7-3.205 0-1.131-.378-2.074-1.04-2.734m5.855 16.873c-.378.754-1.039 1.414-1.794 1.886-.85.471-1.7.754-2.644.848H0v-2.45h1.888c.567 0 .945 0 1.228-.095.189-.094.378-.283.472-.471.094-.283.189-.472.189-.754V3.865c0-.283-.095-.472-.189-.754-.283-.472-.661-.66-1.7-.66H0V0h13.408c2.455.094 4.249.566 5.76 1.602 1.416 1.037 2.171 2.451 2.171 4.242 0 1.508-.472 2.734-1.605 3.676-.85.755-1.416 1.037-2.927 1.509 1.605.377 1.983.565 2.927 1.13C21.15 13.01 22 14.8 22 16.874c-.094 1.225-.378 2.357-.944 3.393M23.098 23v-2.512h2.164c.59 0 .886 0 1.18-.097.197-.096.296-.29.394-.483.098-.193.197-.483.197-.773V8.41H23V6.093c3.246 0 4.328-.677 5.115-3.092h3.049v16.136c0 .193.098.482.197.772.196.483.59.58 1.672.58H35V23H23.098zM52.62 19.493C52.24 22.466 50.436 24 47.587 24c-1.615 0-2.945-.48-5.984-1.918-.854-.48-1.424-.575-1.804-.575-.95 0-1.52.575-1.52 1.63v.48H36v-.768c0-1.246.19-2.301.665-3.452.76-1.918 1.994-3.164 4.843-4.507 1.235-.67 2.185-1.054 2.66-1.342.76-.384 1.33-.863 1.899-1.343.665-.67 1.14-1.821 1.14-2.78 0-2.302-1.615-3.74-4.369-3.74-2.28 0-3.609.863-4.084 2.685.475-.48.76-.575 1.14-.575 1.234 0 2.184.958 2.184 2.397 0 1.63-1.044 2.685-2.564 2.685-1.9 0-3.23-1.439-3.23-3.644 0-1.63.76-3.26 2.09-4.315C39.8 3.575 41.508 3 44.073 3c4.748 0 7.882 2.685 7.882 6.616 0 3.26-1.804 5.083-6.173 6.33-4.084 1.15-4.464 1.246-5.888 2.396-.665.576-.95.96-1.235 2.014 1.045-.863 1.71-1.15 3.134-1.15.38 0 .855 0 1.235.095l2.85.48c.664.096 1.234.192 1.804.192 2.184 0 3.134-.96 3.229-3.548H53c-.19 1.534-.19 2.013-.38 3.068"/></g></svg>
