<svg width="40" height="19" fill="none" xmlns="http://www.w3.org/2000/svg"><g clip-path="url(#a)"><path d="M11.972 10.245a2.99 2.99 0 0 0-.998-.641c-.57-.213-.712-.213-2.209-.213H6.271v6.047H8.48c2.066 0 2.352-.071 3.064-.498.713-.427 1.211-1.423 1.211-2.49 0-.925-.284-1.707-.783-2.205m-.499-7.683c-.285-.286-.641-.499-.998-.57-.498-.142-.784-.142-2.209-.142H6.271v5.548h2.423c.997 0 1.78-.141 2.28-.355.784-.355 1.283-1.28 1.283-2.419 0-.853-.285-1.565-.784-2.063m4.418 12.734c-.285.57-.784 1.067-1.354 1.423a5.059 5.059 0 0 1-1.995.64H0V15.51h1.425c.428 0 .713 0 .927-.071a.856.856 0 0 0 .356-.356c.07-.213.143-.356.143-.569V2.917c0-.214-.072-.356-.143-.57-.214-.355-.499-.497-1.283-.497H0V0h10.12c1.852.07 3.206.427 4.346 1.21 1.07.782 1.639 1.849 1.639 3.2 0 1.139-.356 2.064-1.211 2.775-.642.57-1.07.783-2.21 1.139 1.212.284 1.497.426 2.21.853 1.068.642 1.71 1.993 1.71 3.558-.071.925-.285 1.779-.713 2.56m1.542 2.063v-1.895h1.633c.445 0 .668 0 .89-.074.149-.072.224-.218.298-.364.073-.146.148-.365.148-.584V6.348h-3.044V4.598c2.45 0 3.267-.51 3.86-2.333h2.302v12.178c0 .146.074.364.149.583.148.364.445.437 1.262.437h1.484v1.896h-8.982Zm22.28-2.646c-.287 2.244-1.648 3.401-3.798 3.401-1.22 0-2.223-.362-4.517-1.447-.644-.363-1.074-.434-1.361-.434-.717 0-1.147.434-1.147 1.23v.362h-1.72v-.58c0-.94.143-1.736.502-2.605.573-1.447 1.505-2.388 3.655-3.401.932-.506 1.649-.796 2.007-1.013.574-.29 1.004-.651 1.433-1.014.502-.505.86-1.374.86-2.098 0-1.737-1.218-2.822-3.296-2.822-1.721 0-2.724.65-3.083 2.026.359-.362.574-.434.86-.434.932 0 1.649.723 1.649 1.81 0 1.23-.788 2.025-1.935 2.025-1.434 0-2.438-1.086-2.438-2.75a4.2 4.2 0 0 1 1.578-3.256c1.076-1.014 2.365-1.448 4.3-1.448 3.584 0 5.95 2.027 5.95 4.993 0 2.46-1.362 3.837-4.66 4.778-3.082.868-3.369.94-4.443 1.808-.502.435-.717.725-.932 1.52.788-.651 1.29-.868 2.365-.868.287 0 .645 0 .932.072l2.15.362c.502.072.932.145 1.362.145 1.649 0 2.366-.725 2.437-2.678H40c-.143 1.158-.143 1.52-.287 2.316Z" fill="#A19DA8"/></g><defs><clipPath id="a"><path fill="#fff" d="M0 0h40v18.113H0z"/></clipPath></defs></svg>
