<svg width="74" height="74" xmlns="http://www.w3.org/2000/svg" xmlns:xlink="http://www.w3.org/1999/xlink"><defs><filter x="-5%" y="-3.6%" width="110%" height="110%" filterUnits="objectBoundingBox" id="a"><feOffset dy="1" in="SourceAlpha" result="shadowOffsetOuter1"/><feGaussianBlur stdDeviation="1" in="shadowOffsetOuter1" result="shadowBlurOuter1"/><feComposite in="shadowBlurOuter1" in2="SourceAlpha" operator="out" result="shadowBlurOuter1"/><feColorMatrix values="0 0 0 0 0.0666666667 0 0 0 0 0.0588235294 0 0 0 0 0.2 0 0 0 0.1 0" in="shadowBlurOuter1"/></filter><rect id="b" x="0" y="0" width="70" height="70" rx="5"/></defs><g fill="none" fill-rule="evenodd"><g transform="translate(2 1)"><use fill="#000" filter="url(#a)" xlink:href="#b"/><rect stroke="#D7D7DE" stroke-linejoin="square" fill="#F6F5FF" x=".5" y=".5" width="69" height="69" rx="5"/></g><path d="M42.69 47a4.937 4.937 0 01-4.931-4.931v-4.172a.341.341 0 00-.014-.066 1.138 1.138 0 10-.732 0 .341.341 0 00-.013.066v4.172a4.931 4.931 0 11-9.862 0c.002-.184.014-.367.038-.55.74.602 1.664.93 2.617.93h1.208a1.138 1.138 0 100-.76h-1.208a3.4 3.4 0 01-2.53-1.129.385.385 0 00-.113-.126 3.399 3.399 0 01.285-4.619 5.281 5.281 0 003.148 1.305 2.276 2.276 0 002.245 1.914.38.38 0 000-.758 1.517 1.517 0 01-1.073-2.59.38.38 0 00-.536-.536c-.331.33-.552.753-.631 1.213a4.55 4.55 0 11.78-9.065.374.374 0 00.352-.173.382.382 0 00.063-.129 2.65 2.65 0 015.217.66v.758a2.659 2.659 0 01-2.655 2.655h-1.208a1.138 1.138 0 100 .759h1.208a3.414 3.414 0 003.034-1.857 3.414 3.414 0 003.035 1.857h1.208a1.138 1.138 0 100-.759h-1.208a2.659 2.659 0 01-2.655-2.655v-.759a2.655 2.655 0 015.228-.645.377.377 0 00.404.286 4.55 4.55 0 11.78 9.066c-.08-.46-.3-.884-.63-1.214a.38.38 0 10-.537.536 1.517 1.517 0 01-1.073 2.592.38.38 0 100 .758 2.276 2.276 0 002.244-1.914 5.281 5.281 0 003.149-1.305 3.399 3.399 0 01.285 4.62.385.385 0 00-.114.125 3.4 3.4 0 01-2.53 1.13h-1.207a1.138 1.138 0 100 .758h1.208a4.15 4.15 0 002.617-.928c.023.182.036.365.038.549A4.937 4.937 0 0142.69 47z" fill="#695FF6" fill-rule="nonzero"/></g></svg>