<svg fill="none" xmlns="http://www.w3.org/2000/svg" viewBox="0 0 74 74"><g filter="url(#filter0_d)"><rect x="2" y="1" width="70" height="70" rx="5" fill="#F6F5FF"/><rect x="2.5" y="1.5" width="69" height="69" rx="4.5" stroke="#D7D7DE"/></g><path d="M47 37.25h-4.375l-2.25-4.625c.25-.5.375-1 .375-1.625 0-1.625-1-3-2.5-3.5V26h-2.5v1.5c-1.5.5-2.5 1.875-2.5 3.5 0 .625.125 1.125.375 1.625l-2.25 4.625H27v2.5h3.125L27 46l3.75-1.25 2.5-5h7.5l2.5 5L47 46l-3.125-6.25H47v-2.5zm-12.5 0l1.375-2.75c.375.125.75.25 1.125.25s.75-.125 1.125-.25l1.375 2.75h-5z" fill="#695FF6"/><defs><filter id="filter0_d" x="0" y="0" width="74" height="74" filterUnits="userSpaceOnUse" color-interpolation-filters="sRGB"><feFlood flood-opacity="0" result="BackgroundImageFix"/><feColorMatrix in="SourceAlpha" values="0 0 0 0 0 0 0 0 0 0 0 0 0 0 0 0 0 0 127 0" result="hardAlpha"/><feOffset dy="1"/><feGaussianBlur stdDeviation="1"/><feColorMatrix values="0 0 0 0 0.0666667 0 0 0 0 0.0588235 0 0 0 0 0.2 0 0 0 0.1 0"/><feBlend in2="BackgroundImageFix" result="effect1_dropShadow"/><feBlend in="SourceGraphic" in2="effect1_dropShadow" result="shape"/></filter></defs></svg>
