<svg width="74" height="74" fill="none" xmlns="http://www.w3.org/2000/svg"><g filter="url(#a)"><rect x="2" y="1" width="70" height="70" rx="5" fill="#F6F5FF"/><rect x="2.5" y="1.5" width="69" height="69" rx="4.5" stroke="#D7D7DE"/></g><path fill-rule="evenodd" clip-rule="evenodd" d="M33.25 30v-2.75c0-.75.5-1.25 1.25-1.25h11.25c.75 0 1.25.5 1.25 1.25V38.5c0 .75-.5 1.25-1.25 1.25H43c-.875 3.625-4 6.25-7.875 6.25A8.109 8.109 0 0 1 27 37.875c0-3.75 2.625-7 6.25-7.875Zm-3.75 7.875C29.5 41 32 43.5 35.125 43.5c2.5 0 4.5-1.625 5.25-3.75H34.5c-.75 0-1.25-.5-1.25-1.25v-5.875c-2.125.75-3.75 2.75-3.75 5.25Zm6.25-5.5c2.625.25 4.625 2.375 4.875 4.875H35.75v-4.875Zm8.75 4.875V28.5h-8.75v1.25c4 .375 7.25 3.5 7.5 7.5h1.25Z" fill="#695FF6"/><defs><filter id="a" x="0" y="0" width="74" height="74" filterUnits="userSpaceOnUse" color-interpolation-filters="sRGB"><feFlood flood-opacity="0" result="BackgroundImageFix"/><feColorMatrix in="SourceAlpha" values="0 0 0 0 0 0 0 0 0 0 0 0 0 0 0 0 0 0 127 0" result="hardAlpha"/><feOffset dy="1"/><feGaussianBlur stdDeviation="1"/><feColorMatrix values="0 0 0 0 0.0666667 0 0 0 0 0.0588235 0 0 0 0 0.2 0 0 0 0.1 0"/><feBlend in2="BackgroundImageFix" result="effect1_dropShadow_51_7087"/><feBlend in="SourceGraphic" in2="effect1_dropShadow_51_7087" result="shape"/></filter></defs></svg>
