<svg xmlns="http://www.w3.org/2000/svg" xmlns:xlink="http://www.w3.org/1999/xlink" viewBox="0 0 75 74"><defs><filter x="-5%" y="-3.6%" width="110%" height="110%" filterUnits="objectBoundingBox" id="a"><feOffset dy="1" in="SourceAlpha" result="shadowOffsetOuter1"/><feGaussianBlur stdDeviation="1" in="shadowOffsetOuter1" result="shadowBlurOuter1"/><feComposite in="shadowBlurOuter1" in2="SourceAlpha" operator="out" result="shadowBlurOuter1"/><feColorMatrix values="0 0 0 0 0.0666666667 0 0 0 0 0.0588235294 0 0 0 0 0.2 0 0 0 0.1 0" in="shadowBlurOuter1"/></filter><rect id="b" x="0" y="0" width="70" height="70" rx="5"/></defs><g fill="none" fill-rule="evenodd"><g transform="translate(2.5 1)"><use fill="#000" filter="url(#a)" xlink:href="#b"/><rect stroke="#D7D7DE" stroke-linejoin="square" fill="#F6F5FF" x=".5" y=".5" width="69" height="69" rx="5"/></g><g fill="#695FF6"><path d="M44.929 47H26.07c-1.257 0-2.042-1.414-1.257-2.514l4.4-5.815v-8.957c0-2.671 2.043-4.714 4.715-4.714h11c2.671 0 4.714 2.043 4.714 4.714v12.572c0 2.671-2.043 4.714-4.714 4.714zm-15.715-3.143H44.93c.942 0 1.571-.628 1.571-1.571V29.714c0-.943-.629-1.571-1.571-1.571h-11c-.943 0-1.572.628-1.572 1.571v9.429c0 .314-.157.628-.314.943l-2.829 3.771z" fill-rule="nonzero"/><path d="M35.5 31.286h7.857v3.143H35.5zM35.5 37.571h7.857v3.143H35.5z"/></g></g></svg>