<svg fill="none" xmlns="http://www.w3.org/2000/svg" viewBox="0 0 17 16"><path fill-rule="evenodd" clip-rule="evenodd" d="M3.906 4.726c-.733 1.219-1.14 2.774-.792 4.495a1 1 0 1 1-1.96.397c-.462-2.279.085-4.339 1.038-5.923C3.131 2.135 4.51.964 5.831.497 6.488.264 7.243.17 7.936.434c.75.286 1.238.918 1.426 1.73.177.766.095 1.698-.199 2.76-.238.863-.629 1.861-1.196 3.006a7.32 7.32 0 0 0 .553-.385 9.251 9.251 0 0 1 1.358-.88c.378-.194.88-.403 1.367-.38.275.012.665.107.955.454.283.338.316.73.294 1-.041.497-.307 1.046-.639 1.59-.113.185-.208.348-.287.489.139-.028.298-.064.479-.11.818-.211 1.98-.601 3.594-1.222a1 1 0 0 1 .718 1.867c-1.637.63-2.884 1.052-3.814 1.291-.465.12-.875.2-1.23.233-.338.032-.711.03-1.054-.086-.392-.132-.753-.42-.908-.89-.13-.396-.062-.776.01-1.028.06-.21.151-.431.26-.655-.406.302-.83.565-1.234.77-.425.215-.896.397-1.334.45a1.744 1.744 0 0 1-.803-.075 1.299 1.299 0 0 1-.784-.766 1.598 1.598 0 0 1-.037-.942 3.34 3.34 0 0 1 .318-.79c.774-1.437 1.241-2.584 1.486-3.473.25-.902.25-1.466.178-1.778-.06-.262-.152-.297-.187-.31h-.002c-.09-.035-.323-.064-.727.078-.801.284-1.843 1.101-2.59 2.344Zm7.371 5.736.002-.01a.042.042 0 0 1-.002.01ZM6.794 8.454H6.8h-.006Zm.581.672ZM1 15a1 1 0 0 1 1-1h14a1 1 0 1 1 0 2H2a1 1 0 0 1-1-1Z" fill="#623cdc"/></svg>
