<svg width="74" height="74" fill="none" xmlns="http://www.w3.org/2000/svg"><g filter="url(#a)"><rect x="2" y="1" width="70" height="70" rx="5" fill="#F6F5FF"/><rect x="2.5" y="1.5" width="69" height="69" rx="4.5" stroke="#D7D7DE"/></g><path fill-rule="evenodd" clip-rule="evenodd" d="M32 46h-3.75c-.75 0-1.25-.5-1.25-1.25V41c0-.375.125-.625.375-.875l13.75-13.75c.5-.5 1.25-.5 1.75 0l3.75 3.75c.5.5.5 1.25 0 1.75l-13.75 13.75c-.25.25-.5.375-.875.375Zm10-17L29.5 41.5v2h2L44 31l-2-2Z" fill="#695FF6"/><defs><filter id="a" x="0" y="0" width="74" height="74" filterUnits="userSpaceOnUse" color-interpolation-filters="sRGB"><feFlood flood-opacity="0" result="BackgroundImageFix"/><feColorMatrix in="SourceAlpha" values="0 0 0 0 0 0 0 0 0 0 0 0 0 0 0 0 0 0 127 0" result="hardAlpha"/><feOffset dy="1"/><feGaussianBlur stdDeviation="1"/><feColorMatrix values="0 0 0 0 0.0666667 0 0 0 0 0.0588235 0 0 0 0 0.2 0 0 0 0.1 0"/><feBlend in2="BackgroundImageFix" result="effect1_dropShadow_201_5952"/><feBlend in="SourceGraphic" in2="effect1_dropShadow_201_5952" result="shape"/></filter></defs></svg>
