<svg width="75" height="74" xmlns="http://www.w3.org/2000/svg" xmlns:xlink="http://www.w3.org/1999/xlink"><defs><filter x="-5%" y="-3.6%" width="110%" height="110%" filterUnits="objectBoundingBox" id="a"><feOffset dy="1" in="SourceAlpha" result="shadowOffsetOuter1"/><feGaussianBlur stdDeviation="1" in="shadowOffsetOuter1" result="shadowBlurOuter1"/><feComposite in="shadowBlurOuter1" in2="SourceAlpha" operator="out" result="shadowBlurOuter1"/><feColorMatrix values="0 0 0 0 0.0666666667 0 0 0 0 0.0588235294 0 0 0 0 0.2 0 0 0 0.1 0" in="shadowBlurOuter1"/></filter><rect id="b" x="0" y="0" width="70" height="70" rx="5"/></defs><g fill="none" fill-rule="evenodd"><g transform="translate(2.5 1)"><use fill="#000" filter="url(#a)" xlink:href="#b"/><rect stroke="#D7D7DE" stroke-linejoin="square" fill="#F6F5FF" x=".5" y=".5" width="69" height="69" rx="5"/></g><path d="M42.625 33.25a4.13 4.13 0 004.125-4.125A4.13 4.13 0 0042.625 25a4.13 4.13 0 00-4.125 4.125c0 .308.04.605.103.894l-4.426 2.765a4.087 4.087 0 00-2.552-.909A4.13 4.13 0 0027.5 36a4.13 4.13 0 004.125 4.125c.968 0 1.848-.35 2.552-.909l4.426 2.767a4.137 4.137 0 00-.103.892A4.13 4.13 0 0042.625 47a4.13 4.13 0 004.125-4.125 4.13 4.13 0 00-4.125-4.125 4.09 4.09 0 00-2.552.909l-4.426-2.767c.063-.287.103-.585.103-.892 0-.308-.04-.605-.103-.892l4.427-2.767c.704.56 1.583.909 2.551.909zm0-5.5c.758 0 1.375.616 1.375 1.375s-.617 1.375-1.375 1.375a1.376 1.376 0 01-1.375-1.375c0-.759.617-1.375 1.375-1.375zm-11 9.625A1.376 1.376 0 0130.25 36c0-.759.617-1.375 1.375-1.375S33 35.241 33 36s-.617 1.375-1.375 1.375zm11 4.125c.758 0 1.375.616 1.375 1.375s-.617 1.375-1.375 1.375a1.376 1.376 0 01-1.375-1.375c0-.759.617-1.375 1.375-1.375z" fill="#695FF6" fill-rule="nonzero"/></g></svg>
