<svg fill="none" xmlns="http://www.w3.org/2000/svg" viewBox="0 0 74 74"><g filter="url(#filter0_d)"><rect x="2" y="1" width="70" height="70" rx="5" fill="#F6F5FF"/><rect x="2.5" y="1.5" width="69" height="69" rx="4.5" stroke="#D7D7DE"/></g><path d="M43.462 25.413a1.33 1.33 0 00-1.925 0 1.33 1.33 0 000 1.924l1.1 1.1-1.237 1.238a9.414 9.414 0 00-5.775-1.925A9.566 9.566 0 0026 37.375 9.566 9.566 0 0035.625 47a9.566 9.566 0 009.625-9.625c0-2.2-.688-4.125-1.925-5.775l1.237-1.238 1.1 1.1c.276.276.55.413.963.413.413 0 .688-.137.962-.413a1.33 1.33 0 000-1.924l-4.125-4.125zM35.626 44.25c-3.85 0-6.875-3.025-6.875-6.875s3.025-6.875 6.875-6.875 6.875 3.025 6.875 6.875-3.025 6.875-6.875 6.875z" fill="#695FF6"/><path d="M37 33.25h-2.75v5.5h5.5V36H37v-2.75z" fill="#695FF6"/><defs><filter id="filter0_d" x="0" y="0" width="74" height="74" filterUnits="userSpaceOnUse" color-interpolation-filters="sRGB"><feFlood flood-opacity="0" result="BackgroundImageFix"/><feColorMatrix in="SourceAlpha" values="0 0 0 0 0 0 0 0 0 0 0 0 0 0 0 0 0 0 127 0"/><feOffset dy="1"/><feGaussianBlur stdDeviation="1"/><feColorMatrix values="0 0 0 0 0.0666667 0 0 0 0 0.0588235 0 0 0 0 0.2 0 0 0 0.1 0"/><feBlend in2="BackgroundImageFix" result="effect1_dropShadow"/><feBlend in="SourceGraphic" in2="effect1_dropShadow" result="shape"/></filter></defs></svg>