<svg width="64" height="64" fill="none" xmlns="http://www.w3.org/2000/svg"><path d="M0 6a6 6 0 0 1 6-6h52a6 6 0 0 1 6 6v52a6 6 0 0 1-6 6H6a6 6 0 0 1-6-6V6Z" fill="#F6F5FE"/><path fill-rule="evenodd" clip-rule="evenodd" d="M38.25 24.5h2.5c.691 0 1.25.559 1.25 1.25v15c0 .691-.559 1.25-1.25 1.25h-17.5c-.691 0-1.25-.559-1.25-1.25v-15c0-.691.559-1.25 1.25-1.25h2.5V22h2.5v2.5h2.5V22h2.5v2.5h2.5V22h2.5v2.5Zm-13.75 15h15v-10h-15v10Z" fill="#695FF6"/><path d="M6 1h52v-2H6v2Zm57 5v52h2V6h-2Zm-5 57H6v2h52v-2ZM1 58V6h-2v52h2Zm5 5a5 5 0 0 1-5-5h-2a7 7 0 0 0 7 7v-2Zm57-5a5 5 0 0 1-5 5v2a7 7 0 0 0 7-7h-2ZM58 1a5 5 0 0 1 5 5h2a7 7 0 0 0-7-7v2ZM6-1a7 7 0 0 0-7 7h2a5 5 0 0 1 5-5v-2Z" fill="#D7D7DE"/></svg>
