<svg width="75" height="74" xmlns="http://www.w3.org/2000/svg" xmlns:xlink="http://www.w3.org/1999/xlink"><defs><filter x="-5%" y="-3.6%" width="110%" height="110%" filterUnits="objectBoundingBox" id="a"><feOffset dy="1" in="SourceAlpha" result="shadowOffsetOuter1"/><feGaussianBlur stdDeviation="1" in="shadowOffsetOuter1" result="shadowBlurOuter1"/><feComposite in="shadowBlurOuter1" in2="SourceAlpha" operator="out" result="shadowBlurOuter1"/><feColorMatrix values="0 0 0 0 0.0666666667 0 0 0 0 0.0588235294 0 0 0 0 0.2 0 0 0 0.1 0" in="shadowBlurOuter1"/></filter><rect id="b" x="0" y="0" width="70" height="70" rx="5"/></defs><g fill="none" fill-rule="evenodd"><g transform="translate(2.5 1)"><use fill="#000" filter="url(#a)" xlink:href="#b"/><rect stroke="#D7D7DE" stroke-linejoin="square" fill="#F6F5FF" x=".5" y=".5" width="69" height="69" rx="5"/></g><g fill="#695FF6" fill-rule="nonzero"><path d="M44.127 42.106l-2.054-2.053 3.374-3.373-3.374-3.374 2.054-2.053 4.4 4.4c.586.587.586 1.467 0 2.053l-4.4 4.4zM30.34 42.106l-4.4-4.4c-.587-.586-.587-1.466 0-2.053l4.4-4.4 2.053 2.053-3.373 3.374 3.373 3.373-2.053 2.053zM34.3 46.946c-.147 0-.293 0-.44-.146-.733-.294-1.173-1.027-.88-1.907l5.867-17.6c.293-.733 1.026-1.173 1.906-.88.734.293 1.174 1.027.88 1.907l-5.866 17.6c-.294.586-.88 1.026-1.467 1.026z"/></g></g></svg>
