<svg fill="none" xmlns="http://www.w3.org/2000/svg" viewBox="0 0 74 74"><g filter="url(#filter0_d)"><rect x="2" y="1" width="70" height="70" rx="5" fill="#F6F5FF"/><rect x="2.5" y="1.5" width="69" height="69" rx="4.5" stroke="#D7D7DE"/></g><path d="M37 34c2.9 0 6-.9 6-3s-3.1-3-6-3-6 .9-6 3 3.1 3 6 3zM31 34.5V36c0 2.1 3.1 3 6 3s6-.9 6-3v-1.5c-1.4.9-3.5 1.5-6 1.5s-4.6-.6-6-1.5zM31 39.5V41c0 2.1 3.1 3 6 3s6-.9 6-3v-1.5c-1.4 1-3.5 1.5-6 1.5s-4.6-.6-6-1.5z" fill="#695FF6"/><defs><filter id="filter0_d" x="0" y="0" width="74" height="74" filterUnits="userSpaceOnUse" color-interpolation-filters="sRGB"><feFlood flood-opacity="0" result="BackgroundImageFix"/><feColorMatrix in="SourceAlpha" values="0 0 0 0 0 0 0 0 0 0 0 0 0 0 0 0 0 0 127 0" result="hardAlpha"/><feOffset dy="1"/><feGaussianBlur stdDeviation="1"/><feColorMatrix values="0 0 0 0 0.0666667 0 0 0 0 0.0588235 0 0 0 0 0.2 0 0 0 0.1 0"/><feBlend in2="BackgroundImageFix" result="effect1_dropShadow"/><feBlend in="SourceGraphic" in2="effect1_dropShadow" result="shape"/></filter></defs></svg>
