<svg xmlns="http://www.w3.org/2000/svg" xmlns:xlink="http://www.w3.org/1999/xlink" viewBox="0 0 75 74"><defs><filter x="-5%" y="-3.6%" width="110%" height="110%" filterUnits="objectBoundingBox" id="a"><feOffset dy="1" in="SourceAlpha" result="shadowOffsetOuter1"/><feGaussianBlur stdDeviation="1" in="shadowOffsetOuter1" result="shadowBlurOuter1"/><feComposite in="shadowBlurOuter1" in2="SourceAlpha" operator="out" result="shadowBlurOuter1"/><feColorMatrix values="0 0 0 0 0.0666666667 0 0 0 0 0.0588235294 0 0 0 0 0.2 0 0 0 0.1 0" in="shadowBlurOuter1"/></filter><rect id="b" x="0" y="0" width="70" height="70" rx="5"/></defs><g fill="none" fill-rule="evenodd"><g transform="translate(2.5 1)"><use fill="#000" filter="url(#a)" xlink:href="#b"/><rect stroke="#D7D7DE" stroke-linejoin="square" fill="#F6F5FF" x=".5" y=".5" width="69" height="69" rx="5"/></g><path d="M44.876 31.73l-3.105-3.106 3.105-3.106c-.647-.389-1.423-.518-2.2-.518a5.8 5.8 0 00-5.823 5.824c0 .647.13 1.164.259 1.811l-8.541 6.341c-1.036.777-1.036 2.2-.26 3.106l2.977 3.106c.906.906 2.33.777 3.106-.259l6.341-8.54c.647.129 1.294.258 1.941.258a5.8 5.8 0 005.824-5.823c0-.777-.13-1.553-.388-2.2l-3.236 3.105z" fill="#695FF6" fill-rule="nonzero"/></g></svg>