<svg width="75" height="74" xmlns="http://www.w3.org/2000/svg" xmlns:xlink="http://www.w3.org/1999/xlink"><defs><filter x="-5%" y="-3.6%" width="110%" height="110%" filterUnits="objectBoundingBox" id="a"><feOffset dy="1" in="SourceAlpha" result="shadowOffsetOuter1"/><feGaussianBlur stdDeviation="1" in="shadowOffsetOuter1" result="shadowBlurOuter1"/><feComposite in="shadowBlurOuter1" in2="SourceAlpha" operator="out" result="shadowBlurOuter1"/><feColorMatrix values="0 0 0 0 0.0666666667 0 0 0 0 0.0588235294 0 0 0 0 0.2 0 0 0 0.1 0" in="shadowBlurOuter1"/></filter><rect id="b" x="0" y="0" width="70" height="70" rx="5"/></defs><g fill="none" fill-rule="evenodd"><g transform="translate(2.5 1)"><use fill="#000" filter="url(#a)" xlink:href="#b"/><rect stroke="#D7D7DE" stroke-linejoin="square" fill="#F6F5FF" x=".5" y=".5" width="69" height="69" rx="5"/></g><g transform="translate(25 28)" fill="#695FF6" fill-rule="nonzero"><path d="M14.4 14.138c0-.967-.424-1.887-1.18-2.487C12.061 10.733 10.055 9.6 7.2 9.6c-2.856 0-4.862 1.133-6.02 2.051-.756.6-1.18 1.52-1.18 2.487V16h14.4v-1.862z"/><circle cx="7.2" cy="4" r="4"/><circle cx="18.4" cy="4" r="4"/><path d="M24.42 11.651C23.261 10.733 21.255 9.6 18.4 9.6c-.898 0-1.7.12-2.43.302a6.326 6.326 0 011.63 4.236V16h8v-1.862c0-.967-.424-1.887-1.18-2.487z"/></g></g></svg>
