<svg fill="none" xmlns="http://www.w3.org/2000/svg" viewBox="0 0 74 74"><g filter="url(#filter0_d)"><rect x="2" y="1" width="70" height="70" rx="5" fill="#F6F5FF"/><rect x="2.5" y="1.5" width="69" height="69" rx="4.5" stroke="#D7D7DE"/></g><path d="M43.857 44.572H31V46h12.857v-1.428zM48.737 34.89l-4.286-6.43a.715.715 0 00-.594-.317h-5.714v-1.429a.714.714 0 10-1.429 0v1.429H31a.715.715 0 00-.594.318l-4.286 6.428a.718.718 0 00-.12.397c0 2.061 1.911 4.285 5 4.285s5-2.224 5-4.285c0-.141-.042-.28-.12-.397l-3.545-5.318h4.38v13.572h1.428V29.57h4.38l-3.546 5.318a.719.719 0 00-.12.397c0 2.061 1.912 4.285 5 4.285 3.089 0 5-2.224 5-4.285 0-.141-.042-.28-.12-.397zm-14.786-.319h-5.902L31 30.145l2.95 4.426zm6.955 0l2.951-4.426 2.95 4.426h-5.9z" fill="#695FF6"/><defs><filter id="filter0_d" x="0" y="0" width="74" height="74" filterUnits="userSpaceOnUse" color-interpolation-filters="sRGB"><feFlood flood-opacity="0" result="BackgroundImageFix"/><feColorMatrix in="SourceAlpha" values="0 0 0 0 0 0 0 0 0 0 0 0 0 0 0 0 0 0 127 0" result="hardAlpha"/><feOffset dy="1"/><feGaussianBlur stdDeviation="1"/><feColorMatrix values="0 0 0 0 0.0666667 0 0 0 0 0.0588235 0 0 0 0 0.2 0 0 0 0.1 0"/><feBlend in2="BackgroundImageFix" result="effect1_dropShadow"/><feBlend in="SourceGraphic" in2="effect1_dropShadow" result="shape"/></filter></defs></svg>
