<svg width="74" height="74" fill="none" xmlns="http://www.w3.org/2000/svg"><g filter="url(#a)"><rect x="2" y="1" width="70" height="70" rx="5" fill="#F6F5FF"/><rect x="2.5" y="1.5" width="69" height="69" rx="4.5" stroke="#D7D7DE"/></g><path d="m34.875 40.625-2.5-2.5c-.5-.5-.5-1.25 0-1.75s1.25-.5 1.75 0L35.75 38l4.125-4.125c.5-.5 1.25-.5 1.75 0s.5 1.25 0 1.75l-5 5c-.5.5-1.125.625-1.75 0Z" fill="#695FF6"/><path d="M45.75 27.25H42v2.5h2.5V43.5h-15V29.75H32v-2.5h-3.75c-.75 0-1.25.5-1.25 1.25v16.25c0 .75.5 1.25 1.25 1.25h17.5c.75 0 1.25-.5 1.25-1.25V28.5c0-.75-.5-1.25-1.25-1.25Z" fill="#695FF6"/><path d="M33.25 26h7.5v5h-7.5v-5Z" fill="#695FF6"/><defs><filter id="a" x="0" y="0" width="74" height="74" filterUnits="userSpaceOnUse" color-interpolation-filters="sRGB"><feFlood flood-opacity="0" result="BackgroundImageFix"/><feColorMatrix in="SourceAlpha" values="0 0 0 0 0 0 0 0 0 0 0 0 0 0 0 0 0 0 127 0" result="hardAlpha"/><feOffset dy="1"/><feGaussianBlur stdDeviation="1"/><feColorMatrix values="0 0 0 0 0.0666667 0 0 0 0 0.0588235 0 0 0 0 0.2 0 0 0 0.1 0"/><feBlend in2="BackgroundImageFix" result="effect1_dropShadow_201_5938"/><feBlend in="SourceGraphic" in2="effect1_dropShadow_201_5938" result="shape"/></filter></defs></svg>
