<svg fill="none" xmlns="http://www.w3.org/2000/svg" viewBox="0 0 74 74"><g filter="url(#filter0_d)"><rect x="2" y="1" width="70" height="70" rx="5" fill="#F6F5FF"/><rect x="2.5" y="1.5" width="69" height="69" rx="4.5" stroke="#D7D7DE"/></g><path d="M45.75 43.5h-17.5a1.25 1.25 0 100 2.5h17.5a1.25 1.25 0 100-2.5z" fill="#695FF6"/><path fill-rule="evenodd" clip-rule="evenodd" d="M40.229 31.625a8.759 8.759 0 015.521 8.125V41h-17.5v-1.25a8.759 8.759 0 015.521-8.125 3.711 3.711 0 01-.521-1.875 3.75 3.75 0 117.5 0 3.711 3.711 0 01-.521 1.875zM37 28.5a1.25 1.25 0 100 2.5 1.25 1.25 0 000-2.5z" fill="#695FF6"/><defs><filter id="filter0_d" x="0" y="0" width="74" height="74" filterUnits="userSpaceOnUse" color-interpolation-filters="sRGB"><feFlood flood-opacity="0" result="BackgroundImageFix"/><feColorMatrix in="SourceAlpha" values="0 0 0 0 0 0 0 0 0 0 0 0 0 0 0 0 0 0 127 0" result="hardAlpha"/><feOffset dy="1"/><feGaussianBlur stdDeviation="1"/><feColorMatrix values="0 0 0 0 0.0666667 0 0 0 0 0.0588235 0 0 0 0 0.2 0 0 0 0.1 0"/><feBlend in2="BackgroundImageFix" result="effect1_dropShadow"/><feBlend in="SourceGraphic" in2="effect1_dropShadow" result="shape"/></filter></defs></svg>
