<svg xmlns="http://www.w3.org/2000/svg" xmlns:xlink="http://www.w3.org/1999/xlink" viewBox="0 0 75 74"><defs><filter x="-5%" y="-3.6%" width="110%" height="110%" filterUnits="objectBoundingBox" id="a"><feOffset dy="1" in="SourceAlpha" result="shadowOffsetOuter1"/><feGaussianBlur stdDeviation="1" in="shadowOffsetOuter1" result="shadowBlurOuter1"/><feComposite in="shadowBlurOuter1" in2="SourceAlpha" operator="out" result="shadowBlurOuter1"/><feColorMatrix values="0 0 0 0 0.0666666667 0 0 0 0 0.0588235294 0 0 0 0 0.2 0 0 0 0.1 0" in="shadowBlurOuter1"/></filter><rect id="b" x="0" y="0" width="70" height="70" rx="5"/></defs><g fill="none" fill-rule="evenodd"><g transform="translate(2.5 1)"><use fill="#000" filter="url(#a)" xlink:href="#b"/><rect stroke="#D7D7DE" stroke-linejoin="square" fill="#F6F5FF" x=".5" y=".5" width="69" height="69" rx="5"/></g><g fill="#695FF6" fill-rule="nonzero"><path d="M48.115 25.389a.917.917 0 00-.698-.27c-12.859.671-17.609 12.126-17.655 12.241a.917.917 0 00.202.99l5.186 5.186c.26.26.653.34.994.2.115-.047 11.508-4.85 12.236-17.649a.917.917 0 00-.265-.698zm-7.486 10.074a1.833 1.833 0 11-2.593-2.592 1.833 1.833 0 012.593 2.592zM27.52 42.274a2.607 2.607 0 113.687 3.686C30.19 46.98 26.5 47 26.5 47s0-3.709 1.02-4.726zM35.994 27.146a8.168 8.168 0 00-7.182 2.277 8.327 8.327 0 00-1.269 1.65.917.917 0 00.142 1.114l1.824 1.824a24.404 24.404 0 016.485-6.865zM46.354 37.506a8.168 8.168 0 01-2.277 7.182c-.495.49-1.049.917-1.65 1.269a.917.917 0 01-1.114-.142l-1.824-1.823a24.404 24.404 0 006.865-6.486z"/></g></g></svg>