<svg xmlns="http://www.w3.org/2000/svg" xmlns:xlink="http://www.w3.org/1999/xlink" viewBox="0 0 75 74"><defs><filter x="-5%" y="-3.6%" width="110%" height="110%" filterUnits="objectBoundingBox" id="a"><feOffset dy="1" in="SourceAlpha" result="shadowOffsetOuter1"/><feGaussianBlur stdDeviation="1" in="shadowOffsetOuter1" result="shadowBlurOuter1"/><feComposite in="shadowBlurOuter1" in2="SourceAlpha" operator="out" result="shadowBlurOuter1"/><feColorMatrix values="0 0 0 0 0.0666666667 0 0 0 0 0.0588235294 0 0 0 0 0.2 0 0 0 0.1 0" in="shadowBlurOuter1"/></filter><rect id="b" x="0" y="0" width="70" height="70" rx="5"/></defs><g fill="none" fill-rule="evenodd"><g transform="translate(2.5 1)"><use fill="#000" filter="url(#a)" xlink:href="#b"/><rect stroke="#D7D7DE" stroke-linejoin="square" fill="#F6F5FF" x=".5" y=".5" width="69" height="69" rx="5"/></g><g fill="#695FF6" fill-rule="nonzero"><path d="M29.525 32.7l4.675-4.675-2.613-2.612a1.33 1.33 0 00-1.924 0l-2.75 2.75a1.33 1.33 0 000 1.925l2.612 2.612zM45.475 39.3L40.8 43.975l2.613 2.612c.274.275.55.413.962.413H48.5v-4.125c0-.413-.138-.688-.413-.963L45.475 39.3zM48.087 30.913l-5.5-5.5a1.33 1.33 0 00-1.925 0L38.876 27.2l2.338 2.338-1.926 1.925-2.337-2.338-2.2 2.2 2.338 2.337-1.926 1.926-2.337-2.338-2.2 2.2 2.337 2.338-1.925 1.925-2.337-2.338-1.788 1.788a1.33 1.33 0 000 1.925l5.5 5.5c.55.55 1.375.55 1.925 0l13.75-13.75a1.33 1.33 0 000-1.925z"/></g></g></svg>