<svg width="74" height="74" fill="none" xmlns="http://www.w3.org/2000/svg"><g filter="url(#a)"><rect x="2" y="1" width="70" height="70" rx="5" fill="#F6F5FF"/><rect x="2.5" y="1.5" width="69" height="69" rx="4.5" stroke="#D7D7DE"/></g><path fill-rule="evenodd" clip-rule="evenodd" d="M36.75 26c-2.75 0-5 2.25-5 5v1.25h-2.5c-.75 0-1.25.5-1.25 1.25v11.25c0 .75.5 1.25 1.25 1.25h15c.75 0 1.25-.5 1.25-1.25V33.5c0-.75-.5-1.25-1.25-1.25h-2.5V31c0-2.75-2.25-5-5-5ZM38 40.625v1.625h-2.5v-1.625c-.75-.375-1.25-1.25-1.25-2.125 0-1.375 1.125-2.5 2.5-2.5s2.5 1.125 2.5 2.5c0 .875-.5 1.75-1.25 2.125ZM34.25 31v1.25h5V31c0-1.375-1.125-2.5-2.5-2.5a2.507 2.507 0 0 0-2.5 2.5Z" fill="#695FF6"/><defs><filter id="a" x="0" y="0" width="74" height="74" filterUnits="userSpaceOnUse" color-interpolation-filters="sRGB"><feFlood flood-opacity="0" result="BackgroundImageFix"/><feColorMatrix in="SourceAlpha" values="0 0 0 0 0 0 0 0 0 0 0 0 0 0 0 0 0 0 127 0" result="hardAlpha"/><feOffset dy="1"/><feGaussianBlur stdDeviation="1"/><feColorMatrix values="0 0 0 0 0.0666667 0 0 0 0 0.0588235 0 0 0 0 0.2 0 0 0 0.1 0"/><feBlend in2="BackgroundImageFix" result="effect1_dropShadow_51_7142"/><feBlend in="SourceGraphic" in2="effect1_dropShadow_51_7142" result="shape"/></filter></defs></svg>
