<svg width="75" height="74" xmlns="http://www.w3.org/2000/svg" xmlns:xlink="http://www.w3.org/1999/xlink"><defs><filter x="-5%" y="-3.6%" width="110%" height="110%" filterUnits="objectBoundingBox" id="a"><feOffset dy="1" in="SourceAlpha" result="shadowOffsetOuter1"/><feGaussianBlur stdDeviation="1" in="shadowOffsetOuter1" result="shadowBlurOuter1"/><feComposite in="shadowBlurOuter1" in2="SourceAlpha" operator="out" result="shadowBlurOuter1"/><feColorMatrix values="0 0 0 0 0.0666666667 0 0 0 0 0.0588235294 0 0 0 0 0.2 0 0 0 0.1 0" in="shadowBlurOuter1"/></filter><rect id="b" x="0" y="0" width="70" height="70" rx="5"/></defs><g fill="none" fill-rule="evenodd"><g transform="translate(2.5 1)"><use fill="#000" filter="url(#a)" xlink:href="#b"/><rect stroke="#D7D7DE" stroke-linejoin="square" fill="#F6F5FF" x=".5" y=".5" width="69" height="69" rx="5"/></g><path d="M37.25 24.946c-6.05 0-11 4.95-11 11s4.95 11 11 11 11-4.95 11-11-4.95-11-11-11zm8.113 9.625H42.75a22.778 22.778 0 00-1.1-5.637c1.925 1.237 3.3 3.3 3.713 5.637zm-8.113 9.625c-.825 0-2.475-2.612-2.75-6.875H40c-.275 4.263-1.925 6.875-2.75 6.875zm-2.75-9.625c.275-4.262 1.787-6.875 2.75-6.875.963 0 2.475 2.613 2.75 6.875h-5.5zm-1.513-5.637c-.687 1.65-1.1 3.575-1.237 5.637h-2.613c.413-2.337 1.788-4.4 3.85-5.637zm-3.85 8.387h2.613c.137 2.063.55 3.988 1.1 5.638-1.925-1.238-3.3-3.3-3.713-5.638zm12.375 5.638c.688-1.65.963-3.575 1.1-5.638h2.613c-.275 2.338-1.65 4.4-3.713 5.638z" fill="#695FF6" fill-rule="nonzero"/></g></svg>
