<svg xmlns="http://www.w3.org/2000/svg" xmlns:xlink="http://www.w3.org/1999/xlink" viewBox="0 0 75 74"><defs><filter x="-5%" y="-3.6%" width="110%" height="110%" filterUnits="objectBoundingBox" id="a"><feOffset dy="1" in="SourceAlpha" result="shadowOffsetOuter1"/><feGaussianBlur stdDeviation="1" in="shadowOffsetOuter1" result="shadowBlurOuter1"/><feComposite in="shadowBlurOuter1" in2="SourceAlpha" operator="out" result="shadowBlurOuter1"/><feColorMatrix values="0 0 0 0 0.0666666667 0 0 0 0 0.0588235294 0 0 0 0 0.2 0 0 0 0.1 0" in="shadowBlurOuter1"/></filter><rect id="b" x="0" y="0" width="70" height="70" rx="5"/></defs><g fill="none" fill-rule="evenodd"><g transform="translate(2.5 1)"><use fill="#000" filter="url(#a)" xlink:href="#b"/><rect stroke="#D7D7DE" stroke-linejoin="square" fill="#F6F5FF" x=".5" y=".5" width="69" height="69" rx="5"/></g><g fill="#695FF6" fill-rule="nonzero"><path d="M30.786 43.857H26.07a1.572 1.572 0 010-3.143h4.715v3.143zM48.071 28.143h-22a1.572 1.572 0 010-3.143h22a1.572 1.572 0 010 3.143zM30.786 36H26.07a1.572 1.572 0 010-3.143h4.715V36zM49.182 44.318l-3.573-3.574c.553-.935.891-2.01.891-3.173a6.292 6.292 0 00-6.286-6.285 6.292 6.292 0 00-6.285 6.285 6.292 6.292 0 006.285 6.286 6.203 6.203 0 003.173-.89l3.573 3.573 2.222-2.222zm-8.968-3.604a3.146 3.146 0 01-3.143-3.143 3.146 3.146 0 013.143-3.142 3.146 3.146 0 013.143 3.142 3.146 3.146 0 01-3.143 3.143z"/></g></g></svg>