<svg width="75" height="74" xmlns="http://www.w3.org/2000/svg" xmlns:xlink="http://www.w3.org/1999/xlink"><defs><filter x="-5%" y="-3.6%" width="110%" height="110%" filterUnits="objectBoundingBox" id="a"><feOffset dy="1" in="SourceAlpha" result="shadowOffsetOuter1"/><feGaussianBlur stdDeviation="1" in="shadowOffsetOuter1" result="shadowBlurOuter1"/><feComposite in="shadowBlurOuter1" in2="SourceAlpha" operator="out" result="shadowBlurOuter1"/><feColorMatrix values="0 0 0 0 0.0666666667 0 0 0 0 0.0588235294 0 0 0 0 0.2 0 0 0 0.1 0" in="shadowBlurOuter1"/></filter><rect id="b" x="0" y="0" width="70" height="70" rx="5"/></defs><g fill="none" fill-rule="evenodd"><g transform="translate(2.5 1)"><use fill="#000" filter="url(#a)" xlink:href="#b"/><rect stroke="#D7D7DE" stroke-linejoin="square" fill="#F6F5FF" x=".5" y=".5" width="69" height="69" rx="5"/></g><path d="M43.935 39.624a8.86 8.86 0 001.812-5.436c0-5.047-4.012-9.188-9.059-9.188S27.5 29.141 27.5 34.188c0 5.047 4.141 9.188 9.188 9.188 2.07 0 4.012-.647 5.436-1.811l3.882 3.882c.259.259.647.388.906.388s.647-.13.906-.388a1.251 1.251 0 000-1.812l-3.883-4.011zm-7.247 1.035c-3.623 0-6.6-2.847-6.6-6.47 0-3.624 2.977-6.6 6.6-6.6 3.624 0 6.6 2.976 6.6 6.6 0 3.623-2.976 6.47-6.6 6.47z" fill="#695FF6" fill-rule="nonzero" stroke="#6D5DFF"/></g></svg>
