<svg xmlns="http://www.w3.org/2000/svg" xmlns:xlink="http://www.w3.org/1999/xlink" viewBox="0 0 75 74"><defs><filter x="-5%" y="-3.6%" width="110%" height="110%" filterUnits="objectBoundingBox" id="a"><feOffset dy="1" in="SourceAlpha" result="shadowOffsetOuter1"/><feGaussianBlur stdDeviation="1" in="shadowOffsetOuter1" result="shadowBlurOuter1"/><feComposite in="shadowBlurOuter1" in2="SourceAlpha" operator="out" result="shadowBlurOuter1"/><feColorMatrix values="0 0 0 0 0.0666666667 0 0 0 0 0.0588235294 0 0 0 0 0.2 0 0 0 0.1 0" in="shadowBlurOuter1"/></filter><rect id="b" x="0" y="0" width="70" height="70" rx="5"/></defs><g fill="none" fill-rule="evenodd"><g transform="translate(2.5 1)"><use fill="#000" filter="url(#a)" xlink:href="#b"/><rect stroke="#D7D7DE" stroke-linejoin="square" fill="#F6F5FF" x=".5" y=".5" width="69" height="69" rx="5"/></g><g stroke="#766CFF" stroke-linecap="round" stroke-linejoin="round" stroke-width="2.5"><path d="M41.438 25.688H29.062c-.759 0-1.375.616-1.375 1.375v8.25c0 .758.616 1.374 1.375 1.374h2.75v4.126l4.125-4.126h5.5c.76 0 1.376-.615 1.376-1.374v-8.25c0-.76-.617-1.375-1.376-1.375z"/><path d="M35.938 42.188h4.124l4.126 4.124v-4.124h2.75c.758 0 1.374-.617 1.374-1.376v-8.25c0-.758-.615-1.374-1.374-1.374h-1.376"/></g></g></svg>