<svg fill="none" xmlns="http://www.w3.org/2000/svg" viewBox="0 0 74 74"><g filter="url(#filter0_d)"><rect x="2" y="1" width="70" height="70" rx="5" fill="#F6F5FF"/><rect x="2.5" y="1.5" width="69" height="69" rx="4.5" stroke="#D7D7DE"/></g><path d="M34.25 37.375h-6.875A1.376 1.376 0 0126 36v-9.625c0-.759.616-1.375 1.375-1.375h6.875c.759 0 1.375.616 1.375 1.375V36c0 .759-.616 1.375-1.375 1.375zM34.25 47h-6.875A1.376 1.376 0 0126 45.625V41.5c0-.759.616-1.375 1.375-1.375h6.875c.759 0 1.375.616 1.375 1.375v4.125c0 .759-.616 1.375-1.375 1.375zM46.625 33.25H39.75a1.376 1.376 0 01-1.375-1.375v-5.5c0-.759.616-1.375 1.375-1.375h6.875c.759 0 1.375.616 1.375 1.375v5.5c0 .759-.616 1.375-1.375 1.375zM46.625 47H39.75a1.376 1.376 0 01-1.375-1.375v-8.25c0-.759.616-1.375 1.375-1.375h6.875c.759 0 1.375.616 1.375 1.375v8.25c0 .759-.616 1.375-1.375 1.375z" fill="#695FF6"/><defs><filter id="filter0_d" x="0" y="0" width="74" height="74" filterUnits="userSpaceOnUse" color-interpolation-filters="sRGB"><feFlood flood-opacity="0" result="BackgroundImageFix"/><feColorMatrix in="SourceAlpha" values="0 0 0 0 0 0 0 0 0 0 0 0 0 0 0 0 0 0 127 0"/><feOffset dy="1"/><feGaussianBlur stdDeviation="1"/><feColorMatrix values="0 0 0 0 0.0666667 0 0 0 0 0.0588235 0 0 0 0 0.2 0 0 0 0.1 0"/><feBlend in2="BackgroundImageFix" result="effect1_dropShadow"/><feBlend in="SourceGraphic" in2="effect1_dropShadow" result="shape"/></filter></defs></svg>