<svg width="74" height="74" fill="none" xmlns="http://www.w3.org/2000/svg"><g filter="url(#a)"><rect x="2" y="1" width="70" height="70" rx="5" fill="#F6F5FF"/><rect x="2.5" y="1.5" width="69" height="69" rx="4.5" stroke="#D7D7DE"/></g><path fill-rule="evenodd" clip-rule="evenodd" d="M32.533 42.217 28.75 46 27 44.25l3.783-3.783 1.75 1.75Z" fill="#695FF6"/><path fill-rule="evenodd" clip-rule="evenodd" d="m32.02 33.395 7.585 7.585-2.113 2.112a5.363 5.363 0 1 1-7.584-7.584l2.112-2.113Zm0 3.5-.362.363a2.888 2.888 0 1 0 4.084 4.084l.363-.362-4.084-4.084ZM47 27.75l-3.783 3.783-1.75-1.75L45.25 26 47 27.75Z" fill="#695FF6"/><path fill-rule="evenodd" clip-rule="evenodd" d="M36.508 28.908a5.363 5.363 0 1 1 7.584 7.585l-2.112 2.112-7.585-7.584 2.113-2.113Zm3.792.904c-.766 0-1.5.305-2.042.846l-.363.363 4.085 4.084.362-.362a2.888 2.888 0 0 0-2.042-4.93ZM37.1 35.175l-3.4 3.4-1.75-1.75 3.4-3.4 1.75 1.75ZM39.575 37.65l-3.4 3.4-1.75-1.75 3.4-3.4 1.75 1.75Z" fill="#695FF6"/><defs><filter id="a" x="0" y="0" width="74" height="74" filterUnits="userSpaceOnUse" color-interpolation-filters="sRGB"><feFlood flood-opacity="0" result="BackgroundImageFix"/><feColorMatrix in="SourceAlpha" values="0 0 0 0 0 0 0 0 0 0 0 0 0 0 0 0 0 0 127 0" result="hardAlpha"/><feOffset dy="1"/><feGaussianBlur stdDeviation="1"/><feColorMatrix values="0 0 0 0 0.0666667 0 0 0 0 0.0588235 0 0 0 0 0.2 0 0 0 0.1 0"/><feBlend in2="BackgroundImageFix" result="effect1_dropShadow_51_7129"/><feBlend in="SourceGraphic" in2="effect1_dropShadow_51_7129" result="shape"/></filter></defs></svg>
