<svg width="74" height="74" fill="none" xmlns="http://www.w3.org/2000/svg"><g filter="url(#a)"><rect x="2" y="1" width="70" height="70" rx="5" fill="#F6F5FF"/><rect x="2.5" y="1.5" width="69" height="69" rx="4.5" stroke="#D7D7DE"/></g><path fill-rule="evenodd" clip-rule="evenodd" d="M28.25 26h17.5c.691 0 1.25.56 1.25 1.25V36h-2.5v-2.5h-15v5h3.75V41h-5A1.25 1.25 0 0 1 27 39.75v-12.5c0-.69.559-1.25 1.25-1.25Zm1.25 2.5V31h15v-2.5h-15Z" fill="#695FF6"/><path d="M45.75 39.75H42V36h-2.5v3.75h-3.75v2.5h3.75V46H42v-3.75h3.75v-2.5Z" fill="#695FF6"/><defs><filter id="a" x="0" y="0" width="74" height="74" filterUnits="userSpaceOnUse" color-interpolation-filters="sRGB"><feFlood flood-opacity="0" result="BackgroundImageFix"/><feColorMatrix in="SourceAlpha" values="0 0 0 0 0 0 0 0 0 0 0 0 0 0 0 0 0 0 127 0" result="hardAlpha"/><feOffset dy="1"/><feGaussianBlur stdDeviation="1"/><feColorMatrix values="0 0 0 0 0.0666667 0 0 0 0 0.0588235 0 0 0 0 0.2 0 0 0 0.1 0"/><feBlend in2="BackgroundImageFix" result="effect1_dropShadow_201_5959"/><feBlend in="SourceGraphic" in2="effect1_dropShadow_201_5959" result="shape"/></filter></defs></svg>
