<svg width="1087" height="1022" viewBox="0 0 1087 1022" fill="none" xmlns="http://www.w3.org/2000/svg">
<path opacity="0.4" fill-rule="evenodd" clip-rule="evenodd" d="M-476.293 738.178C-442.76 840.284 -369.395 927.987 -274.892 1000.37C-194.022 1062.31 2.96378 880.797 90.6259 936.26C298.781 1067.96 489.4 1049.97 638.615 858.008C739.941 702.135 1006.65 860.197 1061.84 723.969C1121.48 576.756 1070.07 390.77 941.4 276.601C814.546 164.042 601.839 183.211 423.979 134.81C243.837 85.7866 61.2339 -28.5549 -123.547 7.20107C-308.513 42.9929 -419.1 205.165 -488.689 349.371C-548.37 473.045 -518.454 609.8 -476.293 738.178Z" fill="url(#paint0_linear_1338_9052)"/>
<defs>
<linearGradient id="paint0_linear_1338_9052" x1="470.427" y1="-9.70501" x2="470.427" y2="1044.17" gradientUnits="userSpaceOnUse">
<stop offset="0.53125" stop-color="#F7F5FF"/>
<stop offset="1" stop-color="white" stop-opacity="0"/>
</linearGradient>
</defs>
</svg>
