<svg fill="none" xmlns="http://www.w3.org/2000/svg" viewBox="0 0 74 74"><g filter="url(#filter0_d)"><rect x="2" y="1" width="70" height="70" rx="5" fill="#F6F5FF"/><rect x="2.5" y="1.5" width="69" height="69" rx="4.5" stroke="#D7D7DE"/></g><path d="M44.5 26H30.333c-.5 0-.833.333-.833.833v18.334c0 .5.333.833.833.833H44.5c.5 0 .833-.333.833-.833V26.833c0-.5-.333-.833-.833-.833zm-10 16.667c0 .5-.333.833-.833.833h-.834c-.5 0-.833-.333-.833-.833v-.834c0-.5.333-.833.833-.833h.834c.5 0 .833.333.833.833v.834zm0-4.167c0 .5-.333.833-.833.833h-.834c-.5 0-.833-.333-.833-.833v-.833c0-.5.333-.834.833-.834h.834c.5 0 .833.334.833.834v.833zm0-4.167c0 .5-.333.834-.833.834h-.834c-.5 0-.833-.334-.833-.834V33.5c0-.5.333-.833.833-.833h.834c.5 0 .833.333.833.833v.833zm4.167 8.334c0 .5-.334.833-.834.833H37c-.5 0-.833-.333-.833-.833v-.834c0-.5.333-.833.833-.833h.833c.5 0 .834.333.834.833v.834zm0-4.167c0 .5-.334.833-.834.833H37c-.5 0-.833-.333-.833-.833v-.833c0-.5.333-.834.833-.834h.833c.5 0 .834.334.834.834v.833zm0-4.167c0 .5-.334.834-.834.834H37c-.5 0-.833-.334-.833-.834V33.5c0-.5.333-.833.833-.833h.833c.5 0 .834.333.834.833v.833zm4.166 8.334c0 .5-.333.833-.833.833h-.833c-.5 0-.834-.333-.834-.833v-5c0-.5.334-.834.834-.834H42c.5 0 .833.334.833.834v5zm0-8.334c0 .5-.333.834-.833.834h-.833c-.5 0-.834-.334-.834-.834V33.5c0-.5.334-.833.834-.833H42c.5 0 .833.333.833.833v.833zm0-4.166c0 .5-.333.833-.833.833h-9.167c-.5 0-.833-.333-.833-.833v-.834c0-.5.333-.833.833-.833H42c.5 0 .833.333.833.833v.834z" fill="#695FF6"/><defs><filter id="filter0_d" x="0" y="0" width="74" height="74" filterUnits="userSpaceOnUse" color-interpolation-filters="sRGB"><feFlood flood-opacity="0" result="BackgroundImageFix"/><feColorMatrix in="SourceAlpha" values="0 0 0 0 0 0 0 0 0 0 0 0 0 0 0 0 0 0 127 0" result="hardAlpha"/><feOffset dy="1"/><feGaussianBlur stdDeviation="1"/><feColorMatrix values="0 0 0 0 0.0666667 0 0 0 0 0.0588235 0 0 0 0 0.2 0 0 0 0.1 0"/><feBlend in2="BackgroundImageFix" result="effect1_dropShadow"/><feBlend in="SourceGraphic" in2="effect1_dropShadow" result="shape"/></filter></defs></svg>
