<svg fill="none" xmlns="http://www.w3.org/2000/svg" viewBox="0 0 74 74"><g filter="url(#filter0_d)"><rect x="2" y="1" width="70" height="70" rx="5" fill="#F6F5FF"/><rect x="2.5" y="1.5" width="69" height="69" rx="4.5" stroke="#D7D7DE"/></g><g clip-path="url(#clip0)"><path d="M46.714 34.538l-.02-.016-9.166-7.5a.833.833 0 00-1.056 0l-9.166 7.5a.834.834 0 001.055 1.29l1.139-.932v9.453a.833.833 0 00.833.834h13.334a.833.833 0 00.833-.834V34.88l1.14.932a.833.833 0 101.074-1.274zM42 39.333l-1.494-1.494L37 41.345l-1.667-1.667-2.5 2.5L31.655 41l3.678-3.678L37 38.988l2.328-2.327-1.495-1.494H42v4.166z" fill="#695FF6"/></g><defs><clipPath id="clip0"><path fill="#fff" transform="translate(27 26)" d="M0 0h20v20H0z"/></clipPath><filter id="filter0_d" x="0" y="0" width="74" height="74" filterUnits="userSpaceOnUse" color-interpolation-filters="sRGB"><feFlood flood-opacity="0" result="BackgroundImageFix"/><feColorMatrix in="SourceAlpha" values="0 0 0 0 0 0 0 0 0 0 0 0 0 0 0 0 0 0 127 0" result="hardAlpha"/><feOffset dy="1"/><feGaussianBlur stdDeviation="1"/><feColorMatrix values="0 0 0 0 0.0666667 0 0 0 0 0.0588235 0 0 0 0 0.2 0 0 0 0.1 0"/><feBlend in2="BackgroundImageFix" result="effect1_dropShadow"/><feBlend in="SourceGraphic" in2="effect1_dropShadow" result="shape"/></filter></defs></svg>
