<svg fill="none" xmlns="http://www.w3.org/2000/svg" viewBox="0 0 74 74"><g filter="url(#filter0_d)"><rect x="2" y="1" width="70" height="70" rx="5" fill="#F6F5FF"/><rect x="2.5" y="1.5" width="69" height="69" rx="4.5" stroke="#D7D7DE"/></g><g clip-path="url(#clip0)" fill="#695FF6"><path d="M30.5 31a3.5 3.5 0 100-7 3.5 3.5 0 000 7zM43.5 31a3.5 3.5 0 100-7 3.5 3.5 0 000 7zM47.884 33.5a7.16 7.16 0 00-8.767 0 2.904 2.904 0 00-.586.653A8.014 8.014 0 0144.737 40H49v-4.164a2.96 2.96 0 00-1.116-2.336zM35.469 34.151a2.874 2.874 0 00-.585-.65A6.957 6.957 0 0030.5 32a6.958 6.958 0 00-4.383 1.5A2.96 2.96 0 0025 35.835V40h4.263a8.015 8.015 0 016.206-5.849zM37 36a6 6 0 100 12 6 6 0 000-12zm1 9h-2v-6h2v6z"/></g><defs><clipPath id="clip0"><path fill="#fff" transform="translate(25 24)" d="M0 0h24v24H0z"/></clipPath><filter id="filter0_d" x="0" y="0" width="74" height="74" filterUnits="userSpaceOnUse" color-interpolation-filters="sRGB"><feFlood flood-opacity="0" result="BackgroundImageFix"/><feColorMatrix in="SourceAlpha" values="0 0 0 0 0 0 0 0 0 0 0 0 0 0 0 0 0 0 127 0" result="hardAlpha"/><feOffset dy="1"/><feGaussianBlur stdDeviation="1"/><feColorMatrix values="0 0 0 0 0.0666667 0 0 0 0 0.0588235 0 0 0 0 0.2 0 0 0 0.1 0"/><feBlend in2="BackgroundImageFix" result="effect1_dropShadow"/><feBlend in="SourceGraphic" in2="effect1_dropShadow" result="shape"/></filter></defs></svg>
