<svg fill="none" xmlns="http://www.w3.org/2000/svg" viewBox="0 0 74 74"><g filter="url(#filter0_d)"><rect x="2" y="1" width="70" height="70" rx="5" fill="#F6F5FF"/><rect x="2.5" y="1.5" width="69" height="69" rx="4.5" stroke="#D7D7DE"/></g><g clip-path="url(#clip0)"><path d="M45.334 29.333c-2.631 0-5.721-.925-7.871-2.36a.83.83 0 00-.924 0c-2.151 1.435-5.241 2.36-7.872 2.36a.833.833 0 00-.833.834c0 6.978 3.304 12.56 8.838 14.932a.833.833 0 00.657 0c5.534-2.371 8.838-7.954 8.838-14.932a.833.833 0 00-.833-.834zM37 43.421V36h-6.549c-.542-1.534-.862-3.223-.934-5.028 2.545-.163 5.352-1.03 7.483-2.319V36h6.55c-1.192 3.37-3.459 5.988-6.55 7.42z" fill="#695FF6"/></g><defs><clipPath id="clip0"><path fill="#fff" transform="translate(27 26)" d="M0 0h20v20H0z"/></clipPath><filter id="filter0_d" x="0" y="0" width="74" height="74" filterUnits="userSpaceOnUse" color-interpolation-filters="sRGB"><feFlood flood-opacity="0" result="BackgroundImageFix"/><feColorMatrix in="SourceAlpha" values="0 0 0 0 0 0 0 0 0 0 0 0 0 0 0 0 0 0 127 0" result="hardAlpha"/><feOffset dy="1"/><feGaussianBlur stdDeviation="1"/><feColorMatrix values="0 0 0 0 0.0666667 0 0 0 0 0.0588235 0 0 0 0 0.2 0 0 0 0.1 0"/><feBlend in2="BackgroundImageFix" result="effect1_dropShadow"/><feBlend in="SourceGraphic" in2="effect1_dropShadow" result="shape"/></filter></defs></svg>
