<svg viewBox="0 0 92 92" xmlns="http://www.w3.org/2000/svg" xmlns:xlink="http://www.w3.org/1999/xlink"><defs><path d="M.3198 46.097c0 25.175 20.4087 45.5832 45.5827 45.5832 25.1746 0 45.5822-20.4081 45.5822-45.5833C91.4847 20.923 71.077.5153 45.9025.5153 20.7285.5153.3198 20.923.3198 46.097z" id="a"/><path d="M.3198 46.097c0 25.175 20.4087 45.5832 45.5827 45.5832 25.1746 0 45.5822-20.4081 45.5822-45.5833C91.4847 20.923 71.077.5153 45.9025.5153 20.7285.5153.3198 20.923.3198 46.097z" id="c"/><path d="M.3198 46.097c0 25.175 20.4087 45.5832 45.5827 45.5832 25.1746 0 45.5822-20.4081 45.5822-45.5833C91.4847 20.923 71.077.5153 45.9025.5153 20.7285.5153.3198 20.923.3198 46.097z" id="e"/><path d="M.3198 46.097c0 25.175 20.4087 45.5832 45.5827 45.5832 25.1746 0 45.5822-20.4081 45.5822-45.5833C91.4847 20.923 71.077.5153 45.9025.5153 20.7285.5153.3198 20.923.3198 46.097z" id="g"/><path d="M.3198 46.097c0 25.175 20.4087 45.5832 45.5827 45.5832 25.1746 0 45.5822-20.4081 45.5822-45.5833C91.4847 20.923 71.077.5153 45.9025.5153 20.7285.5153.3198 20.923.3198 46.097z" id="i"/><path d="M.3198 46.097c0 25.175 20.4087 45.5832 45.5827 45.5832 25.1746 0 45.5822-20.4081 45.5822-45.5833C91.4847 20.923 71.077.5153 45.9025.5153 20.7285.5153.3198 20.923.3198 46.097z" id="k"/><path d="M.3198 46.097c0 25.175 20.4087 45.5832 45.5827 45.5832 25.1746 0 45.5822-20.4081 45.5822-45.5833C91.4847 20.923 71.077.5153 45.9025.5153 20.7285.5153.3198 20.923.3198 46.097z" id="m"/><path d="M.3198 46.097c0 25.175 20.4087 45.5832 45.5827 45.5832 25.1746 0 45.5822-20.4081 45.5822-45.5833C91.4847 20.923 71.077.5153 45.9025.5153 20.7285.5153.3198 20.923.3198 46.097z" id="o"/><path d="M.3198 46.097c0 25.175 20.4087 45.5832 45.5827 45.5832 25.1746 0 45.5822-20.4081 45.5822-45.5833C91.4847 20.923 71.077.5153 45.9025.5153 20.7285.5153.3198 20.923.3198 46.097z" id="q"/><path d="M45.9025 91.6802c25.1746 0 45.5822-20.4081 45.5822-45.5833C91.4847 20.923 71.077.5153 45.9025.5153 20.7285.5153.3198 20.923.3198 46.097c0 25.1752 20.4087 45.5833 45.5827 45.5833z" id="s"/></defs><g fill="none" fill-rule="evenodd"><g><mask id="b" fill="#fff"><use xlink:href="#a"/></mask><path fill="#F6F5FF" mask="url(#b)" d="M-63.2935 97.0505l-3.3755-3.375L30.5717-3.5652l3.375 3.3756z"/></g><g><mask id="d" fill="#fff"><use xlink:href="#c"/></mask><path fill="#F6F5FF" mask="url(#d)" d="M-49.6551 97.0505l-3.3756-3.375L44.2101-3.5652l3.3755 3.3756z"/></g><g><mask id="f" fill="#fff"><use xlink:href="#e"/></mask><path fill="#F6F5FF" mask="url(#f)" d="M-36.017 97.0505l-3.3756-3.375L57.8481-3.5652l3.3755 3.3756z"/></g><g><mask id="h" fill="#fff"><use xlink:href="#g"/></mask><path fill="#F6F5FF" mask="url(#h)" d="M-22.3787 97.0505l-3.3756-3.375L71.4865-3.5652l3.375 3.3756z"/></g><g><mask id="j" fill="#fff"><use xlink:href="#i"/></mask><path fill="#F6F5FF" mask="url(#j)" d="M-8.7407 97.0505l-3.3755-3.375L85.1245-3.5652l3.375 3.3756z"/></g><g><mask id="l" fill="#fff"><use xlink:href="#k"/></mask><path fill="#F6F5FF" mask="url(#l)" d="M4.8977 97.0505l-3.3755-3.375L98.7629-3.5652l3.3755 3.3756z"/></g><g><mask id="n" fill="#fff"><use xlink:href="#m"/></mask><path fill="#F6F5FF" mask="url(#n)" d="M18.536 97.0505l-3.3755-3.375 97.2402-97.2407 3.3755 3.3756z"/></g><g><mask id="p" fill="#fff"><use xlink:href="#o"/></mask><path fill="#F6F5FF" mask="url(#p)" d="M32.1741 97.0505l-3.375-3.375 97.2396-97.2407 3.3756 3.3756z"/></g><g><mask id="r" fill="#fff"><use xlink:href="#q"/></mask><path fill="#F6F5FF" mask="url(#r)" d="M45.8122 97.0505l-3.375-3.375 97.2402-97.2407 3.375 3.3756z"/></g><g><mask id="t" fill="#fff"><use xlink:href="#s"/></mask><path fill="#F6F5FF" mask="url(#t)" d="M59.4502 97.0505l-3.375-3.375 97.2407-97.2407 3.375 3.3756z"/></g></g></svg>
