<svg width="111" height="179" xmlns="http://www.w3.org/2000/svg" xmlns:xlink="http://www.w3.org/1999/xlink"><defs><path id="a" d="M0 .5887h3.413V4H0z"/><path id="c" d="M.9463.5887h3.414V4H.9463z"/><path id="e" d="M.8936.5858h3.413V4H.8936z"/><path id="g" d="M.8399.5888h3.413V4H.8399z"/><path id="i" d="M.7872.5868h3.413V4H.7872z"/><path id="k" d="M.7334.5861h3.413V4H.7334z"/><path id="m" d="M.6797.5887h3.414V4H.6797z"/><path id="o" d="M.627.5858H4.04V4H.627z"/><path id="q" d="M.5733.5887h3.413V4H.5733z"/><path id="s" d="M.5196.082H3.933v3.4113H.5196z"/><path id="u" d="M.5195.5304H3.933v143.019H.5195z"/><path id="w" d="M.5196.5888H3.933V4H.5196z"/></defs><g fill="none" fill-rule="evenodd"><path d="M1.707 4.4143c-.448 0-.893-.184-1.208-.499-.076-.081-.149-.167-.213-.26a2.0672 2.0672 0 01-.154-.295 1.7199 1.7199 0 01-.098-.32C.013 2.9293 0 2.8183 0 2.7073c0-.448.184-.887.499-1.207.32-.316.76-.499 1.208-.499.447 0 .887.183 1.207.499.315.32.499.759.499 1.207 0 .111-.013.222-.034.333-.022.111-.056.218-.098.32-.043.103-.094.2-.153.295a2.241 2.241 0 01-.214.26c-.081.077-.166.149-.26.213-.094.06-.192.111-.295.154-.102.043-.209.077-.32.098-.11.026-.222.034-.332.034M0 20.1584c0-.943.764-1.707 1.707-1.707.942 0 1.706.764 1.706 1.707 0 .943-.764 1.707-1.706 1.707-.943 0-1.707-.764-1.707-1.707m0 17.451c0-.943.764-1.707 1.707-1.707.942 0 1.706.764 1.706 1.707 0 .943-.764 1.706-1.706 1.706-.943 0-1.707-.763-1.707-1.706m0 17.45c0-.943.764-1.707 1.707-1.707.942 0 1.706.764 1.706 1.707 0 .943-.764 1.707-1.706 1.707-.943 0-1.707-.764-1.707-1.707m0 17.451c0-.943.764-1.707 1.707-1.707.942 0 1.706.764 1.706 1.707 0 .943-.764 1.707-1.706 1.707-.943 0-1.707-.764-1.707-1.707m0 17.451c0-.943.764-1.707 1.707-1.707.942 0 1.706.764 1.706 1.707 0 .943-.764 1.706-1.706 1.706-.943 0-1.707-.763-1.707-1.706m0 17.45c0-.942.764-1.707 1.707-1.707.942 0 1.706.765 1.706 1.707 0 .943-.764 1.707-1.706 1.707-.943 0-1.707-.764-1.707-1.707m0 17.451c0-.943.764-1.707 1.707-1.707.942 0 1.706.764 1.706 1.707 0 .943-.764 1.707-1.706 1.707-.943 0-1.707-.764-1.707-1.707m0 17.451c0-.943.764-1.707 1.707-1.707.942 0 1.706.764 1.706 1.707 0 .943-.764 1.706-1.706 1.706-.943 0-1.707-.763-1.707-1.706m0 17.45c0-.942.764-1.707 1.707-1.707.942 0 1.706.765 1.706 1.707 0 .943-.764 1.707-1.706 1.707-.943 0-1.707-.764-1.707-1.707" fill="#65656B"/><g transform="translate(0 174.921)"><mask id="b" fill="#fff"><use xlink:href="#a"/></mask><path d="M1.707 4.0001c-.448 0-.888-.184-1.208-.5C.184 3.1811 0 2.7411 0 2.2931c0-.111.013-.222.034-.333.022-.11.056-.217.098-.319.043-.103.095-.201.154-.295.064-.094.137-.179.213-.26.397-.397.985-.576 1.54-.465.111.021.218.055.32.098.103.043.201.093.295.154.094.064.179.136.26.213.077.081.149.166.214.26.059.094.11.192.153.295.042.102.076.209.098.319.021.111.034.222.034.333 0 .448-.184.888-.499 1.207-.32.316-.76.5-1.207.5" fill="#65656B" mask="url(#b)"/></g><path d="M13.6533 4.4143c-.448 0-.888-.184-1.207-.499-.316-.32-.5-.76-.5-1.208 0-.448.184-.887.5-1.207.396-.397.985-.576 1.54-.465.11.021.218.055.319.098.103.043.202.094.295.154.094.064.179.136.26.213.315.32.5.759.5 1.207 0 .448-.185.892-.5 1.208-.081.077-.166.149-.26.213-.093.06-.192.111-.295.154-.101.043-.209.077-.319.098-.111.021-.222.034-.333.034M11.9463 20.1584c0-.943.764-1.707 1.707-1.707.943 0 1.707.764 1.707 1.707 0 .943-.764 1.707-1.707 1.707-.943 0-1.707-.764-1.707-1.707m0 17.451c0-.943.764-1.707 1.707-1.707.943 0 1.707.764 1.707 1.707 0 .943-.764 1.706-1.707 1.706-.943 0-1.707-.763-1.707-1.706m0 17.45c0-.943.764-1.707 1.707-1.707.943 0 1.707.764 1.707 1.707 0 .943-.764 1.707-1.707 1.707-.943 0-1.707-.764-1.707-1.707m0 17.451c0-.943.764-1.707 1.707-1.707.943 0 1.707.764 1.707 1.707 0 .943-.764 1.707-1.707 1.707-.943 0-1.707-.764-1.707-1.707m0 17.451c0-.943.764-1.707 1.707-1.707.943 0 1.707.764 1.707 1.707 0 .943-.764 1.706-1.707 1.706-.943 0-1.707-.763-1.707-1.706m0 17.45c0-.942.764-1.707 1.707-1.707.943 0 1.707.765 1.707 1.707 0 .943-.764 1.707-1.707 1.707-.943 0-1.707-.764-1.707-1.707m0 17.451c0-.943.764-1.707 1.707-1.707.943 0 1.707.764 1.707 1.707 0 .943-.764 1.707-1.707 1.707-.943 0-1.707-.764-1.707-1.707m0 17.451c0-.943.764-1.707 1.707-1.707.943 0 1.707.764 1.707 1.707 0 .943-.764 1.706-1.707 1.706-.943 0-1.707-.763-1.707-1.706m0 17.45c0-.942.764-1.707 1.707-1.707.943 0 1.707.765 1.707 1.707 0 .943-.764 1.707-1.707 1.707-.943 0-1.707-.764-1.707-1.707" fill="#65656B"/><g transform="translate(11 174.921)"><mask id="d" fill="#fff"><use xlink:href="#c"/></mask><path d="M2.6533 4.0001c-.111 0-.222-.013-.333-.034-.11-.022-.218-.056-.319-.098a1.8777 1.8777 0 01-.295-.154c-.094-.064-.184-.136-.26-.214-.077-.08-.15-.166-.214-.259-.059-.095-.11-.193-.153-.295a1.6502 1.6502 0 01-.099-.32c-.02-.111-.034-.222-.034-.333 0-.448.184-.887.5-1.207.396-.397.985-.576 1.54-.465.11.021.218.055.319.098.103.043.202.093.295.154.094.064.179.136.26.213.315.32.5.759.5 1.207 0 .111-.013.222-.034.333-.022.111-.056.218-.099.32-.042.102-.094.2-.158.295-.06.093-.132.179-.209.259-.081.078-.166.15-.26.214-.093.06-.192.111-.295.154-.101.042-.209.076-.319.098-.111.021-.222.034-.333.034" fill="#65656B" mask="url(#d)"/></g><path d="M25.5996 4.4143c-.447 0-.887-.184-1.207-.499a2.1355 2.1355 0 01-.213-.26c-.06-.095-.111-.192-.154-.295a1.6478 1.6478 0 01-.098-.32c-.021-.111-.034-.222-.034-.333 0-.448.184-.887.499-1.207.077-.077.166-.149.26-.213.094-.06.192-.111.295-.154.102-.043.209-.077.32-.098.217-.043.447-.043.665 0 .111.021.218.055.32.098.103.043.201.094.294.154.094.064.18.136.261.213.077.081.149.166.213.26.059.094.111.192.154.295.042.102.076.209.098.319.021.111.034.223.034.333 0 .111-.013.222-.034.333-.022.111-.056.218-.098.32-.043.103-.095.2-.154.295-.064.093-.136.179-.213.26-.32.315-.76.499-1.208.499M23.8936 20.1584c0-.943.764-1.707 1.706-1.707.943 0 1.707.764 1.707 1.707 0 .943-.764 1.707-1.707 1.707-.942 0-1.706-.764-1.706-1.707m0 17.451c0-.943.764-1.707 1.706-1.707.943 0 1.707.764 1.707 1.707 0 .943-.764 1.706-1.707 1.706-.942 0-1.706-.763-1.706-1.706m0 17.45c0-.943.764-1.707 1.706-1.707.943 0 1.707.764 1.707 1.707 0 .943-.764 1.707-1.707 1.707-.942 0-1.706-.764-1.706-1.707m0 17.451c0-.943.764-1.707 1.706-1.707.943 0 1.707.764 1.707 1.707 0 .943-.764 1.707-1.707 1.707-.942 0-1.706-.764-1.706-1.707m0 17.451c0-.943.764-1.707 1.706-1.707.943 0 1.707.764 1.707 1.707 0 .943-.764 1.706-1.707 1.706-.942 0-1.706-.763-1.706-1.706m0 17.45c0-.942.764-1.707 1.706-1.707.943 0 1.707.765 1.707 1.707 0 .943-.764 1.707-1.707 1.707-.942 0-1.706-.764-1.706-1.707m0 17.451c0-.943.764-1.707 1.706-1.707.943 0 1.707.764 1.707 1.707 0 .943-.764 1.707-1.707 1.707-.942 0-1.706-.764-1.706-1.707m0 17.451c0-.943.764-1.707 1.706-1.707.943 0 1.707.764 1.707 1.707 0 .943-.764 1.706-1.707 1.706-.942 0-1.706-.763-1.706-1.706m0 17.45c0-.942.764-1.707 1.706-1.707.943 0 1.707.765 1.707 1.707 0 .943-.764 1.707-1.707 1.707-.942 0-1.706-.764-1.706-1.707" fill="#65656B"/><g transform="translate(23 174.921)"><mask id="f" fill="#fff"><use xlink:href="#e"/></mask><path d="M2.5996 4.0001c-.447 0-.887-.184-1.207-.5-.315-.319-.499-.759-.499-1.207 0-.111.013-.222.034-.333.022-.11.055-.217.098-.319.043-.103.094-.201.154-.295.064-.094.136-.179.213-.26.077-.077.166-.149.26-.213.094-.061.192-.111.295-.154.102-.043.209-.077.32-.098.217-.047.447-.047.665 0 .111.021.218.055.32.098.103.043.201.093.294.154.094.064.18.136.261.213.077.081.149.166.213.26.059.094.111.192.154.295.042.102.076.209.098.319.021.111.034.222.034.333 0 .111-.013.222-.034.333-.022.111-.056.218-.098.32-.043.102-.095.2-.154.295-.064.093-.136.179-.213.259-.32.316-.76.5-1.208.5" fill="#65656B" mask="url(#f)"/></g><path d="M37.5469 4.4143c-.111 0-.222-.013-.333-.034a1.5816 1.5816 0 01-.32-.098 1.8676 1.8676 0 01-.294-.154c-.094-.064-.18-.136-.261-.213-.076-.081-.149-.167-.213-.26a1.9642 1.9642 0 01-.153-.295 1.6502 1.6502 0 01-.099-.32c-.025-.111-.034-.222-.034-.333 0-.448.184-.887.499-1.207.081-.077.167-.149.261-.213.093-.06.191-.111.294-.154.102-.043.209-.077.32-.098.555-.111 1.144.068 1.54.465.315.32.499.759.499 1.207 0 .111-.013.222-.034.333-.021.111-.055.218-.098.32-.043.103-.094.2-.153.295a2.241 2.241 0 01-.214.26c-.319.315-.759.499-1.207.499M35.8398 20.1584c0-.943.764-1.707 1.707-1.707.942 0 1.706.764 1.706 1.707 0 .943-.764 1.707-1.706 1.707-.943 0-1.707-.764-1.707-1.707m0 17.451c0-.943.764-1.707 1.707-1.707.942 0 1.706.764 1.706 1.707 0 .943-.764 1.706-1.706 1.706-.943 0-1.707-.763-1.707-1.706m0 17.45c0-.943.764-1.707 1.707-1.707.942 0 1.706.764 1.706 1.707 0 .943-.764 1.707-1.706 1.707-.943 0-1.707-.764-1.707-1.707m0 17.451c0-.943.764-1.707 1.707-1.707.942 0 1.706.764 1.706 1.707 0 .943-.764 1.707-1.706 1.707-.943 0-1.707-.764-1.707-1.707m0 17.451c0-.943.764-1.707 1.707-1.707.942 0 1.706.764 1.706 1.707 0 .943-.764 1.706-1.706 1.706-.943 0-1.707-.763-1.707-1.706m0 17.45c0-.942.764-1.707 1.707-1.707.942 0 1.706.765 1.706 1.707 0 .943-.764 1.707-1.706 1.707-.943 0-1.707-.764-1.707-1.707m0 17.451c0-.943.764-1.707 1.707-1.707.942 0 1.706.764 1.706 1.707 0 .943-.764 1.707-1.706 1.707-.943 0-1.707-.764-1.707-1.707m0 17.451c0-.943.764-1.707 1.707-1.707.942 0 1.706.764 1.706 1.707 0 .943-.764 1.706-1.706 1.706-.943 0-1.707-.763-1.707-1.706m0 17.45c0-.942.764-1.707 1.707-1.707.942 0 1.706.765 1.706 1.707 0 .943-.764 1.707-1.706 1.707-.943 0-1.707-.764-1.707-1.707" fill="#65656B"/><g transform="translate(35 174.921)"><mask id="h" fill="#fff"><use xlink:href="#g"/></mask><path d="M2.5469 4.0001c-.111 0-.222-.013-.333-.034a1.7199 1.7199 0 01-.32-.098 1.8676 1.8676 0 01-.294-.154c-.094-.064-.18-.136-.261-.214a2.142 2.142 0 01-.213-.259 2.0134 2.0134 0 01-.153-.295 1.6502 1.6502 0 01-.099-.32c-.025-.111-.034-.222-.034-.333 0-.111.009-.222.034-.333.022-.11.056-.217.099-.319.042-.103.094-.201.153-.295.064-.094.137-.179.213-.26.081-.077.167-.149.261-.213.093-.061.191-.111.294-.154.102-.043.209-.077.32-.098.218-.043.448-.043.666 0 .11.021.217.055.319.098.103.043.202.093.295.154.094.064.179.136.26.213.077.081.149.166.214.26.059.094.11.192.153.295.043.102.077.209.098.319.021.111.034.222.034.333 0 .111-.013.222-.034.333-.021.111-.055.218-.098.32-.043.102-.094.2-.153.295-.065.093-.137.179-.214.259-.081.078-.166.15-.26.214-.093.06-.192.111-.295.154-.102.042-.209.076-.319.098-.111.021-.223.034-.333.034" fill="#65656B" mask="url(#h)"/></g><path d="M49.4932 4.4143c-.448 0-.892-.184-1.207-.499-.316-.32-.499-.76-.499-1.208 0-.448.183-.887.499-1.207.396-.397.985-.576 1.54-.465.111.021.218.055.32.098.102.043.201.094.294.154.094.064.18.136.261.213.314.32.499.759.499 1.207 0 .448-.185.888-.499 1.208-.081.077-.167.149-.261.213-.093.06-.192.111-.294.154-.102.043-.209.077-.32.098-.111.021-.222.034-.333.034M47.7871 20.1584c0-.943.764-1.707 1.706-1.707.943 0 1.707.764 1.707 1.707 0 .943-.764 1.707-1.707 1.707-.942 0-1.706-.764-1.706-1.707m0 17.451c0-.943.764-1.707 1.706-1.707.943 0 1.707.764 1.707 1.707 0 .943-.764 1.706-1.707 1.706-.942 0-1.706-.763-1.706-1.706m0 17.45c0-.943.764-1.707 1.706-1.707.943 0 1.707.764 1.707 1.707 0 .943-.764 1.707-1.707 1.707-.942 0-1.706-.764-1.706-1.707m0 17.451c0-.943.764-1.707 1.706-1.707.943 0 1.707.764 1.707 1.707 0 .943-.764 1.707-1.707 1.707-.942 0-1.706-.764-1.706-1.707m0 17.451c0-.943.764-1.707 1.706-1.707.943 0 1.707.764 1.707 1.707 0 .943-.764 1.706-1.707 1.706-.942 0-1.706-.763-1.706-1.706m0 17.45c0-.942.764-1.707 1.706-1.707.943 0 1.707.765 1.707 1.707 0 .943-.764 1.707-1.707 1.707-.942 0-1.706-.764-1.706-1.707m0 17.451c0-.943.764-1.707 1.706-1.707.943 0 1.707.764 1.707 1.707 0 .943-.764 1.707-1.707 1.707-.942 0-1.706-.764-1.706-1.707m0 17.451c0-.943.764-1.707 1.706-1.707.943 0 1.707.764 1.707 1.707 0 .943-.764 1.706-1.707 1.706-.942 0-1.706-.763-1.706-1.706m0 17.45c0-.942.764-1.707 1.706-1.707.943 0 1.707.765 1.707 1.707 0 .943-.764 1.707-1.707 1.707-.942 0-1.706-.764-1.706-1.707" fill="#65656B"/><g transform="translate(47 174.921)"><mask id="j" fill="#fff"><use xlink:href="#i"/></mask><path d="M2.4932 4.0001c-.448 0-.892-.184-1.207-.5-.316-.319-.499-.759-.499-1.207 0-.448.183-.887.499-1.207.396-.397.985-.581 1.54-.465.111.021.218.055.32.098.102.043.201.093.294.154.094.064.18.136.261.213.314.32.499.759.499 1.207 0 .448-.185.888-.499 1.207-.32.316-.76.5-1.208.5" fill="#65656B" mask="url(#j)"/></g><path d="M61.4404 4.4143c-.448 0-.888-.184-1.208-.499a2.1355 2.1355 0 01-.213-.26 2.0672 2.0672 0 01-.154-.295 1.7199 1.7199 0 01-.098-.32c-.021-.111-.034-.222-.034-.333 0-.448.184-.887.499-1.207.396-.397.985-.576 1.54-.465.111.021.218.055.32.098.103.043.201.094.294.154.095.064.18.136.261.213.077.081.149.166.209.26.064.094.115.192.158.295.042.102.076.209.098.319.021.111.034.223.034.333 0 .111-.013.222-.034.333-.022.111-.056.218-.098.32-.043.103-.094.2-.158.295-.06.093-.132.179-.209.26-.32.315-.76.499-1.207.499M59.7334 20.1584c0-.943.764-1.707 1.707-1.707.942 0 1.706.764 1.706 1.707 0 .943-.764 1.707-1.706 1.707-.943 0-1.707-.764-1.707-1.707m0 17.451c0-.943.764-1.707 1.707-1.707.942 0 1.706.764 1.706 1.707 0 .943-.764 1.706-1.706 1.706-.943 0-1.707-.763-1.707-1.706m0 17.45c0-.943.764-1.707 1.707-1.707.942 0 1.706.764 1.706 1.707 0 .943-.764 1.707-1.706 1.707-.943 0-1.707-.764-1.707-1.707m0 17.451c0-.943.764-1.707 1.707-1.707.942 0 1.706.764 1.706 1.707 0 .943-.764 1.707-1.706 1.707-.943 0-1.707-.764-1.707-1.707m0 17.451c0-.943.764-1.707 1.707-1.707.942 0 1.706.764 1.706 1.707 0 .943-.764 1.706-1.706 1.706-.943 0-1.707-.763-1.707-1.706m0 17.45c0-.942.764-1.707 1.707-1.707.942 0 1.706.765 1.706 1.707 0 .943-.764 1.707-1.706 1.707-.943 0-1.707-.764-1.707-1.707m0 17.451c0-.943.764-1.707 1.707-1.707.942 0 1.706.764 1.706 1.707 0 .943-.764 1.707-1.706 1.707-.943 0-1.707-.764-1.707-1.707m0 17.451c0-.943.764-1.707 1.707-1.707.942 0 1.706.764 1.706 1.707 0 .943-.764 1.706-1.706 1.706-.943 0-1.707-.763-1.707-1.706m0 17.45c0-.942.764-1.707 1.707-1.707.942 0 1.706.765 1.706 1.707 0 .943-.764 1.707-1.706 1.707-.943 0-1.707-.764-1.707-1.707" fill="#65656B"/><g transform="translate(59 174.921)"><mask id="l" fill="#fff"><use xlink:href="#k"/></mask><path d="M2.4404 4.0001c-.448 0-.888-.184-1.208-.5-.077-.08-.149-.166-.213-.259a2.122 2.122 0 01-.154-.295 1.7199 1.7199 0 01-.098-.32c-.021-.111-.034-.222-.034-.333 0-.111.013-.222.034-.333.022-.11.056-.217.098-.319.043-.103.095-.201.154-.295.064-.094.136-.179.213-.26.32-.316.76-.5 1.208-.5.447 0 .887.184 1.207.5.077.081.149.166.209.26.064.094.115.192.158.295.042.102.076.209.098.319.021.111.034.222.034.333 0 .111-.013.222-.034.333a1.7199 1.7199 0 01-.256.615c-.06.093-.132.179-.209.259-.081.078-.166.15-.261.214-.093.06-.191.111-.294.154-.102.042-.209.076-.32.098-.11.021-.222.034-.332.034" fill="#65656B" mask="url(#l)"/></g><path d="M73.3867 4.4143c-.111 0-.222-.013-.333-.034-.11-.021-.218-.055-.319-.098a1.8777 1.8777 0 01-.295-.154 2.0617 2.0617 0 01-.26-.213c-.077-.081-.15-.167-.214-.26a1.9642 1.9642 0 01-.153-.295 1.6502 1.6502 0 01-.099-.32c-.021-.111-.034-.222-.034-.333 0-.448.184-.887.5-1.207.081-.077.166-.149.26-.213.093-.06.192-.111.295-.154.101-.043.209-.077.319-.098.555-.111 1.144.068 1.54.465.315.32.5.759.5 1.207 0 .111-.014.222-.034.333-.022.111-.056.218-.099.32-.043.103-.094.2-.153.295a2.241 2.241 0 01-.214.26c-.081.077-.166.149-.26.213-.093.06-.192.111-.295.154-.101.043-.209.077-.319.098-.111.021-.222.034-.333.034M71.6797 20.1584c0-.943.764-1.707 1.707-1.707.943 0 1.707.764 1.707 1.707 0 .943-.764 1.707-1.707 1.707-.943 0-1.707-.764-1.707-1.707m0 17.451c0-.943.764-1.707 1.707-1.707.943 0 1.707.764 1.707 1.707 0 .943-.764 1.706-1.707 1.706-.943 0-1.707-.763-1.707-1.706m0 17.45c0-.943.764-1.707 1.707-1.707.943 0 1.707.764 1.707 1.707 0 .943-.764 1.707-1.707 1.707-.943 0-1.707-.764-1.707-1.707m0 17.451c0-.943.764-1.707 1.707-1.707.943 0 1.707.764 1.707 1.707 0 .943-.764 1.707-1.707 1.707-.943 0-1.707-.764-1.707-1.707m0 17.451c0-.943.764-1.707 1.707-1.707.943 0 1.707.764 1.707 1.707 0 .943-.764 1.706-1.707 1.706-.943 0-1.707-.763-1.707-1.706m0 17.45c0-.942.764-1.707 1.707-1.707.943 0 1.707.765 1.707 1.707 0 .943-.764 1.707-1.707 1.707-.943 0-1.707-.764-1.707-1.707m0 17.451c0-.943.764-1.707 1.707-1.707.943 0 1.707.764 1.707 1.707 0 .943-.764 1.707-1.707 1.707-.943 0-1.707-.764-1.707-1.707m0 17.451c0-.943.764-1.707 1.707-1.707.943 0 1.707.764 1.707 1.707 0 .943-.764 1.706-1.707 1.706-.943 0-1.707-.763-1.707-1.706m0 17.45c0-.942.764-1.707 1.707-1.707.943 0 1.707.765 1.707 1.707 0 .943-.764 1.707-1.707 1.707-.943 0-1.707-.764-1.707-1.707" fill="#65656B"/><g transform="translate(71 174.921)"><mask id="n" fill="#fff"><use xlink:href="#m"/></mask><path d="M2.3867 4.0001c-.111 0-.222-.013-.333-.034-.11-.022-.218-.056-.319-.098a1.8777 1.8777 0 01-.295-.154 1.9856 1.9856 0 01-.26-.214c-.077-.08-.15-.166-.214-.259a2.0134 2.0134 0 01-.153-.295 1.6502 1.6502 0 01-.099-.32c-.021-.111-.034-.222-.034-.333 0-.448.184-.887.5-1.207.081-.077.166-.149.26-.213.093-.061.192-.111.295-.154.101-.043.209-.077.319-.098.555-.111 1.144.068 1.54.465.315.32.5.759.5 1.207 0 .111-.014.222-.034.333-.022.111-.056.218-.099.32-.043.102-.094.2-.153.295-.065.093-.137.179-.214.259-.081.078-.166.15-.26.214-.093.06-.192.111-.295.154-.101.042-.209.076-.319.098-.111.021-.222.034-.333.034" fill="#65656B" mask="url(#n)"/></g><path d="M85.333 4.4143c-.11 0-.222-.013-.332-.034a1.5816 1.5816 0 01-.32-.098 1.9227 1.9227 0 01-.295-.154 2.0617 2.0617 0 01-.26-.213c-.077-.081-.15-.167-.214-.26-.059-.095-.11-.192-.153-.295a1.5816 1.5816 0 01-.098-.32c-.026-.111-.034-.222-.034-.333 0-.11.008-.222.034-.333.021-.11.055-.217.098-.319.043-.103.094-.201.153-.295.064-.094.137-.179.214-.26.081-.077.166-.149.26-.213.094-.06.192-.111.295-.154.102-.043.209-.077.32-.098.217-.047.447-.047.665 0 .111.021.218.055.32.098.103.043.201.094.294.154.094.064.18.136.261.213.315.32.499.759.499 1.207 0 .448-.184.888-.499 1.208-.081.077-.167.149-.261.213-.093.06-.191.111-.294.154-.102.043-.209.077-.32.098-.11.021-.222.034-.333.034M83.627 20.1584c0-.943.764-1.707 1.706-1.707.943 0 1.707.764 1.707 1.707 0 .943-.764 1.707-1.707 1.707-.942 0-1.706-.764-1.706-1.707m0 17.451c0-.943.764-1.707 1.706-1.707.943 0 1.707.764 1.707 1.707 0 .943-.764 1.706-1.707 1.706-.942 0-1.706-.763-1.706-1.706m0 17.45c0-.943.764-1.707 1.706-1.707.943 0 1.707.764 1.707 1.707 0 .943-.764 1.707-1.707 1.707-.942 0-1.706-.764-1.706-1.707m0 17.451c0-.943.764-1.707 1.706-1.707.943 0 1.707.764 1.707 1.707 0 .943-.764 1.707-1.707 1.707-.942 0-1.706-.764-1.706-1.707m0 17.451c0-.943.764-1.707 1.706-1.707.943 0 1.707.764 1.707 1.707 0 .943-.764 1.706-1.707 1.706-.942 0-1.706-.763-1.706-1.706m0 17.45c0-.942.764-1.707 1.706-1.707.943 0 1.707.765 1.707 1.707 0 .943-.764 1.707-1.707 1.707-.942 0-1.706-.764-1.706-1.707m0 17.451c0-.943.764-1.707 1.706-1.707.943 0 1.707.764 1.707 1.707 0 .943-.764 1.707-1.707 1.707-.942 0-1.706-.764-1.706-1.707m0 17.451c0-.943.764-1.707 1.706-1.707.943 0 1.707.764 1.707 1.707 0 .943-.764 1.706-1.707 1.706-.942 0-1.706-.763-1.706-1.706m0 17.45c0-.942.764-1.707 1.706-1.707.943 0 1.707.765 1.707 1.707 0 .943-.764 1.707-1.707 1.707-.942 0-1.706-.764-1.706-1.707" fill="#65656B"/><g transform="translate(83 174.921)"><mask id="p" fill="#fff"><use xlink:href="#o"/></mask><path d="M2.333 4.0001c-.447 0-.887-.184-1.207-.5-.077-.08-.15-.166-.214-.259-.059-.095-.11-.193-.153-.295a1.5816 1.5816 0 01-.098-.32c-.026-.111-.034-.222-.034-.333 0-.111.008-.222.034-.333.021-.11.055-.217.098-.319.043-.103.094-.201.153-.295.064-.094.137-.179.214-.26.081-.077.166-.149.26-.213.094-.061.192-.111.295-.154.102-.043.209-.077.32-.098.217-.047.447-.047.665 0 .111.021.218.055.32.098.103.043.201.093.294.154.094.064.18.136.261.213.315.32.499.759.499 1.207 0 .448-.184.888-.499 1.207-.32.316-.76.5-1.208.5" fill="#65656B" mask="url(#p)"/></g><path d="M97.2803 4.4143c-.111 0-.223-.013-.333-.034a1.5816 1.5816 0 01-.32-.098 1.8676 1.8676 0 01-.294-.154c-.094-.064-.18-.136-.261-.213-.076-.081-.149-.167-.209-.26a1.6736 1.6736 0 01-.157-.295 1.6502 1.6502 0 01-.099-.32c-.021-.111-.034-.222-.034-.333 0-.11.013-.222.034-.333.022-.11.056-.217.099-.319.042-.103.094-.201.157-.295.06-.094.133-.183.209-.26.081-.077.167-.149.261-.213.093-.06.191-.111.294-.154.102-.043.209-.077.32-.098.218-.043.448-.043.666 0 .11.021.217.055.319.098.103.043.201.094.295.154.094.064.184.136.26.213.315.316.499.755.499 1.207 0 .111-.013.222-.034.333-.021.111-.055.218-.098.32-.043.103-.094.2-.153.295a2.241 2.241 0 01-.214.26c-.076.077-.166.149-.26.213-.094.06-.192.111-.295.154-.102.043-.209.077-.319.098-.111.021-.223.034-.333.034M95.5732 20.1584c0-.943.764-1.707 1.707-1.707.942 0 1.706.764 1.706 1.707 0 .943-.764 1.707-1.706 1.707-.943 0-1.707-.764-1.707-1.707m0 17.451c0-.943.764-1.707 1.707-1.707.942 0 1.706.764 1.706 1.707 0 .943-.764 1.706-1.706 1.706-.943 0-1.707-.763-1.707-1.706m0 17.45c0-.943.764-1.707 1.707-1.707.942 0 1.706.764 1.706 1.707 0 .943-.764 1.707-1.706 1.707-.943 0-1.707-.764-1.707-1.707m0 17.451c0-.943.764-1.707 1.707-1.707.942 0 1.706.764 1.706 1.707 0 .943-.764 1.707-1.706 1.707-.943 0-1.707-.764-1.707-1.707m0 17.451c0-.943.764-1.707 1.707-1.707.942 0 1.706.764 1.706 1.707 0 .943-.764 1.706-1.706 1.706-.943 0-1.707-.763-1.707-1.706m0 17.45c0-.942.764-1.707 1.707-1.707.942 0 1.706.765 1.706 1.707 0 .943-.764 1.707-1.706 1.707-.943 0-1.707-.764-1.707-1.707m0 17.451c0-.943.764-1.707 1.707-1.707.942 0 1.706.764 1.706 1.707 0 .943-.764 1.707-1.706 1.707-.943 0-1.707-.764-1.707-1.707m0 17.451c0-.943.764-1.707 1.707-1.707.942 0 1.706.764 1.706 1.707 0 .943-.764 1.706-1.706 1.706-.943 0-1.707-.763-1.707-1.706m0 17.45c0-.942.764-1.707 1.707-1.707.942 0 1.706.765 1.706 1.707 0 .943-.764 1.707-1.706 1.707-.943 0-1.707-.764-1.707-1.707" fill="#65656B"/><g transform="translate(95 174.921)"><mask id="r" fill="#fff"><use xlink:href="#q"/></mask><path d="M2.2803 4.0001c-.111 0-.223-.013-.333-.034a1.7199 1.7199 0 01-.32-.098 1.8676 1.8676 0 01-.294-.154c-.094-.064-.18-.136-.261-.214-.315-.319-.499-.759-.499-1.207 0-.111.013-.222.034-.333.022-.11.056-.217.099-.319.042-.103.094-.201.157-.295.06-.094.133-.179.209-.26.081-.077.167-.149.261-.213.093-.061.191-.111.294-.154.102-.043.209-.077.32-.098.555-.111 1.144.068 1.54.465.315.315.499.759.499 1.207 0 .448-.184.888-.499 1.207-.319.316-.76.5-1.207.5" fill="#65656B" mask="url(#r)"/></g><g transform="translate(107 .921)"><mask id="t" fill="#fff"><use xlink:href="#s"/></mask><path d="M2.2266 3.4933c-.111 0-.222-.013-.333-.034-.11-.021-.217-.055-.319-.098a1.8777 1.8777 0 01-.295-.154c-.094-.064-.184-.136-.26-.213-.316-.32-.5-.76-.5-1.208 0-.11.014-.222.034-.333.022-.11.056-.217.099-.319.043-.103.094-.201.153-.295.064-.094.137-.179.214-.26.08-.077.166-.149.26-.213.093-.06.192-.111.295-.154.102-.043.209-.077.319-.098.218-.043.444-.043.666 0 .11.021.218.055.32.098.102.043.201.094.294.154.094.064.18.136.261.213.076.081.149.166.208.26.064.094.116.192.158.295.043.102.077.209.099.319.021.111.034.223.034.333 0 .448-.185.888-.499 1.208-.081.077-.167.149-.261.213-.093.06-.192.111-.294.154-.102.043-.21.077-.32.098-.111.021-.222.034-.333.034" fill="#65656B" mask="url(#t)"/></g><g transform="translate(107 17.921)"><mask id="v" fill="#fff"><use xlink:href="#u"/></mask><path d="M.5195 2.2374c0-.943.765-1.707 1.707-1.707.943 0 1.707.764 1.707 1.707 0 .943-.764 1.707-1.707 1.707-.942 0-1.707-.764-1.707-1.707m0 17.451c0-.943.765-1.707 1.707-1.707.943 0 1.707.764 1.707 1.707 0 .943-.764 1.706-1.707 1.706-.942 0-1.707-.763-1.707-1.706m0 17.45c0-.943.765-1.707 1.707-1.707.943 0 1.707.764 1.707 1.707 0 .943-.764 1.707-1.707 1.707-.942 0-1.707-.764-1.707-1.707m0 17.451c0-.943.765-1.707 1.707-1.707.943 0 1.707.764 1.707 1.707 0 .943-.764 1.707-1.707 1.707-.942 0-1.707-.764-1.707-1.707m0 17.451c0-.943.765-1.707 1.707-1.707.943 0 1.707.764 1.707 1.707 0 .943-.764 1.706-1.707 1.706-.942 0-1.707-.763-1.707-1.706m0 17.45c0-.942.765-1.707 1.707-1.707.943 0 1.707.765 1.707 1.707 0 .943-.764 1.707-1.707 1.707-.942 0-1.707-.764-1.707-1.707m0 17.451c0-.943.765-1.707 1.707-1.707.943 0 1.707.764 1.707 1.707 0 .943-.764 1.707-1.707 1.707-.942 0-1.707-.764-1.707-1.707m0 17.451c0-.943.765-1.707 1.707-1.707.943 0 1.707.764 1.707 1.707 0 .943-.764 1.706-1.707 1.706-.942 0-1.707-.763-1.707-1.706m0 17.45c0-.942.765-1.707 1.707-1.707.943 0 1.707.765 1.707 1.707 0 .943-.764 1.707-1.707 1.707-.942 0-1.707-.764-1.707-1.707" fill="#65656B" mask="url(#v)"/></g><g transform="translate(107 174.921)"><mask id="x" fill="#fff"><use xlink:href="#w"/></mask><path d="M2.2266 4.0001c-.111 0-.222-.013-.333-.034-.11-.022-.217-.056-.319-.098a1.8777 1.8777 0 01-.295-.154c-.094-.064-.18-.136-.26-.214-.077-.08-.15-.166-.214-.259-.059-.095-.11-.193-.153-.295a1.6502 1.6502 0 01-.099-.32c-.02-.111-.034-.222-.034-.333 0-.111.014-.222.034-.333.022-.11.056-.217.099-.319.043-.103.094-.201.153-.295.064-.094.137-.183.214-.26.076-.077.166-.149.26-.213.093-.061.192-.111.295-.154.102-.043.209-.077.319-.098.218-.043.444-.043.666 0 .11.021.218.055.32.098.102.043.201.093.294.154.094.064.18.136.261.213.076.077.149.166.208.26.064.094.116.192.158.295.043.102.077.209.099.319.021.111.034.222.034.333 0 .111-.013.222-.034.333-.022.111-.056.218-.099.32-.042.102-.094.2-.158.295-.059.093-.132.179-.208.259-.081.078-.167.15-.261.214-.093.06-.192.111-.294.154-.102.042-.21.076-.32.098-.111.021-.222.034-.333.034" fill="#65656B" mask="url(#x)"/></g></g></svg>
