<svg viewBox="0 0 86 23" fill="none" xmlns="http://www.w3.org/2000/svg">
<path d="M0.500977 22.6934V1.22677H9.40404C10.586 1.20924 11.7499 1.52219 12.7687 2.13144C13.7792 2.73993 14.6139 3.60842 15.1888 4.64934C15.7636 5.69025 16.0582 6.8668 16.0429 8.06033C16.0429 9.38922 15.7461 10.5818 15.1526 11.6381C14.5807 12.6682 13.7604 13.5336 12.7687 14.1528C11.7564 14.7808 10.59 15.1051 9.40404 15.0881H4.84739V22.6934H0.500977ZM4.81621 11.0708H8.95038C9.30592 11.0762 9.65842 11.0036 9.98388 10.8581C10.3093 10.7126 10.6001 10.4975 10.8364 10.2274C11.3494 9.66522 11.6059 8.96499 11.6059 8.12677C11.6059 7.28855 11.3494 6.59855 10.8364 6.05677C10.5958 5.79439 10.3035 5.58644 9.97852 5.44642C9.65358 5.30641 9.30327 5.23747 8.95038 5.2441H4.81621V11.0708Z" fill="#000"/>
<path d="M25.5676 23.0001C23.9381 23.0001 22.4896 22.6372 21.2222 21.9114C19.9779 21.2086 18.9452 20.175 18.2348 18.9214C17.5112 17.6538 17.1494 16.2023 17.1494 14.5667C17.1494 12.9516 17.5115 11.5103 18.2358 10.2427C18.9462 8.98909 19.9789 7.95552 21.2232 7.25273C22.4906 6.52695 23.9391 6.16406 25.5686 6.16406C27.1573 6.16406 28.5856 6.52695 29.8537 7.25273C31.098 7.95552 32.1307 8.98909 32.8412 10.2427C33.5654 11.5103 33.9275 12.9516 33.9275 14.5667C33.9275 16.2023 33.5654 17.6538 32.8412 18.9214C32.1307 20.175 31.098 21.2086 29.8537 21.9114C28.5856 22.6372 27.1569 23.0001 25.5676 23.0001ZM25.5676 19.3507C26.3367 19.3608 27.0919 19.1423 27.7403 18.7221C28.382 18.3042 28.8987 17.7155 29.2341 17.0201C29.582 16.2505 29.7622 15.4136 29.7622 14.5667C29.7622 13.7198 29.582 12.8829 29.2341 12.1134C28.901 11.4204 28.3835 10.8361 27.7403 10.4267C27.0884 10.016 26.3346 9.8032 25.5676 9.8134C24.7907 9.79967 24.0263 10.0125 23.3648 10.4267C22.7189 10.8374 22.1968 11.421 21.8559 12.1134C21.4981 12.8801 21.3124 13.7181 21.3124 14.5667C21.3124 15.4153 21.4981 16.2533 21.8559 17.0201C22.1992 17.7149 22.7204 18.3029 23.3648 18.7221C24.0229 19.1457 24.7887 19.3642 25.5676 19.3507Z" fill="#000"/>
<path d="M36.7148 22.6933V0H40.8188V22.6933H36.7148Z" fill="#000"/>
<path d="M45.2246 22.6933V0H49.3286V22.6933H45.2246Z" fill="#000"/>
<path d="M60.8152 23C59.1052 23 57.6065 22.6422 56.3189 21.9266C55.0686 21.2476 54.0289 20.2282 53.3164 18.9826C52.6022 17.7355 52.2451 16.3044 52.2451 14.6893C52.2451 13.0129 52.5921 11.5357 53.2862 10.258C53.9556 9.00625 54.9463 7.96234 56.153 7.2373C57.3701 6.5013 58.7733 6.1333 60.3626 6.1333C61.7909 6.1333 63.0734 6.48597 64.2101 7.1913C65.3344 7.88285 66.2524 8.87227 66.8656 10.0535C67.4993 11.2597 67.796 12.6397 67.7558 14.1935L67.7256 15.5122H56.2586C56.4799 16.6775 57.0281 17.5975 57.9032 18.2722C58.7783 18.9469 59.8898 19.2842 61.2377 19.2842C61.9122 19.2951 62.5831 19.1826 63.2183 18.952C63.8117 18.7271 64.4488 18.3284 65.1295 17.756L67.1211 20.5773C66.249 21.3584 65.2409 21.9669 64.1487 22.3713C63.0832 22.7808 61.9544 22.9937 60.8152 23ZM60.3928 9.75197C58.1195 9.75197 56.7515 10.7946 56.2888 12.88H63.8329V12.7573C63.8122 12.341 63.7062 11.9337 63.5217 11.5614C63.3373 11.1891 63.0784 10.8601 62.7616 10.5953C62.1078 10.0331 61.3182 9.75197 60.3928 9.75197Z" fill="#000"/>
<path d="M70.9551 22.6934V6.5014H74.9384L74.9987 8.67873C75.5957 7.90577 76.3556 7.27864 77.2224 6.84346C78.0893 6.40828 79.0412 6.17612 80.008 6.16406C83.6694 6.16406 85.5001 8.37206 85.5001 12.7881V22.6934H81.3961V13.0947C81.3961 10.7845 80.4405 9.67029 78.5294 9.75206C77.5436 9.75206 76.7238 10.0587 76.07 10.6721C75.7551 10.956 75.5043 11.3058 75.335 11.6976C75.1657 12.0893 75.0819 12.5136 75.0893 12.9414V22.6934H70.9551Z" fill="#000"/>
</svg>
