<svg width="16" height="16" xmlns="http://www.w3.org/2000/svg"><path d="M7.996 1.44c2.14 0 2.388.008 3.235.048.507.006 1.01.098 1.486.272.346.13.66.336.919.6.265.259.47.573.599.92.178.476.27.98.271 1.488.04.84.048 1.096.048 3.232s-.008 2.392-.048 3.232a4.334 4.334 0 0 1-.271 1.488c-.13.347-.334.661-.6.92a2.426 2.426 0 0 1-.918.592 4.417 4.417 0 0 1-1.486.28c-.847.04-1.094.048-3.235.048-2.14 0-2.388-.008-3.227-.048a4.417 4.417 0 0 1-1.486-.28 2.426 2.426 0 0 1-.919-.592 2.513 2.513 0 0 1-.599-.92 4.486 4.486 0 0 1-.28-1.488c-.031-.84-.04-1.096-.04-3.232s.009-2.392.04-3.232a4.435 4.435 0 0 1 .28-1.488c.13-.347.334-.661.6-.92.258-.264.572-.47.918-.6a4.475 4.475 0 0 1 1.486-.272c.839-.04 1.094-.048 3.227-.048m0-1.44C5.831 0 5.552.008 4.705.048a6.011 6.011 0 0 0-1.941.368c-.535.203-1.02.52-1.422.928-.407.398-.72.882-.919 1.416a5.804 5.804 0 0 0-.375 1.944C.008 5.552 0 5.824 0 8c0 2.176.008 2.448.048 3.296.014.665.14 1.322.375 1.944.2.533.514 1.016.919 1.416.4.409.886.723 1.422.92a5.78 5.78 0 0 0 1.94.376c.848.04 1.127.048 3.292.048s2.444-.008 3.3-.048a5.78 5.78 0 0 0 1.94-.376 3.843 3.843 0 0 0 1.422-.92c.405-.4.719-.883.919-1.416.234-.622.361-1.28.375-1.944.04-.848.048-1.12.048-3.296 0-2.176-.008-2.448-.048-3.296a5.804 5.804 0 0 0-.375-1.944 3.859 3.859 0 0 0-.919-1.416 3.971 3.971 0 0 0-1.422-.928 6.011 6.011 0 0 0-1.94-.368C10.44.008 10.168 0 7.995 0m0 3.888a4.105 4.105 0 0 0-4.09 4.115 4.105 4.105 0 0 0 4.103 4.101A4.105 4.105 0 0 0 12.11 8c.001-1.092-.432-2.14-1.204-2.91a4.101 4.101 0 0 0-2.909-1.202m0 6.776a2.662 2.662 0 0 1-2.652-2.67 2.662 2.662 0 0 1 2.663-2.658 2.665 2.665 0 1 1-.01 5.328m5.231-6.936a.96.96 0 1 1-1.918.001.96.96 0 0 1 1.918-.001" fill="#160E33" fill-rule="evenodd"/></svg>