<svg width="16" height="14" xmlns="http://www.w3.org/2000/svg"><path d="M5.028 13.6c6.041 0 9.346-5.231 9.346-9.765 0-.154-.009-.299-.018-.444A6.934 6.934 0 0 0 16 1.605a6.1 6.1 0 0 1-1.883.544A3.449 3.449 0 0 0 15.556.254c-.643.4-1.35.682-2.088.834A3.188 3.188 0 0 0 11.078 0C9.242.025 7.771 1.562 7.791 3.436c.003.263.033.524.09.78A9.223 9.223 0 0 1 1.11.626a3.626 3.626 0 0 0-.445 1.731 3.487 3.487 0 0 0 1.466 2.856A3.12 3.12 0 0 1 .64 4.778v.045C.627 6.443 1.728 7.85 3.278 8.196a3.424 3.424 0 0 1-.87.118 3.346 3.346 0 0 1-.613-.063c.412 1.385 1.647 2.345 3.065 2.384a6.378 6.378 0 0 1-4.078 1.469A7.393 7.393 0 0 1 0 12.059 9.019 9.019 0 0 0 5.028 13.6" fill="#160E33" fill-rule="evenodd"/></svg>