<svg width="256" height="223" xmlns="http://www.w3.org/2000/svg" xmlns:xlink="http://www.w3.org/1999/xlink"><defs><path d="M90.307 83.862c0-18.636 4.908-35.8 12.27-48.061 8.343-14.713 21.595-25.502 33.865-33.84C138.405.492 140.368 0 142.822 0c4.417 0 8.834 2.452 11.288 5.885.982 2.452 1.964 4.904 1.964 7.847 0 3.923-1.473 7.847-4.908 10.299-7.853 4.904-15.706 11.28-21.595 17.655-4.418 4.904-8.344 12.26-8.835 19.617v.98c0 1.962.982 2.453 2.454 2.453h1.473c2.944-.49 3.926-.49 5.398-.49 15.706 0 29.939 12.26 29.939 31.386C160 112.797 148.22 128 127.607 128c-20.122 0-37.3-14.713-37.3-44.138zM0 83.862c0-18.636 4.908-35.8 12.27-48.061 8.343-14.713 21.595-25.502 33.865-33.84C48.098.492 50.061 0 52.515 0c4.418 0 8.835 2.452 11.289 5.885.981 2.452 1.963 4.904 1.963 7.847 0 3.923-1.473 7.847-4.908 10.299-7.853 4.904-15.706 11.28-21.595 17.655-4.417 4.904-8.344 12.26-8.835 19.617v.98c0 1.962.982 2.453 2.454 2.453h1.473c2.945-.49 3.926-.49 5.399-.49 15.705 0 29.938 12.26 29.938 31.386 0 17.165-11.779 32.368-32.392 32.368C17.178 128 0 113.287 0 83.862z" id="b"/><filter x="-51.6%" y="-52.7%" width="203.1%" height="228.9%" filterUnits="objectBoundingBox" id="a"><feOffset dy="15" in="SourceAlpha" result="shadowOffsetOuter1"/><feGaussianBlur stdDeviation="25" in="shadowOffsetOuter1" result="shadowBlurOuter1"/><feColorMatrix values="0 0 0 0 0.0862745098 0 0 0 0 0.0549019608 0 0 0 0 0.2 0 0 0 1 0" in="shadowBlurOuter1"/></filter></defs><g fill="none" fill-rule="evenodd"><g opacity=".05" transform="translate(48 32)"><use fill="#000" filter="url(#a)" xlink:href="#b"/><use fill="#FFF" xlink:href="#b"/></g><path d="M138.307 115.862c0-18.636 4.908-35.8 12.27-48.061 8.343-14.713 21.595-25.502 33.865-33.84 1.963-1.47 3.926-1.961 6.38-1.961 4.417 0 8.834 2.452 11.288 5.885.982 2.452 1.964 4.904 1.964 7.847 0 3.923-1.473 7.847-4.908 10.299-7.853 4.904-15.706 11.28-21.595 17.655-4.418 4.904-8.344 12.26-8.835 19.617v.98c0 1.962.982 2.453 2.454 2.453h1.473c2.944-.49 3.926-.49 5.398-.49 15.706 0 29.939 12.26 29.939 31.386C208 144.797 196.22 160 175.607 160c-20.122 0-37.3-14.713-37.3-44.138zm-90.307 0c0-18.636 4.908-35.8 12.27-48.061 8.343-14.713 21.595-25.502 33.865-33.84 1.963-1.47 3.926-1.961 6.38-1.961 4.418 0 8.835 2.452 11.289 5.885.981 2.452 1.963 4.904 1.963 7.847 0 3.923-1.473 7.847-4.908 10.299-7.853 4.904-15.706 11.28-21.595 17.655-4.417 4.904-8.344 12.26-8.835 19.617v.98c0 1.962.982 2.453 2.454 2.453h1.473c2.945-.49 3.926-.49 5.399-.49 15.705 0 29.938 12.26 29.938 31.386 0 17.165-11.779 32.368-32.392 32.368C65.178 160 48 145.287 48 115.862z" fill="#FFF"/></g></svg>