<svg width="152" height="158" xmlns="http://www.w3.org/2000/svg" xmlns:xlink="http://www.w3.org/1999/xlink"><defs><path d="M45.153 41.931c0-9.318 2.454-17.9 6.135-24.03C55.46 10.543 62.086 5.148 68.221.98 69.202.245 70.184 0 71.41 0c2.209 0 4.417 1.226 5.644 2.943.491 1.226.982 2.452.982 3.923 0 1.962-.736 3.923-2.454 5.15-3.927 2.451-7.853 5.64-10.798 8.827-2.208 2.452-4.172 6.13-4.417 9.808v.49c0 .982.49 1.227 1.227 1.227h.736c1.473-.245 1.963-.245 2.7-.245 7.852 0 14.969 6.13 14.969 15.693C80 56.398 74.11 64 63.804 64c-10.062 0-18.65-7.356-18.65-22.069zM0 41.931c0-9.318 2.454-17.9 6.135-24.03C10.307 10.543 16.933 5.148 23.067.98 24.05.245 25.031 0 26.257 0c2.21 0 4.418 1.226 5.645 2.943.49 1.226.981 2.452.981 3.923 0 1.962-.736 3.923-2.454 5.15-3.926 2.451-7.852 5.64-10.797 8.827-2.209 2.452-4.172 6.13-4.417 9.808v.49c0 .982.49 1.227 1.227 1.227h.736c1.472-.245 1.963-.245 2.7-.245 7.852 0 14.969 6.13 14.969 15.693C34.847 56.398 28.957 64 18.65 64 8.59 64 0 56.644 0 41.931z" id="b"/><filter x="-103.1%" y="-105.5%" width="306.2%" height="357.8%" filterUnits="objectBoundingBox" id="a"><feOffset dy="15" in="SourceAlpha" result="shadowOffsetOuter1"/><feGaussianBlur stdDeviation="25" in="shadowOffsetOuter1" result="shadowBlurOuter1"/><feColorMatrix values="0 0 0 0 0.0862745098 0 0 0 0 0.0549019608 0 0 0 0 0.2 0 0 0 1 0" in="shadowBlurOuter1"/></filter></defs><g fill="none" fill-rule="evenodd"><g opacity=".05" transform="translate(25 31)"><use fill="#000" filter="url(#a)" xlink:href="#b"/><use fill="#FFF" xlink:href="#b"/></g><path d="M70.153 72.931c0-9.318 2.454-17.9 6.135-24.03 4.172-7.357 10.798-12.752 16.933-16.92.981-.736 1.963-.981 3.19-.981 2.209 0 4.417 1.226 5.644 2.943.491 1.226.982 2.452.982 3.923 0 1.962-.736 3.923-2.454 5.15-3.927 2.451-7.853 5.64-10.798 8.827-2.208 2.452-4.172 6.13-4.417 9.808v.49c0 .982.49 1.227 1.227 1.227h.736c1.473-.245 1.963-.245 2.7-.245 7.852 0 14.969 6.13 14.969 15.693C105 87.398 99.11 95 88.804 95c-10.062 0-18.65-7.356-18.65-22.069zm-45.153 0c0-9.318 2.454-17.9 6.135-24.03 4.172-7.357 10.798-12.752 16.932-16.92.982-.736 1.964-.981 3.19-.981 2.21 0 4.418 1.226 5.645 2.943.49 1.226.981 2.452.981 3.923 0 1.962-.736 3.923-2.454 5.15-3.926 2.451-7.852 5.64-10.797 8.827-2.209 2.452-4.172 6.13-4.417 9.808v.49c0 .982.49 1.227 1.227 1.227h.736c1.472-.245 1.963-.245 2.7-.245 7.852 0 14.969 6.13 14.969 15.693C59.847 87.398 53.957 95 43.65 95 33.59 95 25 87.644 25 72.931z" fill="#FFF"/></g></svg>