<svg viewBox="0 0 488 390" fill="none" xmlns="http://www.w3.org/2000/svg"><path opacity=".16" fill-rule="evenodd" clip-rule="evenodd" d="M211.095 21.669C269.748 8.57 333.093 31.722 374.116 72.384c44.757 44.363 66.676 105.541 54.602 164.991-12.666 62.366-53.381 121.717-117.588 145.137-60.404 22.034-123.259-8.952-181.092-36.187C74.795 320.31 1.525 292.996.018 236.003c-1.455-55.037 84.039-66.988 124.251-107.822 34.082-34.607 37.453-95.486 86.826-106.512Z" fill="#5048C7"/><path clip-rule="evenodd" d="M274.439 370.311c-59.06 13.17-122.845-10.107-164.153-50.987-45.068-44.602-67.14-106.109-54.981-165.879 12.754-62.7 53.752-122.37 118.404-145.917 60.824-22.152 124.115 9 182.35 36.382 55.626 26.155 129.405 53.616 130.923 110.915 1.465 55.333-84.623 67.348-125.114 108.401-34.319 34.794-37.713 96-87.429 107.085Z" stroke="url(#bubble-shape-3)"/><defs><linearGradient id="bubble-shape-3" x1="487" y1="0" x2="52" y2="0" gradientUnits="userSpaceOnUse"><stop stop-color="#D6D4FF"/><stop offset="1" stop-color="#F3E6FF"/></linearGradient></defs></svg>
