<svg viewBox="0 0 474 418" fill="none" xmlns="http://www.w3.org/2000/svg"><path opacity=".16" fill-rule="evenodd" clip-rule="evenodd" d="M209.671 13.817C308.914 6.303 438.014-5.01 468.86 89.935c30.876 95.039-84.098 156.246-164.541 215.213-81.533 59.766-175.242 152.953-257.44 94.11-82.96-59.389-38.462-183.32 1.302-277.471 27.905-66.069 90.178-102.57 161.49-107.97Z" fill="#5048C7"/><path clip-rule="evenodd" d="M256.062 341.937c-83.749 6.338-192.694 15.88-218.724-64.208-26.056-80.167 70.969-131.796 138.853-181.536 68.804-50.414 147.883-129.019 217.248-79.384 70.009 50.096 32.458 154.635-1.098 234.053-23.548 55.73-76.1 86.52-136.279 91.075Z" stroke="url(#bubble-shape-1)"/><defs><linearGradient id="bubble-shape-1" x1="433" y1="1" x2="33" y2="1" gradientUnits="userSpaceOnUse"><stop stop-color="#D6D4FF"/><stop offset="1" stop-color="#F3E6FF"/></linearGradient></defs></svg>
