<svg viewBox="0 0 501 428" fill="none" xmlns="http://www.w3.org/2000/svg"><path opacity=".16" fill-rule="evenodd" clip-rule="evenodd" d="M268.425 422.591c-63.71 2.563-132.249 18.796-180.471-21.267-58-48.187-107.524-126.514-80.256-195.348 26.079-65.83 124.117-52.936 190.488-82.914 64.85-29.291 117.3-112.095 183.644-86.072 66.869 26.228 60.99 117.054 70.61 185.799 8.075 57.709 18.613 121.121-21.558 164.739-38.685 42.004-104.113 32.716-162.457 35.063Z" fill="#5048C7"/><path clip-rule="evenodd" d="M236.212 31.382c46.759-14.57 94.379-40.257 138.132-20.077 52.625 24.27 104.962 72.62 98.434 129.182-6.243 54.094-81.548 64.004-124.823 99.472-42.283 34.654-64.713 106.602-119.117 100.457-54.834-6.193-68.553-74.843-89.376-124.006-17.48-41.27-37.922-86.289-16.801-126.68 20.34-38.9 70.732-45.006 113.551-58.348Z" stroke="url(#bubble-shape-2)"/><defs><linearGradient id="bubble-shape-2" x1="171.835" y1="359.663" x2="513.124" y2="268.215" gradientUnits="userSpaceOnUse"><stop stop-color="#D6D4FF"/><stop offset="1" stop-color="#F3E6FF"/></linearGradient></defs></svg>
