<svg viewBox="0 0 400 418" fill="none" xmlns="http://www.w3.org/2000/svg"><path opacity=".16" fill-rule="evenodd" clip-rule="evenodd" d="M184.241 39.777c56.702-17.025 119.508-60.049 168.687-27.089 50.081 33.564 51.471 109.057 42.591 168.687-7.752 52.054-51.226 85.74-86.32 124.958-38.644 43.187-67.097 114.415-124.958 111.154-57.848-3.261-78.223-77.144-111.624-124.488-24.854-35.228-59.369-68.737-54.952-111.624 4.197-40.765 44.57-64.239 75.794-90.781 27.468-23.35 56.254-40.45 90.782-50.817Z" fill="#695FF6"/><path clip-rule="evenodd" d="M300.804 150.717c13.555 45.072 47.809 94.996 21.568 134.089-26.723 39.809-86.827 40.913-134.303 33.855-41.443-6.162-68.262-40.72-99.487-68.615C54.198 219.327-2.51 196.71.086 150.717c2.596-45.983 61.42-62.18 99.112-88.73 28.048-19.756 54.726-47.191 88.871-43.68 32.456 3.336 51.145 35.428 72.277 60.248 18.59 21.834 32.204 44.716 40.458 72.162Z" stroke="url(#bubble-shape-5)"/><defs><linearGradient id="bubble-shape-5" x1="0" y1="18" x2="0" y2="322" gradientUnits="userSpaceOnUse"><stop stop-color="#D6D4FF"/><stop offset="1" stop-color="#F3E6FF"/></linearGradient></defs></svg>
