<svg viewBox="0 0 458 397" fill="none" xmlns="http://www.w3.org/2000/svg"><path opacity=".16" fill-rule="evenodd" clip-rule="evenodd" d="M297.758 13.635c76.484 7.248 112.901 77.913 141.605 135.687 18.606 37.45-6.698 74.801-17.447 114.213-10.933 40.086-3.039 87.349-44.108 111.484-47.854 28.122-110.747 25.436-167.91 13.112-79.719-17.188-180.687-29.712-204.883-93.485-24.83-65.444 47.8-124.429 102.342-176.786C159.305 67.994 217.669 6.046 297.758 13.635Z" fill="#5048C7"/><path clip-rule="evenodd" d="M189.952 344.431c-68.595-6.493-101.256-69.797-127-121.553-16.686-33.549 6.008-67.009 15.648-102.316 9.805-35.91 2.726-78.25 39.558-99.87C161.077-4.501 217.484-2.095 268.75 8.945c71.497 15.397 162.052 26.617 183.752 83.748 22.269 58.626-42.869 111.467-91.786 158.37-46.59 44.671-98.934 100.167-170.764 93.368Z" stroke="url(#bubble-shape-4)"/><defs><linearGradient id="bubble-shape-4" x1="457" y1="1" x2="57" y2="1" gradientUnits="userSpaceOnUse"><stop stop-color="#D6D4FF"/><stop offset="1" stop-color="#F3E6FF"/></linearGradient></defs></svg>
