<svg width="20" height="10" viewBox="0 0 20 10" fill="none" xmlns="http://www.w3.org/2000/svg">
  <path d="M0.781 4.21875H17.326L14.586 1.49075C14.5133 1.41839 14.4556 1.33243 14.4161 1.23776C14.3767 1.14309 14.3562 1.04158 14.356 0.939019C14.3558 0.836457 14.3757 0.734854 14.4148 0.640009C14.4538 0.545165 14.5111 0.458938 14.5835 0.386252C14.6559 0.313565 14.7418 0.255842 14.8365 0.216379C14.9312 0.176915 15.0327 0.156484 15.1352 0.156252C15.2378 0.15602 15.3394 0.175992 15.4342 0.215026C15.5291 0.25406 15.6153 0.311393 15.688 0.383751L19.77 4.44575C19.8429 4.51823 19.9007 4.6054 19.9401 4.70031C19.9796 4.79521 19.9999 4.89697 19.9999 4.99975C19.9999 5.10253 19.9796 5.2043 19.9401 5.2992C19.9007 5.3941 19.8429 5.48027 19.77 5.55275L15.688 9.61575C15.6153 9.68811 15.5291 9.74544 15.4342 9.78448C15.3394 9.82351 15.2378 9.84348 15.1352 9.84325C15.0327 9.84302 14.9312 9.82259 14.8365 9.78312C14.7418 9.74366 14.6559 9.68594 14.5835 9.61325C14.5111 9.54057 14.4538 9.45434 14.4148 9.35949C14.3757 9.26465 14.3558 9.16305 14.356 9.06048C14.3562 8.95792 14.3767 8.85641 14.4161 8.76174C14.4556 8.66708 14.5133 8.58111 14.586 8.50875L17.326 5.78075H0.781C0.678438 5.78075 0.57688 5.76055 0.482124 5.7213C0.387369 5.68205 0.301272 5.62452 0.22875 5.552C0.156227 5.47948 0.098699 5.39338 0.0594501 5.29863C0.0202012 5.20387 0 5.10231 0 4.99975C0 4.89719 0.0202012 4.79563 0.0594501 4.70088C0.098699 4.60612 0.156227 4.52002 0.22875 4.4475C0.301272 4.37498 0.387369 4.31745 0.482124 4.2782C0.57688 4.23895 0.678438 4.21875 0.781 4.21875Z" fill="#585769"></path>
</svg>
