<svg width="67" height="30" fill="none" xmlns="http://www.w3.org/2000/svg"><g clip-path="url(#a)"><path d="M19.829 16.968a4.95 4.95 0 0 0-1.653-1.062c-.945-.352-1.18-.352-3.658-.352h-4.132v10.015h3.659c3.423 0 3.895-.118 5.075-.825 1.18-.706 2.006-2.357 2.006-4.125 0-1.532-.471-2.826-1.297-3.651Zm-.826-12.726c-.473-.472-1.063-.825-1.653-.943-.826-.235-1.299-.235-3.659-.235h-3.305v9.19H14.4c1.652 0 2.95-.235 3.777-.589 1.298-.589 2.125-2.121 2.125-4.006 0-1.414-.472-2.593-1.3-3.418m7.319 21.091c-.473.943-1.299 1.768-2.242 2.358-1.063.589-2.125.942-3.305 1.06H0v-3.063h2.36c.709 0 1.181 0 1.535-.118.236-.118.472-.354.59-.589.117-.354.236-.59.236-.942V4.83c0-.354-.119-.59-.236-.942-.354-.59-.826-.825-2.125-.825H0V0h16.76c3.069.117 5.311.708 7.2 2.002 1.77 1.297 2.714 3.064 2.714 5.303 0 1.885-.59 3.418-2.006 4.595-1.063.944-1.77 1.296-3.66 1.886 2.007.472 2.48.707 3.66 1.413 1.77 1.063 2.832 3.301 2.832 5.894-.117 1.53-.473 2.945-1.18 4.24Zm2.552 3.418v-3.14h2.706c.737 0 1.107 0 1.475-.121.246-.12.37-.363.492-.604s.246-.604.246-.966V10.512H28.75V7.616c4.057 0 5.41-.846 6.394-3.865h3.811v20.17c0 .242.123.603.246.965.245.604.738.725 2.09.725h2.459v3.139H28.872Zm36.903-4.384C65.3 28.082 63.045 30 59.484 30c-2.019 0-3.681-.6-7.48-2.398-1.068-.6-1.78-.718-2.255-.718-1.188 0-1.9.718-1.9 2.037v.6H45v-.96c0-1.557.237-2.876.831-4.315.95-2.397 2.493-3.955 6.054-5.633 1.544-.838 2.731-1.318 3.325-1.678.95-.48 1.663-1.079 2.374-1.679.831-.837 1.425-2.276 1.425-3.475 0-2.877-2.019-4.675-5.462-4.675-2.85 0-4.51 1.079-5.104 3.357.593-.6.95-.72 1.425-.72 1.542 0 2.73 1.198 2.73 2.997 0 2.037-1.306 3.356-3.206 3.356-2.375 0-4.037-1.799-4.037-4.555 0-2.037.95-4.075 2.613-5.394C49.75 4.47 51.885 3.75 55.09 3.75c5.935 0 9.853 3.356 9.853 8.27 0 4.075-2.255 6.354-7.717 7.913-5.104 1.437-5.58 1.557-7.36 2.994-.83.72-1.187 1.2-1.543 2.518 1.306-1.079 2.137-1.438 3.917-1.438.475 0 1.069 0 1.544.12l3.563.6c.83.12 1.542.24 2.255.24 2.73 0 3.917-1.2 4.036-4.436h2.611c-.237 1.918-.237 2.517-.475 3.835Z" fill="#fff"/></g><defs><clipPath id="a"><path fill="#fff" d="M0 0h66.25v30H0z"/></clipPath></defs></svg>
