<svg fill="none" xmlns="http://www.w3.org/2000/svg" width="20" height="20" viewBox="0 0 17 20"><path d="M15.5 0H1.333C.833 0 .5.333.5.833v18.334c0 .5.333.833.833.833H15.5c.5 0 .833-.333.833-.833V.833C16.333.333 16 0 15.5 0Zm-10 16.667c0 .5-.333.833-.833.833h-.834c-.5 0-.833-.333-.833-.833v-.834c0-.5.333-.833.833-.833h.834c.5 0 .833.333.833.833v.834Zm0-4.167c0 .5-.333.833-.833.833h-.834C3.333 13.333 3 13 3 12.5v-.833c0-.5.333-.834.833-.834h.834c.5 0 .833.334.833.834v.833Zm0-4.167c0 .5-.333.834-.833.834h-.834c-.5 0-.833-.334-.833-.834V7.5c0-.5.333-.833.833-.833h.834c.5 0 .833.333.833.833v.833Zm4.167 8.334c0 .5-.334.833-.834.833H8c-.5 0-.833-.333-.833-.833v-.834c0-.5.333-.833.833-.833h.833c.5 0 .834.333.834.833v.834Zm0-4.167c0 .5-.334.833-.834.833H8c-.5 0-.833-.333-.833-.833v-.833c0-.5.333-.834.833-.834h.833c.5 0 .834.334.834.834v.833Zm0-4.167c0 .5-.334.834-.834.834H8c-.5 0-.833-.334-.833-.834V7.5c0-.5.333-.833.833-.833h.833c.5 0 .834.333.834.833v.833Zm4.166 8.334c0 .5-.333.833-.833.833h-.833c-.5 0-.834-.333-.834-.833v-5c0-.5.334-.834.834-.834H13c.5 0 .833.334.833.834v5Zm0-8.334c0 .5-.333.834-.833.834h-.833c-.5 0-.834-.334-.834-.834V7.5c0-.5.334-.833.834-.833H13c.5 0 .833.333.833.833v.833Zm0-4.166c0 .5-.333.833-.833.833H3.833C3.333 5 3 4.667 3 4.167v-.834c0-.5.333-.833.833-.833H13c.5 0 .833.333.833.833v.834Z" fill="#5048C7"/></svg>
