<svg width="104" height="104" viewBox="0 0 104 104" fill="none" xmlns="http://www.w3.org/2000/svg">
<rect x="0.5" y="0.5" width="103" height="103" rx="51.5" fill="white"/>
<path d="M61.375 48.25C61.002 48.25 60.6444 48.1018 60.3806 47.8381C60.1169 47.5744 59.9688 47.2167 59.9688 46.8438C59.9688 46.0978 59.6724 45.3825 59.145 44.855C58.6175 44.3276 57.9022 44.0312 57.1562 44.0312C56.7833 44.0312 56.4256 43.8831 56.1619 43.6194C55.8982 43.3556 55.75 42.998 55.75 42.625C55.75 42.252 55.8982 41.8944 56.1619 41.6306C56.4256 41.3669 56.7833 41.2188 57.1562 41.2188C57.9022 41.2188 58.6175 40.9224 59.145 40.395C59.6724 39.8675 59.9688 39.1522 59.9688 38.4062C59.9688 38.0333 60.1169 37.6756 60.3806 37.4119C60.6444 37.1482 61.002 37 61.375 37C61.748 37 62.1056 37.1482 62.3694 37.4119C62.6331 37.6756 62.7812 38.0333 62.7812 38.4062C62.7812 39.1522 63.0776 39.8675 63.605 40.395C64.1325 40.9224 64.8478 41.2188 65.5938 41.2188C65.9667 41.2188 66.3244 41.3669 66.5881 41.6306C66.8518 41.8944 67 42.252 67 42.625C67 42.998 66.8518 43.3556 66.5881 43.6194C66.3244 43.8831 65.9667 44.0312 65.5938 44.0312C64.8478 44.0312 64.1325 44.3276 63.605 44.855C63.0776 45.3825 62.7812 46.0978 62.7812 46.8438C62.7812 47.2167 62.6331 47.5744 62.3694 47.8381C62.1056 48.1018 61.748 48.25 61.375 48.25Z" fill="#5048C7"/>
<path d="M48.25 67C47.7527 67 47.2758 66.8025 46.9242 66.4508C46.5725 66.0992 46.375 65.6223 46.375 65.125C46.375 63.1359 45.5848 61.2282 44.1783 59.8217C42.7718 58.4152 40.8641 57.625 38.875 57.625C38.3777 57.625 37.9008 57.4275 37.5492 57.0758C37.1975 56.7242 37 56.2473 37 55.75C37 55.2527 37.1975 54.7758 37.5492 54.4242C37.9008 54.0725 38.3777 53.875 38.875 53.875C40.8641 53.875 42.7718 53.0848 44.1783 51.6783C45.5848 50.2718 46.375 48.3641 46.375 46.375C46.375 45.8777 46.5725 45.4008 46.9242 45.0492C47.2758 44.6975 47.7527 44.5 48.25 44.5C48.7473 44.5 49.2242 44.6975 49.5758 45.0492C49.9275 45.4008 50.125 45.8777 50.125 46.375C50.125 48.3641 50.9152 50.2718 52.3217 51.6783C53.7282 53.0848 55.6359 53.875 57.625 53.875C58.1223 53.875 58.5992 54.0725 58.9508 54.4242C59.3025 54.7758 59.5 55.2527 59.5 55.75C59.5 56.2473 59.3025 56.7242 58.9508 57.0758C58.5992 57.4275 58.1223 57.625 57.625 57.625C55.6359 57.625 53.7282 58.4152 52.3217 59.8217C50.9152 61.2282 50.125 63.1359 50.125 65.125C50.125 65.6223 49.9275 66.0992 49.5758 66.4508C49.2242 66.8025 48.7473 67 48.25 67Z" fill="#5048C7"/>
<rect x="0.5" y="0.5" width="103" height="103" rx="51.5" stroke="#D7D7DE"/>
</svg>
