<svg width="20" height="20" viewBox="0 0 20 20" fill="none" xmlns="http://www.w3.org/2000/svg">
<g clip-path="url(#clip0_18_2)">
<path d="M16.25 7.5C16.0014 7.5 15.7629 7.40123 15.5871 7.22541C15.4112 7.0496 15.3125 6.81114 15.3125 6.5625C15.3125 6.06523 15.115 5.5883 14.7634 5.23668C14.4118 4.88505 13.9347 4.6875 13.4375 4.6875C13.1889 4.6875 12.9504 4.58872 12.7746 4.41291C12.5987 4.2371 12.5 3.99864 12.5 3.75C12.5 3.50136 12.5987 3.2629 12.7746 3.08709C12.9504 2.91128 13.1889 2.8125 13.4375 2.8125C13.9347 2.8125 14.4118 2.61495 14.7634 2.26333C15.115 1.9117 15.3125 1.43477 15.3125 0.9375C15.3125 0.68886 15.4112 0.450402 15.5871 0.274587C15.7629 0.098772 16.0014 0 16.25 0C16.4986 0 16.7371 0.098772 16.9129 0.274587C17.0888 0.450402 17.1875 0.68886 17.1875 0.9375C17.1875 1.43477 17.385 1.9117 17.7366 2.26333C18.0882 2.61495 18.5653 2.8125 19.0625 2.8125C19.3111 2.8125 19.5496 2.91128 19.7254 3.08709C19.9013 3.2629 20 3.50136 20 3.75C20 3.99864 19.9013 4.2371 19.7254 4.41291C19.5496 4.58872 19.3111 4.6875 19.0625 4.6875C18.5653 4.6875 18.0882 4.88505 17.7366 5.23668C17.385 5.5883 17.1875 6.06523 17.1875 6.5625C17.1875 6.81114 17.0888 7.0496 16.9129 7.22541C16.7371 7.40123 16.4986 7.5 16.25 7.5Z" fill="#5048C7"/>
<path d="M7.5 20C7.16848 20 6.85054 19.8682 6.61611 19.6339C6.3817 19.3995 6.25 19.0815 6.25 18.75C6.25 17.4239 5.72321 16.1521 4.78554 15.2145C3.84785 14.2768 2.57609 13.75 1.25 13.75C0.91848 13.75 0.600537 13.6182 0.366116 13.3839C0.131696 13.1495 0 12.8315 0 12.5C0 12.1685 0.131696 11.8505 0.366116 11.6161C0.600537 11.3817 0.91848 11.25 1.25 11.25C2.57609 11.25 3.84785 10.7232 4.78554 9.78554C5.72321 8.84785 6.25 7.57609 6.25 6.25C6.25 5.91848 6.3817 5.60054 6.61611 5.36611C6.85054 5.1317 7.16848 5 7.5 5C7.83152 5 8.14946 5.1317 8.38389 5.36611C8.6183 5.60054 8.75 5.91848 8.75 6.25C8.75 7.57609 9.27679 8.84785 10.2145 9.78554C11.1521 10.7232 12.4239 11.25 13.75 11.25C14.0815 11.25 14.3995 11.3817 14.6339 11.6161C14.8682 11.8505 15 12.1685 15 12.5C15 12.8315 14.8682 13.1495 14.6339 13.3839C14.3995 13.6182 14.0815 13.75 13.75 13.75C12.4239 13.75 11.1521 14.2768 10.2145 15.2145C9.27679 16.1521 8.75 17.4239 8.75 18.75C8.75 19.0815 8.6183 19.3995 8.38389 19.6339C8.14946 19.8682 7.83152 20 7.5 20Z" fill="#5048C7"/>
</g>
<defs>
<clipPath id="clip0_18_2">
<rect width="20" height="20" fill="white"/>
</clipPath>
</defs>
</svg>
