<svg width="20" height="20" viewBox="0 0 20 20" fill="none" xmlns="http://www.w3.org/2000/svg"><g clip-path="url(#a)"><path d="M14.513 19.13a4.292 4.292 0 0 1-4.288-4.287v-3.628a.296.296 0 0 0-.012-.058.989.989 0 1 0-.636 0 .298.298 0 0 0-.012.058v3.628a4.288 4.288 0 0 1-8.575 0c.001-.16.012-.32.033-.479a3.605 3.605 0 0 0 2.275.809h1.05a.99.99 0 1 0 0-.66h-1.05a2.957 2.957 0 0 1-2.2-.983.335.335 0 0 0-.098-.11 2.956 2.956 0 0 1 .248-4.016 4.592 4.592 0 0 0 2.737 1.135 1.979 1.979 0 0 0 1.952 1.665.33.33 0 0 0 0-.66 1.318 1.318 0 0 1-.933-2.252.33.33 0 0 0-.466-.466c-.288.286-.48.655-.548 1.055a3.957 3.957 0 1 1 .678-7.883.325.325 0 0 0 .306-.15.332.332 0 0 0 .055-.112 2.304 2.304 0 0 1 4.536.574v.659a2.313 2.313 0 0 1-2.308 2.308h-1.05a.99.99 0 1 0 0 .66h1.05a2.969 2.969 0 0 0 2.638-1.614 2.969 2.969 0 0 0 2.639 1.614h1.05a.99.99 0 1 0 0-.66h-1.05a2.313 2.313 0 0 1-2.309-2.308v-.66a2.31 2.31 0 0 1 4.546-.561.328.328 0 0 0 .352.249A3.957 3.957 0 1 1 15.8 9.88a1.97 1.97 0 0 0-.548-1.056.33.33 0 0 0-.48-.014.33.33 0 0 0 .013.48 1.319 1.319 0 0 1-.933 2.254.332.332 0 0 0-.354.33.33.33 0 0 0 .354.33 1.979 1.979 0 0 0 1.951-1.665 4.592 4.592 0 0 0 2.739-1.135 2.955 2.955 0 0 1 .247 4.018.336.336 0 0 0-.099.108 2.956 2.956 0 0 1-2.2.983h-1.05a.99.99 0 1 0 0 .66h1.051c.829 0 1.632-.286 2.276-.808.02.159.031.318.033.478a4.293 4.293 0 0 1-4.288 4.287Z" fill="#5048C7"/></g><defs><clipPath id="a"><path fill="#fff" d="M0 0h20v19.13H0z"/></clipPath></defs></svg>
