<svg width="28" height="28" viewBox="0 0 28 28" fill="none" xmlns="http://www.w3.org/2000/svg">
<path d="M26.25 24.5L1.75 24.5C0.783502 24.5 0 25.2835 0 26.25C0 27.2165 0.783502 28 1.75 28L26.25 28C27.2165 28 28 27.2165 28 26.25C28 25.2835 27.2165 24.5 26.25 24.5Z" fill="#5048C7"/>
<path fill-rule="evenodd" clip-rule="evenodd" d="M18.5203 7.875C23.1807 9.72895 26.2423 14.2343 26.25 19.25V21L1.75 21L1.75 19.25C1.7577 14.2343 4.81926 9.72895 9.47975 7.875C9.00725 7.08053 8.75533 6.17435 8.75 5.25C8.75 2.35051 11.1005 0 14 0C16.8995 0 19.25 2.35051 19.25 5.25C19.2447 6.17435 18.9927 7.08053 18.5203 7.875ZM14 3.5C13.0335 3.5 12.25 4.2835 12.25 5.25C12.25 6.2165 13.0335 7 14 7C14.9665 7 15.75 6.2165 15.75 5.25C15.75 4.2835 14.9665 3.5 14 3.5Z" fill="#5048C7"/>
</svg>
