<svg width="20" height="20" viewBox="0 0 20 20" fill="none" xmlns="http://www.w3.org/2000/svg"><g clip-path="url(#a)" fill="#5048C7"><path d="M10 0 3.75 7.5H7.5v11.25C7.5 19.5 8 20 8.75 20h2.5c.75 0 1.25-.5 1.25-1.25V7.5h3.75L10 0ZM3.75 13.75h-2.5C.5 13.75 0 14.25 0 15v3.75C0 19.5.5 20 1.25 20h2.5C4.5 20 5 19.5 5 18.75V15c0-.75-.5-1.25-1.25-1.25Z"/><path d="M18.75 10h-2.5c-.75 0-1.25.5-1.25 1.25v7.5c0 .75.5 1.25 1.25 1.25h2.5c.75 0 1.25-.5 1.25-1.25v-7.5c0-.75-.5-1.25-1.25-1.25Z"/></g><defs><clipPath id="a"><path fill="#fff" d="M0 0h20v20H0z"/></clipPath></defs></svg>
