<svg width="28" height="28" viewBox="0 0 28 28" fill="none" xmlns="http://www.w3.org/2000/svg">
<path d="M12.2442 19.25C11.7801 19.2499 11.3351 19.0654 11.007 18.7372L7.50692 15.2372C7.33977 15.0758 7.20645 14.8827 7.11474 14.6692C7.02302 14.4557 6.97474 14.226 6.97272 13.9937C6.9707 13.7613 7.01498 13.5309 7.10297 13.3158C7.19097 13.1007 7.32091 12.9053 7.48523 12.741C7.64954 12.5767 7.84493 12.4468 8.06001 12.3588C8.27508 12.2708 8.50552 12.2265 8.73789 12.2285C8.97026 12.2305 9.19989 12.2788 9.4134 12.3705C9.62691 12.4622 9.82002 12.5956 9.98145 12.7627L12.2442 15.0255L18.0071 9.26271C18.1685 9.09557 18.3616 8.96225 18.5751 8.87053C18.7886 8.77882 19.0183 8.73054 19.2506 8.72852C19.483 8.7265 19.7134 8.77078 19.9285 8.85877C20.1436 8.94676 20.339 9.07671 20.5033 9.24102C20.6676 9.40533 20.7976 9.60072 20.8855 9.81579C20.9735 10.0309 21.0178 10.2613 21.0158 10.4937C21.0138 10.726 20.9655 10.9557 20.8738 11.1692C20.7821 11.3827 20.6487 11.5758 20.4816 11.7372L13.4815 18.7372C13.1534 19.0654 12.7083 19.2499 12.2442 19.25Z" fill="#5048C7"/>
<path d="M4.20746 8.38081C4.47915 8.38081 4.7471 8.31756 4.9901 8.19606C5.2331 8.07456 5.44447 7.89815 5.60748 7.68081C6.15461 6.95673 6.79279 6.3062 7.50626 5.74531C7.87107 5.45825 8.1069 5.03802 8.16188 4.57708C8.21685 4.11614 8.08646 3.65224 7.79939 3.28743C7.51232 2.92263 7.09209 2.6868 6.63114 2.63183C6.1702 2.57686 5.70629 2.70725 5.34148 2.99431C4.39095 3.74352 3.54049 4.61161 2.81094 5.57731C2.61594 5.83731 2.4972 6.14647 2.46801 6.47015C2.43882 6.79383 2.50035 7.11925 2.64569 7.40993C2.79104 7.70062 3.01446 7.94509 3.29092 8.11595C3.56738 8.28681 3.88596 8.37731 4.21096 8.37731L4.20746 8.38081Z" fill="#5048C7"/>
<path d="M3.59106 15.3843C3.53074 14.9253 3.50034 14.4629 3.50006 14C3.49964 13.5548 3.5277 13.11 3.58406 12.6683C3.643 12.2079 3.51663 11.7429 3.23274 11.3757C2.94886 11.0084 2.53071 10.769 2.07028 10.71C1.60986 10.6511 1.14488 10.7775 0.777633 11.0613C0.410385 11.3452 0.170952 11.7634 0.112007 12.2238C-0.0402092 13.4243 -0.0372684 14.6395 0.120757 15.8393C0.175912 16.26 0.382014 16.6463 0.700714 16.9263C1.01941 17.2064 1.42901 17.3611 1.85328 17.3618C1.92997 17.3618 2.00657 17.3565 2.08253 17.346C2.54271 17.2859 2.96015 17.0454 3.24305 16.6775C3.52594 16.3097 3.65112 15.8445 3.59106 15.3843Z" fill="#5048C7"/>
<path d="M5.6553 20.3579C5.5184 20.169 5.34513 20.0094 5.14567 19.8885C4.9462 19.7675 4.72457 19.6877 4.4938 19.6536C4.26303 19.6196 4.02778 19.632 3.80188 19.6902C3.57598 19.7484 3.36399 19.8511 3.17838 19.9924C2.99276 20.1337 2.83726 20.3106 2.72102 20.5129C2.60479 20.7151 2.53016 20.9386 2.50152 21.1701C2.47288 21.4016 2.49082 21.6364 2.55427 21.8609C2.61772 22.0854 2.72541 22.2949 2.87101 22.4772C3.6036 23.4401 4.4577 24.3042 5.41204 25.0479C5.77825 25.3333 6.24284 25.4616 6.70363 25.4045C7.16441 25.3474 7.58364 25.1096 7.86908 24.7434C8.15452 24.3772 8.2828 23.9126 8.2257 23.4518C8.16859 22.9911 7.93078 22.5718 7.56458 22.2864C6.84729 21.729 6.20549 21.0807 5.6553 20.3579Z" fill="#5048C7"/>
<path d="M13.9969 0C13.3312 0.000458058 12.6663 0.0472377 12.0071 0.14C11.5694 0.202342 11.1716 0.42804 10.8935 0.771733C10.6154 1.11543 10.4776 1.55164 10.508 1.99271C10.5384 2.43377 10.7346 2.847 11.0571 3.14934C11.3797 3.45168 11.8048 3.62073 12.2469 3.6225C12.3294 3.62249 12.4118 3.61723 12.4936 3.60675C12.9917 3.53651 13.494 3.50084 13.9969 3.5C16.7817 3.5 19.4525 4.60625 21.4216 6.57538C23.3908 8.54451 24.4971 11.2152 24.4971 14C24.4971 16.7848 23.3908 19.4555 21.4216 21.4246C19.4525 23.3938 16.7817 24.5 13.9969 24.5C13.494 24.4992 12.9917 24.4635 12.4936 24.3932C12.266 24.3613 12.0343 24.3745 11.8118 24.4321C11.5892 24.4897 11.3802 24.5906 11.1967 24.7289C10.826 25.0084 10.5815 25.4237 10.517 25.8834C10.485 26.111 10.4982 26.3427 10.5558 26.5652C10.6134 26.7878 10.7143 26.9968 10.8527 27.1803C11.1321 27.551 11.5474 27.7955 12.0071 27.86C12.6663 27.9528 13.3312 27.9995 13.9969 28C17.71 28 21.271 26.525 23.8965 23.8995C26.5221 21.274 27.9971 17.713 27.9971 14C27.9971 10.287 26.5221 6.72601 23.8965 4.10051C21.271 1.475 17.71 0 13.9969 0V0Z" fill="#5048C7"/>
</svg>
