<svg width="20" height="20" viewBox="0 0 20 20" fill="none" xmlns="http://www.w3.org/2000/svg"><g clip-path="url(#a)" stroke="#5048C7" stroke-width="1.892" stroke-linecap="round" stroke-linejoin="round"><path d="M13.03.91H2.123C1.45.91.909 1.451.909 2.12v7.274c0 .668.543 1.211 1.212 1.211h2.424v3.637l3.637-3.637h4.848c.67 0 1.214-.542 1.214-1.211V2.12c0-.67-.544-1.212-1.213-1.212Z"/><path d="M8.183 15.454h3.635l3.638 3.636v-3.636h2.424c.668 0 1.21-.543 1.21-1.212V6.969c0-.668-.54-1.212-1.21-1.212h-1.214"/></g><defs><clipPath id="a"><path fill="#fff" d="M0 0h20v20H0z"/></clipPath></defs></svg>
