<svg width="24" height="24" viewBox="0 0 24 24" fill="none" xmlns="http://www.w3.org/2000/svg">
<path d="M19.5013 22.1997H1.49983C0.299988 22.1997 -0.449318 20.85 0.299988 19.8L4.49992 14.2494V5.69967C4.49992 3.15012 6.45002 1.20001 9.00053 1.20001H19.5004C22.0499 1.20001 24 3.15012 24 5.69967V17.7C24 20.2496 22.0499 22.1997 19.5004 22.1997H19.5013ZM4.50087 19.1996H19.5023C20.4014 19.1996 21.0018 18.6001 21.0018 17.7V5.69967C21.0018 4.79954 20.4014 4.2001 19.5023 4.2001H9.00243C8.10231 4.2001 7.50192 4.79954 7.50192 5.69967V14.6999C7.50192 14.9996 7.35205 15.2994 7.20219 15.6L4.50183 19.1996H4.50087Z" fill="#5048C7"/>
<path fill-rule="evenodd" clip-rule="evenodd" d="M10.5012 7.2002H18.001V10.2003H10.5012V7.2002ZM10.5012 13.1994H18.001V16.1995H10.5012V13.1994Z" fill="#5048C7"/>
</svg>
