<svg width="28" height="28" viewBox="0 0 28 28" fill="none" xmlns="http://www.w3.org/2000/svg">
<path fill-rule="evenodd" clip-rule="evenodd" d="M23.8377 11.1234C24.6214 12.0039 24.9152 13.2798 24.495 14.4745C24.0748 15.6699 23.0502 16.4712 21.8924 16.6546C22.0188 17.8325 21.5195 19.0411 20.4877 19.7623C19.4559 20.4835 18.1611 20.5284 17.1159 19.9927C16.5374 21.0232 15.4328 21.709 14.1792 21.6835C12.9253 21.659 11.8486 20.93 11.3104 19.8778C10.2454 20.3716 8.95311 20.2752 7.95005 19.5135C6.94699 18.7523 6.49486 17.5249 6.66692 16.3528C5.51684 16.124 4.52418 15.2822 4.15048 14.0717C3.7772 12.8611 4.12025 11.5984 4.9375 10.7492C4.13671 9.88381 3.81848 8.61445 4.21556 7.41152C4.6122 6.20881 5.6211 5.38659 6.77535 5.18064C6.62583 4.00556 7.10171 2.7872 8.11939 2.04598C9.13665 1.30433 10.431 1.23412 11.4858 1.74915C12.0441 0.70727 13.135 0 14.3893 0C15.7367 0 16.8945 0.816936 17.4073 1.98737C18.5244 1.38486 19.9339 1.46222 20.9956 2.30107C21.9839 3.08239 22.412 4.31861 22.2172 5.48716C23.3621 5.73824 24.3382 6.60007 24.6884 7.81713C25.0387 9.03377 24.6711 10.2904 23.8377 11.1234L23.8377 11.1234ZM18.9504 7.41614L18.9145 7.3647C18.3537 7.01516 17.694 7.24622 17.2908 7.68156L13.8189 11.873L10.8341 9.82771C10.2583 9.46826 9.50342 9.64915 9.1483 10.2312L9.11243 10.3387C9.00732 10.4216 8.74603 11.3431 9.51157 12.0426L13.167 15.9237C13.4967 16.2397 13.9002 16.1864 14.2606 16.0985C14.6222 16.0139 14.9515 15.7909 15.1615 15.4462L19.3566 8.99847C19.7028 8.43223 19.5107 7.76559 18.9504 7.41609L18.9504 7.41614ZM11.0029 20.7725C11.49 21.725 12.3821 22.4291 13.4511 22.665L10.3365 27.9989L8.73583 25.1126L5.42261 25.1449L7.9872 20.7523C8.95898 21.2026 10.0582 21.2104 11.0029 20.7725V20.7725ZM17.3846 20.8988C18.376 21.4069 19.5613 21.406 20.5996 20.8963L23.0806 25.1455L19.5751 25.1071L18.1668 28L15.0479 22.6579C16.0458 22.4243 16.8906 21.7786 17.3846 20.8988L17.3846 20.8988Z" fill="#5048C7"/>
</svg>
