<svg width="28" height="28" viewBox="0 0 28 28" fill="none" xmlns="http://www.w3.org/2000/svg">
<path d="M0 0V7C0 10.6146 2.80645 14 7.24748 14C7.85011 16.3266 9.60866 18.1626 11.8828 18.8885C11.571 20.5285 10.9935 22.5826 9.91766 24.5H7V28H21V24.5H18.0823C17.0065 22.5826 16.429 20.5285 16.1172 18.8885C18.3913 18.1626 20.1499 16.3266 20.7525 14C25.1789 14 28 10.6256 28 7V0H0ZM3.5 7V3.5H7V10.5C5.07056 10.5 3.5 8.9303 3.5 7ZM24.5 7C24.5 8.9303 22.9294 10.5 21 10.5V3.5H24.5V7Z" fill="#5048C7"/>
</svg>
