<svg width="25" height="24" viewBox="0 0 25 24" fill="none" xmlns="http://www.w3.org/2000/svg">
<g clip-path="url(#clip0_1115_837)">
<path d="M3.79916 8.39933L8.89933 3.29916L6.04869 0.449606C5.9132 0.307689 5.75034 0.194726 5.56996 0.117545C5.38957 0.0403648 5.1954 0.000570143 4.9992 0.000570143C4.80299 0.000570143 4.60883 0.0403648 4.42844 0.117545C4.24805 0.194726 4.08519 0.307689 3.94971 0.449606L0.949606 3.44971C0.807519 3.58521 0.694411 3.74813 0.617129 3.92862C0.539847 4.10911 0.5 4.30341 0.5 4.49974C0.5 4.69608 0.539847 4.89038 0.617129 5.07087C0.694411 5.25135 0.807519 5.41428 0.949606 5.54978L3.79916 8.39933ZM21.1997 15.5996L16.0996 20.6997L18.9502 23.5493C19.2491 23.8493 19.5502 23.9999 19.9997 23.9999H24.4999V19.4997C24.4999 19.0491 24.3493 18.7491 24.0493 18.4491L21.1997 15.5996ZM24.0493 6.44981L18.0491 0.449606C17.9136 0.307519 17.7507 0.194411 17.5702 0.117129C17.3897 0.0398471 17.1954 0 16.9991 0C16.8027 0 16.6084 0.0398471 16.4279 0.117129C16.2475 0.194411 16.0845 0.307519 15.949 0.449606L14.0006 2.39913L16.5512 4.94976L14.4501 7.04983L11.9005 4.4992L9.50044 6.89928L12.0511 9.44882L9.94991 11.55L7.40037 8.99935L5.00029 11.3994L7.54983 13.9501L5.44976 16.0501L2.90022 13.4995L0.949606 15.4501C0.807519 15.5856 0.694411 15.7485 0.617129 15.929C0.539847 16.1095 0.5 16.3038 0.5 16.5002C0.5 16.6965 0.539847 16.8908 0.617129 17.0713C0.694411 17.2518 0.807519 17.4147 0.949606 17.5502L6.94981 23.5504C7.54983 24.1504 8.44986 24.1504 9.04988 23.5504L24.0504 8.54988C24.1925 8.41438 24.3056 8.25146 24.3829 8.07097C24.4602 7.89048 24.5 7.69618 24.5 7.49985C24.5 7.30351 24.4602 7.10921 24.3829 6.92872C24.3056 6.74824 24.1925 6.58531 24.0504 6.44981H24.0493Z" fill="#5048C7"/>
</g>
<defs>
<clipPath id="clip0_1115_837">
<rect width="24" height="24" fill="white" transform="translate(0.5)"/>
</clipPath>
</defs>
</svg>
