<svg width="24" height="24" viewBox="0 0 24 24" fill="none" xmlns="http://www.w3.org/2000/svg"><path fill-rule="evenodd" clip-rule="evenodd" d="M19.2 7.5H22.5C23.4 7.5 24 8.1 24 9V22.5C24 23.4 23.4 24 22.5 24H9C8.1 24 7.5 23.4 7.5 22.5V19.2C3.15 18.15 0 14.4 0 9.75C0 4.35 4.35 0 9.75 0C14.25 0 18.15 3.15 19.2 7.5ZM9.75 3C6 3 3 6 3 9.75C3 12.75 4.95 15.15 7.5 16.05V9C7.5 8.1 8.1 7.5 9 7.5H16.05C15.15 4.95 12.75 3 9.75 3ZM16.35 10.5C16.05 13.65 13.5 16.05 10.5 16.35V10.5H16.35ZM10.5 21H21V10.5H19.5C19.05 15.3 15.3 19.2 10.5 19.5V21Z" fill="#695FF6"/></svg>
