<svg fill="none" viewBox="0 0 24 24"><path fill="#5048C7" fill-rule="evenodd" d="M21.75 18.75V5.25H2.25v13.5h19.5ZM1.6 21h20.8c.883 0 1.6-.672 1.6-1.5v-15c0-.828-.717-1.5-1.6-1.5H1.6C.717 3 0 3.672 0 4.5v15c0 .828.717 1.5 1.6 1.5Z" clip-rule="evenodd"/><path fill="#5048C7" fill-rule="evenodd" d="M.676 3.734a1.125 1.125 0 0 1 1.59-.058L12 12.715l9.735-9.04a1.125 1.125 0 1 1 1.53 1.65l-10.5 9.75c-.431.4-1.099.4-1.53 0l-10.5-9.75a1.125 1.125 0 0 1-.06-1.59Z" clip-rule="evenodd"/><path fill="#5048C7" fill-rule="evenodd" d="M8.203 11.121c.485.389.564 1.097.175 1.582l-6 7.5a1.125 1.125 0 1 1-1.756-1.406l6-7.5a1.125 1.125 0 0 1 1.58-.176ZM15.038 10.38a1.125 1.125 0 0 1 1.583.158l6.75 8.25a1.125 1.125 0 0 1-1.742 1.424l-6.75-8.25a1.125 1.125 0 0 1 .159-1.583Z" clip-rule="evenodd"/></svg>
