<svg width="94" height="94" viewBox="0 0 104 104" fill="none" xmlns="http://www.w3.org/2000/svg"><rect x=".5" y=".5" width="93" height="93" rx="46.5" fill="#fff"/><path fill-rule="evenodd" clip-rule="evenodd" d="M37.449 40.862c-1.375 2.285-2.139 5.2-1.486 8.428a1.875 1.875 0 1 1-3.676.743c-.864-4.272.161-8.135 1.949-11.105 1.76-2.923 4.344-5.121 6.821-5.997 1.233-.435 2.648-.611 3.947-.117 1.408.536 2.322 1.72 2.674 3.242.332 1.438.178 3.184-.372 5.178-.446 1.616-1.18 3.488-2.242 5.635.341-.215.691-.457 1.037-.722.875-.67 1.748-1.24 2.545-1.65.709-.363 1.651-.756 2.563-.714.515.023 1.247.202 1.791.853.53.633.592 1.37.55 1.873-.076.934-.575 1.964-1.196 2.981-.213.349-.392.654-.54.919.261-.053.56-.12.898-.208 1.534-.394 3.715-1.126 6.74-2.29a1.875 1.875 0 0 1 1.346 3.5c-3.068 1.181-5.408 1.973-7.152 2.422-.871.224-1.64.375-2.305.437-.635.059-1.334.054-1.977-.162-.735-.248-1.412-.788-1.702-1.667-.245-.744-.116-1.457.018-1.929.112-.393.284-.808.49-1.228a16.22 16.22 0 0 1-2.316 1.443c-.797.403-1.68.746-2.501.845-.409.05-.954.058-1.506-.141a2.435 2.435 0 0 1-1.47-1.437c-.246-.651-.182-1.29-.068-1.766.118-.492.333-.99.596-1.48 1.45-2.696 2.326-4.846 2.786-6.512.468-1.693.468-2.75.333-3.335-.113-.491-.284-.556-.35-.58l-.004-.002c-.17-.065-.607-.12-1.363.148-1.503.531-3.455 2.064-4.858 4.395Zm13.82 10.754s0-.006.003-.017a.098.098 0 0 1-.002.017Zm-8.405-3.764h.012a.08.08 0 0 1-.012 0Zm1.09 1.259ZM32 60.125c0-1.035.84-1.875 1.875-1.875h26.25a1.875 1.875 0 0 1 0 3.75h-26.25A1.875 1.875 0 0 1 32 60.125Z" fill="#5048C7"/><rect x=".5" y=".5" width="93" height="93" rx="46.5" stroke="#D7D7DE"/></svg>
