<svg width="20" height="20" viewBox="0 0 20 20" fill="none" xmlns="http://www.w3.org/2000/svg">
<g clip-path="url(#clip0_18_5)">
<path d="M4.58338 5.83333C5.35693 5.83333 6.0988 5.52604 6.64578 4.97906C7.19276 4.43208 7.50005 3.69021 7.50005 2.91667C7.50005 2.14312 7.19276 1.40125 6.64578 0.854272C6.0988 0.307291 5.35693 0 4.58338 0C3.80983 0 3.06797 0.307291 2.52099 0.854272C1.97401 1.40125 1.66672 2.14312 1.66672 2.91667C1.66672 3.69021 1.97401 4.43208 2.52099 4.97906C3.06797 5.52604 3.80983 5.83333 4.58338 5.83333ZM15.4167 5.83333C16.1903 5.83333 16.9321 5.52604 17.4791 4.97906C18.0261 4.43208 18.3334 3.69021 18.3334 2.91667C18.3334 2.14312 18.0261 1.40125 17.4791 0.854272C16.9321 0.307291 16.1903 0 15.4167 0C14.6432 0 13.9013 0.307291 13.3543 0.854272C12.8073 1.40125 12.5 2.14312 12.5 2.91667C12.5 3.69021 12.8073 4.43208 13.3543 4.97906C13.9013 5.52604 14.6432 5.83333 15.4167 5.83333ZM19.0701 7.91667C18.0245 7.10707 16.7395 6.66777 15.4171 6.66777C14.0947 6.66777 12.8098 7.10707 11.7642 7.91667C11.5748 8.07228 11.4102 8.25576 11.2759 8.46083C12.5091 8.704 13.6486 9.29026 14.5635 10.1522C15.4784 11.0142 16.1314 12.1168 16.4475 13.3333H20.0001V9.86333C20.0026 9.4896 19.9203 9.12017 19.7592 8.78293C19.598 8.4457 19.3624 8.14949 19.0701 7.91667ZM8.72422 8.45917C8.5903 8.2548 8.42589 8.07213 8.23672 7.9175C7.19765 7.09533 5.90832 6.65388 4.58338 6.66667C3.25884 6.6539 1.96986 7.09503 0.930883 7.91667C0.638478 8.14932 0.40275 8.44536 0.241499 8.78244C0.0802476 9.11953 -0.00231344 9.48884 4.93193e-05 9.8625V13.3333H3.55255C3.8685 12.1165 4.52145 11.0136 5.43633 10.1513C6.3512 9.2891 7.49084 8.70256 8.72422 8.45917ZM10 10C8.67397 10 7.4022 10.5268 6.46452 11.4645C5.52683 12.4021 5.00005 13.6739 5.00005 15C5.00005 16.3261 5.52683 17.5979 6.46452 18.5355C7.4022 19.4732 8.67397 20 10 20C11.3261 20 12.5979 19.4732 13.5356 18.5355C14.4733 17.5979 15 16.3261 15 15C15 13.6739 14.4733 12.4021 13.5356 11.4645C12.5979 10.5268 11.3261 10 10 10ZM10.8334 17.5H9.16672V12.5H10.8334V17.5Z" fill="#5048C7"/>
</g>
<defs>
<clipPath id="clip0_18_5">
<rect width="20" height="20" fill="white"/>
</clipPath>
</defs>
</svg>
