<svg width="20" height="20" viewBox="0 0 20 20" fill="none" xmlns="http://www.w3.org/2000/svg"><path fill-rule="evenodd" clip-rule="evenodd" d="M10 0C4.5 0 0 4.5 0 10s4.5 10 10 10 10-4.5 10-10S15.5 0 10 0Zm7.375 8.75H15a20.707 20.707 0 0 0-1-5.125c1.75 1.125 3 3 3.375 5.125ZM7.5 11.25c.25 3.875 1.75 6.25 2.5 6.25s2.25-2.375 2.5-6.25h-5Zm0-2.5C7.75 4.875 9.125 2.5 10 2.5s2.25 2.375 2.5 6.25h-5Zm-2.5 0c.125-1.875.5-3.625 1.125-5.125C4.25 4.75 3 6.625 2.625 8.75H5Zm-2.375 2.5H5c.125 1.875.5 3.625 1 5.125-1.75-1.125-3-3-3.375-5.125Zm12.25 0c-.125 1.875-.375 3.625-1 5.125 1.875-1.125 3.125-3 3.375-5.125h-2.375Z" fill="#5048C7"/></svg>
