<svg width="28" height="25" viewBox="0 0 28 25" fill="none" xmlns="http://www.w3.org/2000/svg">
<path d="M19.9955 4.02736e-05C18.8563 -0.00308292 17.7299 0.239137 16.6938 0.710052C15.6576 1.18097 14.7363 1.86941 13.9931 2.72807C13.2499 1.86941 12.3286 1.18097 11.2925 0.710052C10.2563 0.239137 9.12995 -0.00308292 7.99075 4.02736e-05C6.41932 0.00245983 4.88338 0.46491 3.57447 1.32972C2.26557 2.19453 1.24162 3.42342 0.630341 4.86314C0.0190576 6.30287 -0.152514 7.8897 0.137023 9.42576C0.42656 10.9618 1.16439 12.3791 2.2585 13.5009L13.2788 24.7015C13.3719 24.796 13.4831 24.8711 13.6057 24.9223C13.7284 24.9736 13.8601 25 13.9931 25C14.1266 25 14.2588 24.9734 14.3818 24.9218C14.5048 24.8702 14.6162 24.7946 14.7094 24.6995L25.3436 13.8471C26.5488 12.7739 27.3975 11.3616 27.7772 9.79767C28.1568 8.23371 28.0495 6.59192 27.4694 5.09001C26.8893 3.5881 25.8639 2.29703 24.5291 1.388C23.1943 0.478964 21.6132 -0.00508434 19.9955 4.02736e-05Z" fill="#5048C7"/>
</svg>
