<svg width="20" height="20" viewBox="0 0 20 20" fill="none" xmlns="http://www.w3.org/2000/svg">
<g clip-path="url(#clip0_23_5)">
<path d="M10.3847 16.1538C12.1188 16.1538 13.7818 15.465 15.008 14.2388C16.2342 13.0126 16.9231 11.3495 16.9231 9.61537C16.9231 7.88126 16.2342 6.21817 15.008 4.99198C13.7818 3.76578 12.1188 3.0769 10.3847 3.0769C8.65055 3.0769 6.98746 3.76578 5.76126 4.99198C4.53506 6.21817 3.84619 7.88126 3.84619 9.61537C3.84619 11.3495 4.53506 13.0126 5.76126 14.2388C6.98746 15.465 8.65055 16.1538 10.3847 16.1538Z" fill="white"/>
<path d="M0 10C0 4.5 4.5 0 10 0C15.5 0 20 4.5 20 10C20 15.5 15.5 20 10 20C4.5 20 0 15.5 0 10ZM10 11.7677L12.6515 14.4192L14.4192 12.6515L11.7677 10L14.4192 7.34846L12.6515 5.58077L10 8.23231L7.34846 5.58077L5.58077 7.34846L8.23231 10L5.58077 12.6515L7.34846 14.4192L10 11.7677Z" fill="#a19ead"/>
</g>
<defs>
<clipPath id="clip0_23_5">
<rect width="20" height="20" fill="white"/>
</clipPath>
</defs>
</svg>
