<svg width="24" height="24" viewBox="0 0 24 24" fill="none" xmlns="http://www.w3.org/2000/svg"><g clip-path="url(#a)" fill-rule="evenodd" clip-rule="evenodd" fill="#695FF6"><path d="M6.586 19.536 2 24.121-.12 22l4.585-4.585 2.122 2.121Z"/><path d="m5.964 8.843 9.194 9.193-2.561 2.56a6.5 6.5 0 1 1-9.193-9.193l2.56-2.56Zm0 4.242-.44.44a3.5 3.5 0 0 0 4.952 4.95l.439-.439-4.95-4.95ZM24.122 2l-4.586 4.585-2.121-2.121L22-.121 24.122 2Z"/><path d="M11.403 3.403a6.5 6.5 0 0 1 9.194 9.194l-2.56 2.56-9.194-9.193 2.56-2.56ZM16 4.5a3.5 3.5 0 0 0-2.475 1.026l-.44.439 4.951 4.95.44-.439A3.5 3.5 0 0 0 16 4.5ZM12.121 11l-4.12 4.121L5.878 13 10 8.879 12.121 11ZM15.121 14l-4.12 4.121L8.878 16 13 11.879 15.121 14Z"/></g><defs><clipPath id="a"><path fill="#fff" d="M0 0h24v24H0z"/></clipPath></defs></svg>
