<svg width="20" height="18" fill="none" xmlns="http://www.w3.org/2000/svg"><path d="m15.47 13.023-1.66-1.658 2.726-2.727-2.727-2.726 1.66-1.659 3.556 3.555a1.147 1.147 0 0 1 0 1.66l-3.556 3.555Zm-11.142 0L.773 9.467a1.143 1.143 0 0 1 0-1.659l3.555-3.555L5.987 5.91 3.262 8.637l2.725 2.726-1.659 1.659v.001Zm3.2 3.911c-.119 0-.237 0-.355-.117-.593-.238-.949-.83-.712-1.542l4.742-14.222c.236-.592.829-.948 1.54-.711.593.236.948.83.71 1.541l-4.74 14.222c-.237.474-.71.83-1.185.83Z" fill="#5048C7"/></svg>
