<svg fill="none" xmlns="http://www.w3.org/2000/svg" width="20" height="20" viewBox="0 0 23 20"><path d="M17.857 18.572H5V20h12.857v-1.428ZM22.737 8.89l-4.286-6.43a.715.715 0 0 0-.594-.317h-5.714V.714a.714.714 0 1 0-1.429 0v1.429H5a.715.715 0 0 0-.594.318L.12 8.889a.718.718 0 0 0-.12.397c0 2.061 1.911 4.285 5 4.285s5-2.224 5-4.285c0-.141-.042-.28-.12-.397L6.335 3.571h4.38v13.572h1.428V3.57h4.38L12.976 8.89a.719.719 0 0 0-.12.397c0 2.061 1.912 4.285 5 4.285 3.089 0 5-2.224 5-4.285 0-.141-.042-.28-.12-.397ZM7.951 8.57H2.049L5 4.145l2.95 4.426Zm6.955 0 2.951-4.426 2.95 4.426h-5.9Z" fill="#5048C7"/></svg>
