<svg width="24" height="25" viewBox="0 0 25 25" fill="none" xmlns="http://www.w3.org/2000/svg"><path d="M13.5 15.5V23a1.5 1.5 0 0 1-1.5 1.5H1.5A1.5 1.5 0 0 1 0 23v-7.5A1.5 1.5 0 0 1 1.5 14H12a1.5 1.5 0 0 1 1.5 1.5ZM24 15.5V23a1.5 1.5 0 0 1-1.5 1.5H18a1.5 1.5 0 0 1-1.5-1.5v-7.5A1.5 1.5 0 0 1 18 14h4.5a1.5 1.5 0 0 1 1.5 1.5ZM9 2v7.5A1.5 1.5 0 0 1 7.5 11h-6A1.5 1.5 0 0 1 0 9.5V2A1.5 1.5 0 0 1 1.5.5h6A1.5 1.5 0 0 1 9 2ZM24 2v7.5a1.5 1.5 0 0 1-1.5 1.5h-9A1.5 1.5 0 0 1 12 9.5V2A1.5 1.5 0 0 1 13.5.5h9A1.5 1.5 0 0 1 24 2Z" fill="#5048C7"/></svg>
