<svg width="28" height="28" viewBox="0 0 28 28" fill="none" xmlns="http://www.w3.org/2000/svg">
<path d="M18.2064 15.0139L13.7023 19.5217C12.3089 20.9159 9.86829 20.9159 8.4749 19.5217C7.0347 18.0795 7.0347 15.7338 8.4749 14.2916L12.9803 9.78497L7.75295 4.55481L3.24754 9.06263C1.15315 11.1581 0 13.944 0 16.9073C0 19.8693 1.15315 22.6551 3.24754 24.7506C5.34194 26.8462 8.12625 27.9999 11.088 27.9999C14.0485 27.9999 16.8328 26.8462 18.9272 24.7506L23.4326 20.2441L18.2064 15.0139Z" fill="#5048C7"/>
<path d="M14.722 8.04216L17.186 5.57685C17.4176 5.34511 17.547 5.03324 17.547 4.70536C17.547 4.37747 17.4176 4.06438 17.186 3.83387L13.7007 0.346685C13.2387 -0.115562 12.4206 -0.115562 11.9586 0.346685L9.49463 2.812L14.722 8.04216Z" fill="#5048C7"/>
<path d="M27.6391 14.2929L24.1538 10.8057C23.6918 10.3434 22.8737 10.3434 22.4117 10.8057L19.9478 13.271L25.1751 18.5011L27.6391 16.0358C27.8707 15.8041 28.0001 15.4922 28.0001 15.1643C28.0001 14.8365 27.8707 14.5246 27.6391 14.2929Z" fill="#5048C7"/>
</svg>
