<svg width="79" height="79" viewBox="0 0 79 79" fill="none" xmlns="http://www.w3.org/2000/svg"><rect x=".5" y=".5" width="78" height="78" rx="39" fill="#fff"/><path d="M41.4 45.138c0-.967-.424-1.887-1.18-2.487-1.158-.918-3.164-2.051-6.02-2.051-2.856 0-4.862 1.133-6.02 2.051-.756.6-1.18 1.52-1.18 2.487V47h14.4v-1.862Z" fill="#5048C7"/><circle cx="34.2" cy="35" r="4" fill="#5048C7"/><circle cx="45.4" cy="35" r="4" fill="#5048C7"/><path d="M51.42 42.651c-1.157-.918-3.163-2.051-6.02-2.051-.897 0-1.7.12-2.43.302a6.326 6.326 0 0 1 1.63 4.236V47h8v-1.862c0-.967-.423-1.887-1.18-2.487Z" fill="#5048C7"/><rect x=".5" y=".5" width="78" height="78" rx="39" stroke="#D7D7DE"/></svg>
