<svg width="25" height="24" viewBox="0 0 25 24" fill="none" xmlns="http://www.w3.org/2000/svg">
<g clip-path="url(#clip0_1115_193)">
<path d="M24.2077 0.297462C24.1081 0.197043 23.9885 0.118764 23.8565 0.0677357C23.7246 0.0167069 23.5834 -0.00592497 23.4422 0.00132044C9.33817 0.737286 4.12828 13.3013 4.07782 13.4275C4.00434 13.6103 3.98617 13.8106 4.02556 14.0037C4.06495 14.1967 4.16016 14.3739 4.29938 14.5133L9.98748 20.2014C10.2727 20.4866 10.7037 20.5744 11.0777 20.4208C11.2039 20.3692 23.6999 15.1012 24.4984 1.06304C24.5064 0.922184 24.4846 0.781227 24.4345 0.649331C24.3844 0.517434 24.3072 0.397549 24.2077 0.297462ZM15.997 11.3468C15.62 11.724 15.1086 11.9359 14.5753 11.936C14.0421 11.9361 13.5306 11.7244 13.1535 11.3474C12.7763 10.9704 12.5644 10.459 12.5643 9.92573C12.5642 9.39247 12.7759 8.881 13.1529 8.50386C13.3396 8.31712 13.5612 8.16897 13.8051 8.06788C14.0491 7.96679 14.3105 7.91473 14.5745 7.91468C14.8386 7.91463 15.1001 7.96658 15.344 8.06758C15.588 8.16858 15.8097 8.31664 15.9964 8.50331C16.1832 8.68998 16.3313 8.91161 16.4324 9.15553C16.5335 9.39946 16.5855 9.6609 16.5856 9.92495C16.5856 10.189 16.5337 10.4505 16.4327 10.6944C16.3317 10.9384 16.1836 11.1601 15.997 11.3468ZM1.61876 18.8172C1.88286 18.5456 2.1983 18.3292 2.54676 18.1806C2.89521 18.0319 3.26973 17.954 3.64856 17.9513C4.02739 17.9486 4.40298 18.0212 4.7535 18.165C5.10403 18.3087 5.4225 18.5206 5.69042 18.7885C5.95833 19.0563 6.17035 19.3747 6.31416 19.7252C6.45797 20.0757 6.5307 20.4512 6.52813 20.8301C6.52555 21.2089 6.44772 21.5835 6.29916 21.9319C6.15059 22.2804 5.93426 22.5959 5.66273 22.8601C4.54726 23.9789 0.5 24.0008 0.5 24.0008C0.5 24.0008 0.500001 19.9327 1.61876 18.8172ZM10.9132 2.22457C9.49612 1.97791 8.04049 2.07608 6.66936 2.51078C5.29824 2.94549 4.05194 3.70395 3.03585 4.72203C2.49802 5.26469 2.03041 5.87269 1.64398 6.53178C1.53084 6.7239 1.48475 6.94817 1.51294 7.16934C1.54113 7.39051 1.64201 7.59604 1.79973 7.75364L3.80033 9.75424C5.65841 6.80517 8.07459 4.24739 10.9132 2.22457ZM22.2762 13.5876C22.5229 15.0047 22.4247 16.4603 21.99 17.8315C21.5553 19.2026 20.7969 20.4489 19.7788 21.465C19.2359 22.0024 18.6282 22.4708 17.969 22.8568C17.7769 22.97 17.5526 23.0161 17.3315 22.9879C17.1103 22.9597 16.9048 22.8588 16.7472 22.7011L14.7466 20.7016C17.6958 18.8432 20.2535 16.4266 22.2762 13.5876Z" fill="#5048C7"/>
</g>
<defs>
<clipPath id="clip0_1115_193">
<rect width="24" height="24" fill="white" transform="translate(0.5)"/>
</clipPath>
</defs>
</svg>
