<svg width="24" height="28" viewBox="0 0 24 28" fill="none" xmlns="http://www.w3.org/2000/svg">
<path d="M18.8574 10.5H15.4288V7C15.4288 6.07174 15.0676 5.1815 14.4246 4.52513C13.7816 3.86875 12.9095 3.5 12.0002 3.5C11.0909 3.5 10.2188 3.86875 9.57584 4.52513C8.93286 5.1815 8.57164 6.07174 8.57164 7V10.5H5.14307V7C5.14307 5.14348 5.86551 3.36301 7.15148 2.05025C8.43744 0.737498 10.1816 0 12.0002 0C13.8188 0 15.563 0.737498 16.8489 2.05025C18.1349 3.36301 18.8574 5.14348 18.8574 7V10.5Z" fill="#5048C7"/>
<path d="M22.2857 12.25H1.71429C1.25963 12.25 0.823593 12.4344 0.502103 12.7626C0.180612 13.0908 0 13.5359 0 14V26.25C0 26.7141 0.180612 27.1592 0.502103 27.4874C0.823593 27.8156 1.25963 28 1.71429 28H22.2857C22.7404 28 23.1764 27.8156 23.4979 27.4874C23.8194 27.1592 24 26.7141 24 26.25V14C24 13.5359 23.8194 13.0908 23.4979 12.7626C23.1764 12.4344 22.7404 12.25 22.2857 12.25ZM12 22.75C11.3219 22.75 10.659 22.5447 10.0952 22.1601C9.53136 21.7756 9.09191 21.2289 8.83241 20.5894C8.57291 19.9499 8.50502 19.2461 8.63731 18.5672C8.7696 17.8883 9.09614 17.2646 9.57563 16.7751C10.0551 16.2856 10.666 15.9523 11.3311 15.8173C11.9962 15.6822 12.6856 15.7515 13.3121 16.0164C13.9385 16.2813 14.474 16.7299 14.8508 17.3055C15.2275 17.8811 15.4286 18.5578 15.4286 19.25C15.4286 20.1783 15.0673 21.0685 14.4244 21.7249C13.7814 22.3813 12.9093 22.75 12 22.75Z" fill="#5048C7"/>
</svg>
