<svg width="26" height="22" viewBox="0 0 26 22" fill="none" xmlns="http://www.w3.org/2000/svg"><path d="M6.786 18.857H2.07a1.572 1.572 0 0 1 0-3.143h4.715l.001 3.143ZM24.071 3.143h-22a1.572 1.572 0 0 1 0-3.143h22a1.572 1.572 0 0 1 0 3.143ZM6.786 11H2.07a1.572 1.572 0 0 1 0-3.143h4.715L6.786 11Zm18.396 8.318-3.573-3.574c.553-.935.891-2.01.891-3.173a6.292 6.292 0 0 0-6.286-6.285 6.292 6.292 0 0 0-6.285 6.285 6.292 6.292 0 0 0 6.285 6.286 6.204 6.204 0 0 0 3.173-.89l3.573 3.573 2.222-2.222Zm-8.968-3.604a3.146 3.146 0 0 1-3.143-3.143 3.146 3.146 0 0 1 3.143-3.142 3.146 3.146 0 0 1 3.143 3.142 3.146 3.146 0 0 1-3.143 3.143Z" fill="#5048C7"/></svg>
