<svg width="21" height="24" fill="none" xmlns="http://www.w3.org/2000/svg"><path d="M16.5 9C18.981 9 21 6.981 21 4.5S18.981 0 16.5 0A4.505 4.505 0 0 0 12 4.5c0 .336.043.66.113.975L7.284 8.492A4.458 4.458 0 0 0 4.5 7.5 4.505 4.505 0 0 0 0 12c0 2.481 2.019 4.5 4.5 4.5a4.459 4.459 0 0 0 2.784-.992l4.829 3.018c-.073.32-.11.646-.113.974 0 2.481 2.019 4.5 4.5 4.5s4.5-2.019 4.5-4.5-2.019-4.5-4.5-4.5a4.462 4.462 0 0 0-2.784.992l-4.829-3.019C8.957 12.66 9 12.335 9 12c0-.336-.043-.66-.113-.973l4.83-3.018c.788.637 1.77.987 2.783.991zm0-6a1.502 1.502 0 0 1 0 3 1.502 1.502 0 0 1 0-3zm-12 10.5a1.502 1.502 0 0 1 0-3 1.502 1.502 0 0 1 0 3zm12 4.5a1.502 1.502 0 0 1 0 3 1.502 1.502 0 0 1 0-3z" fill="#84839C"/></svg>
