<svg width="28" height="28" viewBox="0 0 28 28" fill="none" xmlns="http://www.w3.org/2000/svg">
<g clip-path="url(#clip0_636_9336)">
<path d="M12.9248 27.891H15.5296H15.5294C16.4231 27.8912 17.2847 27.5574 17.9448 26.955C18.605 26.3525 19.0162 25.5252 19.0977 24.6352H9.35645C9.43798 25.5252 9.84918 26.3526 10.5093 26.955C11.1695 27.5573 12.0312 27.8911 12.9248 27.891H12.9248Z" fill="#5048C7"/>
<path d="M19.1107 22.0048C19.1098 21.5121 19.3357 21.0463 19.7227 20.7415C21.8103 19.0815 23.024 16.5581 23.0177 13.8914C23.0249 10.8694 21.48 8.05547 18.9262 6.43908C16.3723 4.82331 13.1678 4.63209 10.4396 5.93261C7.7117 7.23337 5.84303 9.84353 5.49068 12.8452C5.13856 15.8465 6.35212 18.8185 8.70481 20.7156C9.09769 21.03 9.33144 21.5021 9.34299 22.0051V22.6823H19.1105L19.1107 22.0048Z" fill="#5048C7"/>
<path d="M15.2035 3.47226V0.867731C15.2035 0.518673 15.0173 0.196227 14.7151 0.0218064C14.4129 -0.152614 14.0406 -0.152614 13.7384 0.0218064C13.4362 0.196227 13.25 0.518684 13.25 0.867731V3.47226C13.25 3.82132 13.4362 4.14376 13.7384 4.31818C14.0406 4.4926 14.413 4.4926 14.7151 4.31818C15.0173 4.14376 15.2035 3.82131 15.2035 3.47226Z" fill="#5048C7"/>
<path d="M24.1245 3.99345C23.9414 3.81009 23.6928 3.70697 23.4336 3.70697C23.1746 3.70697 22.926 3.8101 22.7429 3.99345L20.9039 5.8336C20.6571 6.08041 20.5607 6.44014 20.6509 6.77743C20.7414 7.1145 21.0048 7.37788 21.3419 7.46835C21.6792 7.55862 22.0389 7.46225 22.2857 7.21545L24.1245 5.37245C24.307 5.18953 24.4097 4.94141 24.4097 4.68303C24.4097 4.42445 24.307 4.17634 24.1245 3.99344L24.1245 3.99345Z" fill="#5048C7"/>
<path d="M24.6457 14.8678H27.2504H27.2502C27.5993 14.8678 27.9217 14.6816 28.0961 14.3794C28.2706 14.0773 28.2706 13.7049 28.0961 13.4027C27.9217 13.1005 27.5993 12.9143 27.2502 12.9143H24.6457C24.2966 12.9143 23.9742 13.1005 23.7998 13.4027C23.6253 13.7049 23.6253 14.0773 23.7998 14.3794C23.9742 14.6816 24.2966 14.8678 24.6457 14.8678H24.6457Z" fill="#5048C7"/>
<path d="M6.85964 7.50028C7.11865 7.50028 7.3672 7.3976 7.55034 7.21445C7.7337 7.03153 7.83661 6.78298 7.83682 6.52397C7.83704 6.26496 7.73414 6.01663 7.55121 5.83327L5.70822 3.99312C5.45792 3.76921 5.10972 3.68963 4.78705 3.78273C4.46415 3.87561 4.21166 4.12808 4.11879 4.45099C4.02569 4.77367 4.10527 5.12188 4.32918 5.37216L6.16933 7.21515C6.35225 7.39829 6.6008 7.50076 6.85958 7.50033L6.85964 7.50028Z" fill="#5048C7"/>
<path d="M1.20379 14.8678H3.80832C4.15738 14.8678 4.47982 14.6816 4.65424 14.3794C4.82866 14.0773 4.82866 13.7049 4.65424 13.4027C4.47982 13.1005 4.15737 12.9143 3.80832 12.9143H1.20379C0.854732 12.9143 0.532286 13.1005 0.357866 13.4027C0.183446 13.7049 0.183446 14.0773 0.357866 14.3794C0.532286 14.6816 0.854743 14.8678 1.20379 14.8678Z" fill="#5048C7"/>
</g>
<defs>
<clipPath id="clip0_636_9336">
<rect width="28" height="28" fill="white"/>
</clipPath>
</defs>
</svg>
