<svg width="28" height="28" viewBox="0 0 28 28" fill="none" xmlns="http://www.w3.org/2000/svg">
<g clip-path="url(#clip0_636_9335)">
<path d="M26.6551 23.4796C28.8651 20.4696 28.4901 14.9302 24.5101 11.8852L24.5103 11.8854C22.9211 10.6401 20.9542 9.97519 18.9356 10.0004C18.4434 14.8063 14.4705 18.1836 10.0062 18.7653C9.83164 20.3353 10.5546 24.1786 14.3161 26.4398C16.9559 27.9998 20.3261 28.3599 22.7106 27.0349H22.7104C22.8782 26.938 23.086 26.9418 23.2503 27.0449C23.8902 27.4599 25.3753 27.99 27.6752 27.9998C27.7752 28.0036 27.8671 27.9456 27.9071 27.8538C27.9468 27.7621 27.9263 27.6552 27.8551 27.5849C26.3002 26.1048 26.3703 23.87 26.6551 23.4799L26.6551 23.4796Z" fill="#5048C7"/>
<path d="M3.4908 1.88548C-0.488935 4.93022 -0.863949 10.4703 1.34602 13.4799C1.63106 13.8698 1.70092 16.1048 0.146069 17.5846V17.5849C0.0748658 17.6552 0.0543292 17.7621 0.0940614 17.8538C0.134015 17.9456 0.225976 18.0036 0.325973 17.9998C2.62588 17.9898 4.11086 17.4599 4.75083 17.0449C4.91511 16.9418 5.12291 16.938 5.29076 17.0349C6.76413 17.792 8.4471 18.0382 10.0756 17.7349C14.3178 17.0873 18.0004 13.7511 18.0004 8.8952C18.0004 1.51034 9.36592 -2.6495 3.49072 1.88519L3.4908 1.88548Z" fill="#5048C7"/>
</g>
<defs>
<clipPath id="clip0_636_9335">
<rect width="28" height="28" fill="white"/>
</clipPath>
</defs>
</svg>
