<svg width="20" height="20" viewBox="0 0 20 20" fill="none" xmlns="http://www.w3.org/2000/svg"><g clip-path="url(#a)"><path d="m16.25 6.118-2.822-2.823L16.251.47C15.663.117 14.957 0 14.25 0a5.273 5.273 0 0 0-5.294 5.295c0 .588.118 1.058.236 1.646l-7.765 5.765c-.942.706-.942 2-.236 2.823l2.706 2.824c.824.823 2.118.706 2.824-.236l5.764-7.763c.589.117 1.177.234 1.765.234a5.272 5.272 0 0 0 5.295-5.293c0-.707-.119-1.412-.353-2L16.25 6.118Z" fill="#5048C7"/></g><defs><clipPath id="a"><path fill="#fff" d="M0 0h20v19.091H0z"/></clipPath></defs></svg>
