<svg width="107" height="107" viewBox="0 0 107 107" fill="none" xmlns="http://www.w3.org/2000/svg">
<rect x="0.5" y="0.5" width="106" height="106" rx="53" fill="white"/>
<path d="M66.675 47.55L61.575 42.45L66.675 37.35C65.6125 36.7125 64.3375 36.5 63.0625 36.5C57.75 36.5 53.5 40.75 53.5 46.0625C53.5 47.125 53.7125 47.975 53.925 49.0375L39.9 59.45C38.2 60.725 38.2 63.0625 39.475 64.55L44.3625 69.65C45.85 71.1375 48.1875 70.925 49.4625 69.225L59.875 55.2C60.9375 55.4125 62 55.625 63.0625 55.625C68.375 55.625 72.625 51.375 72.625 46.0625C72.625 44.7875 72.4125 43.5125 71.9875 42.45L66.675 47.55Z" fill="#5048C7"/>
<rect x="0.5" y="0.5" width="106" height="106" rx="53" stroke="#D7D7DE"/>
</svg>
