<?xml version="1.0" standalone="no"?>
<!DOCTYPE svg PUBLIC "-//W3C//DTD SVG 20010904//EN"
 "http://www.w3.org/TR/2001/REC-SVG-20010904/DTD/svg10.dtd">
<svg version="1.0" xmlns="http://www.w3.org/2000/svg"
 width="260.000000pt" height="260.000000pt" viewBox="0 0 260.000000 260.000000"
 preserveAspectRatio="xMidYMid meet">
<metadata>
Created by potrace 1.11, written by Peter Selinger 2001-2013
</metadata>
<g transform="translate(0.000000,260.000000) scale(0.100000,-0.100000)"
fill="#000000" stroke="none">
<path d="M340 1686 l0 -46 53 0 c87 0 84 11 83 -332 -1 -219 -4 -300 -13 -309
-7 -7 -37 -13 -68 -13 l-56 -1 3 -45 3 -45 295 0 c329 -1 372 5 427 58 42 40
68 107 67 177 -2 88 -49 157 -124 181 -42 14 -61 29 -36 29 22 0 85 44 111 79
16 21 20 42 20 101 0 83 -13 109 -72 150 -74 50 -99 54 -405 58 l-288 3 0 -45z
m540 -73 c71 -59 60 -180 -19 -222 -13 -7 -67 -14 -122 -15 l-98 -2 0 133 -1
134 106 -2 c95 -1 108 -4 134 -26z m12 -357 c55 -36 74 -128 40 -196 -27 -54
-69 -70 -189 -70 l-103 0 1 146 1 146 112 -4 c83 -3 118 -8 138 -22z"/>
<path d="M1339 1580 c-25 -44 -75 -70 -135 -70 -34 0 -35 0 -32 -40 1 -22 7
-41 12 -41 6 -1 38 -2 71 -3 l60 -1 3 -200 c3 -239 3 -239 -82 -236 -52 1 -56
0 -58 -21 -1 -25 -1 -60 1 -68 0 -3 97 -5 213 -5 l213 1 3 47 3 47 -58 0 c-33
0 -64 5 -71 12 -9 9 -12 93 -12 315 l0 303 -54 0 c-53 0 -55 -1 -77 -40z"/>
<path d="M1825 1608 c-129 -45 -201 -174 -154 -277 53 -119 229 -62 187 61 -5
15 -15 32 -23 38 -20 16 -57 21 -72 9 -18 -16 -16 -3 4 32 44 74 215 66 263
-13 25 -42 25 -83 0 -132 -23 -46 -35 -55 -167 -126 -57 -30 -117 -68 -134
-84 -52 -50 -80 -118 -83 -206 -1 -34 0 -35 38 -35 35 0 40 3 47 29 15 55 49
59 135 17 123 -59 190 -72 263 -51 72 20 110 84 126 215 l6 51 -33 -2 c-18 -1
-36 -2 -40 -3 -5 -1 -8 -15 -8 -32 0 -37 -47 -89 -82 -90 -48 -2 -104 3 -148
12 -68 15 -148 13 -175 -5 -35 -23 -40 -20 -19 12 34 52 73 74 208 114 122 36
161 56 203 100 40 42 53 76 53 141 -1 105 -71 194 -180 225 -33 10 -187 9
-215 0z"/>
</g>
</svg>
