<svg xmlns="http://www.w3.org/2000/svg" fill="none" viewBox="0 0 104 104"><rect width="103" height="103" x=".5" y=".5" fill="#fff" rx="51.5"/><path fill="#5048C7" d="M61.375 48.25a1.407 1.407 0 0 1-1.406-1.406 2.813 2.813 0 0 0-2.813-2.813 1.406 1.406 0 1 1 0-2.812 2.813 2.813 0 0 0 2.813-2.813 1.406 1.406 0 1 1 2.812 0 2.813 2.813 0 0 0 2.813 2.813 1.406 1.406 0 1 1 0 2.812 2.813 2.813 0 0 0-2.813 2.813 1.406 1.406 0 0 1-1.406 1.406ZM48.25 67a1.875 1.875 0 0 1-1.875-1.875 7.5 7.5 0 0 0-7.5-7.5 1.875 1.875 0 1 1 0-3.75 7.5 7.5 0 0 0 7.5-7.5 1.875 1.875 0 1 1 3.75 0 7.5 7.5 0 0 0 7.5 7.5 1.875 1.875 0 1 1 0 3.75 7.5 7.5 0 0 0-7.5 7.5A1.875 1.875 0 0 1 48.25 67Z"/><rect width="103" height="103" x=".5" y=".5" stroke="#D7D7DE" rx="51.5"/></svg>
