<svg xmlns="http://www.w3.org/2000/svg" fill="none" viewBox="0 0 67 67"><rect width="66" height="66" x=".5" y=".5" fill="#fff" rx="33"/><path fill="#5048C7" d="M31.375 34.563h-5.313A1.063 1.063 0 0 1 25 33.5v-7.438c0-.586.476-1.062 1.062-1.062h5.313c.586 0 1.062.476 1.062 1.063V33.5c0 .587-.476 1.063-1.062 1.063ZM31.375 42h-5.313A1.063 1.063 0 0 1 25 40.937V37.75c0-.587.476-1.063 1.062-1.063h5.313c.586 0 1.062.477 1.062 1.063v3.188c0 .586-.476 1.062-1.062 1.062ZM40.937 31.375h-5.312a1.063 1.063 0 0 1-1.063-1.063v-4.25c0-.586.476-1.062 1.063-1.062h5.312c.587 0 1.063.476 1.063 1.063v4.25c0 .586-.476 1.062-1.063 1.062ZM40.937 42h-5.312a1.063 1.063 0 0 1-1.063-1.063v-6.374c0-.587.476-1.063 1.063-1.063h5.312c.587 0 1.063.476 1.063 1.063v6.374c0 .587-.476 1.063-1.063 1.063Z"/><rect width="66" height="66" x=".5" y=".5" stroke="#D7D7DE" rx="33"/></svg>
