<svg width="143" height="22" viewBox="0 0 143 22" xmlns="http://www.w3.org/2000/svg"><g fill-rule="nonzero" fill="#84839C" ><path d="M67.88 6.006c0 2.88-.285 11.806-.285 11.806 0 1.727.57 2.495 2.189 2.495v.767h-6.376v-.767c1.617 0 2.474-.768 2.474-2.495l.571-14.59c-.476-1.152-.952-1.535-2.189-1.63V.92h4.853l5.14 13.63L79.49.92h4.377v.671c-1.237 0-1.902.576-1.902 1.92l.57 14.11c0 2.111.381 2.687 2.095 2.687v.767h-7.328v-.767c1.427 0 2.094-.48 1.998-2.688 0 0-.286-9.886-.38-11.613l-3.52 9.79a36.752 36.752 0 0 0-1.333 4.223l-1.141.096c-.286-1.056-1.047-2.975-1.047-2.975s-2.953-8.352-4-11.135zm-5.995 15.165c-.38-.097-.761-.097-1.142-.097-.761 0-2.094.384-3.712.384-6.186 0-10.754-3.743-10.754-10.654C46.277 4.95 50.56.44 57.126.44c1.522 0 3.235.289 4.663.864.285-.289.38-.48.666-.768h.57c-.094 1.056-.475 4.511-.475 4.511h-.571c-.38-2.015-1.428-3.36-4.759-3.36-3.997 0-7.613 3.168-7.613 9.023 0 6.623 3.712 9.502 7.804 9.502 2.665 0 4.283-1.535 5.33-3.455l.666.288-1.522 4.127zM43.898 4.662h-.666c-.095-1.823-.666-2.4-2.094-2.4h-2.76v15.07c0 2.495.476 2.975 2.094 2.975v.767h-7.138v-.767c1.619 0 2.094-.48 2.094-3.072V2.263h-2.76c-1.807 0-2.093.48-2.57 2.4h-.665l.476-4.32.476.096c.19.48.57.48 1.712.48h9.232c1.713 0 2.094 0 2.474-.576h.571l-.476 4.32z"/><path d="M23.723 21.554c-1.333 0-2.38-.191-3.14-.48-.762-.191-1.333-.48-1.618-.671-.38.384-.667.864-.667.864l-.57-.192.475-4.51.667.096c.38 2.11 1.808 3.647 4.758 3.647 2.284 0 3.807-1.92 3.807-4.031 0-1.728-.667-2.592-2.95-4.32-.762-.48-1.428-.863-2-1.343-2.093-1.343-3.426-2.879-3.426-5.375 0-2.88 2.38-4.799 5.52-4.799 1.808 0 2.95.576 3.331.768l.666-.768.476.096-.476 4.127-.666-.096c0-1.919-1.142-2.783-3.046-2.783-1.808 0-3.14.96-3.14 2.783 0 1.632 1.237 2.687 2.664 3.648.761.48 1.333.864 1.903 1.247 3.331 2.4 4.092 3.935 4.092 6.239.002 3.358-2.568 5.853-6.66 5.853zM12.874 4.662h-.761c0-1.728-.761-2.4-2.284-2.4H5.546v7.583h2.76c1.428 0 1.714-.767 1.904-2.015h.665v5.375h-.665c-.19-1.44-.476-2.016-2-2.016H5.547v6.431c0 2.4.571 2.688 2.094 2.688v.767H.407v-.767c1.808 0 2.093-.48 2.093-2.688V3.51c0-1.343-.57-1.92-2.093-1.92V.92h9.897c1.713 0 2.093-.097 2.38-.673h.666l-.476 4.415zm102.685 1.152V17.33c0 2.495.57 2.975 2.093 2.975v.768h-11.228v-.768c.857 0 1.617-.288 1.617-.864 0-.384-.095-1.056-.286-1.728l-.857-2.783h-6.28c-.096.384-1.237 3.55-1.237 4.415 0 .768.857.96 1.427.96v.768h-5.235v-.768c.952 0 1.714-.096 2.38-2.111l4.853-15.645c-.286-.672-.665-.864-1.33-.96V.918h4.282l5.137 16.413c.477 1.728.952 2.592 1.714 2.975 1.142-.384 1.428-.768 1.428-2.975V3.511c-.857-1.153-.953-1.92-2.57-1.92V.919h4.853l7.995 13.725V4.182c0-2.112-.475-2.591-2.094-2.591V.919h10.658v.672c-.665 0-1.237.288-1.237.96 0 .48.191.96.38 1.535l3.047 6.623 2.95-6.43c.475-.864.571-1.344.571-1.824 0-.576-.382-.864-1.236-.864V.919h5.042v.672c-1.236 0-2 1.152-2.569 2.494l-3.902 8.063v5.28c0 2.304.571 2.879 2.094 2.879v.767h-7.233v-.767c1.523 0 2.094-.575 2.094-2.88v-4.51l-4.188-8.927c-.76-1.727-1.046-2.111-1.523-2.4-.952.384-1.237 1.057-1.237 2.592v14.781s.096 1.152.19 2.495l-1.236.096-9.327-15.74zm-11.895-.96l-2.666 8.735h5.52l-2.854-8.735z"/><path d="M91.862 13.589h-1.427v4.126c0 2.112.57 2.592 2.189 2.592v.767h-7.328v-.767c1.523 0 2.094-.575 2.094-2.687V4.086c0-2.11-.571-2.495-2.094-2.495V.92h5.52c5.328 0 8.468 1.631 8.468 6.046 0 4.607-3.805 6.623-7.422 6.623zM90.91 2.263h-.475v9.885h.856c3.142 0 4.759-1.44 4.759-5.087s-1.428-4.798-5.14-4.798zM58.649 17.235c-3.617 0-6.091-2.592-6.091-6.334 0-3.551 2.57-6.335 6.09-6.335 3.427 0 5.996 2.687 5.996 6.335 0 3.55-2.664 6.334-5.995 6.334zm0-11.517c-2.474 0-3.331 2.4-3.331 5.183 0 2.592.761 5.183 3.33 5.183 2.475 0 3.236-2.592 3.236-5.28.001-2.59-.95-5.086-3.235-5.086zM16.776 16.084v-.673c.952 0 1.143-.287 1.143-.575 0-.384-.096-.672-.191-.96 0 0-.19-.768-.38-1.343h-3.712l-.38 1.247c-.095.289-.19.576-.19.96 0 .385.38.671.951.671v.673h-3.711v-.673c.951 0 1.332-.287 1.712-1.342l2.856-8.64c-.096-.384-.382-.671-.952-.671v-.673h3.044a1798.85 1798.85 0 0 0 3.14 9.215c.476 1.631.952 2.111 1.713 2.111v.673h-5.043zm-1.333-9.31l-1.427 4.703h2.95l-1.523-4.703z"/></g></svg>
