<svg width="157" height="21" viewBox="0 0 157 21" fill="none" xmlns="http://www.w3.org/2000/svg"><path d="M109.732.5c1.975.055 4.368.14 5.812 1.64a5.543 5.543 0 0 1 1.307 3.613 4.14 4.14 0 0 1-1.225 3.123 6.97 6.97 0 0 1-1.971 1.23 5.462 5.462 0 0 1 2.388 1.22 5.329 5.329 0 0 1 1.347 3.69 4.732 4.732 0 0 1-1.362 3.442c-1.561 1.588-3.614 1.615-5.855 1.67h-9.004v-4.004l1.753.027V4.477l-1.753.027V.5h8.563Zm-1.709 7.896c1.584.027 1.807.027 2.197-.055a1.899 1.899 0 0 0 1.499-1.951 1.951 1.951 0 0 0-.964-1.804c-.445-.222-.722-.222-2.697-.25l-.035 4.06Zm0 7.728h1.561c1.081 0 2.611-.028 2.611-1.89a1.921 1.921 0 0 0-1.194-1.889c-.473-.195-.695-.195-2.947-.195l-.031 3.974ZM132.088 15.18c-.195 1.03-.448 2.392-1.725 3.613-1.276 1.222-3.122 1.67-4.921 1.67-3.837 0-7.201-1.861-7.201-7.477a9.56 9.56 0 0 1 .39-2.893c.976-3.31 3.673-4.683 6.635-4.683 2.225 0 4.032.78 5.074 1.834 2.115 2.057 2.006 5.394 1.975 6.674h-8.794c0 1.113.032 3.084 1.835 3.084 1.502 0 1.698-1.276 1.783-1.807l4.949-.016Zm-4.941-4.005a3.256 3.256 0 0 0-.14-1.14 1.619 1.619 0 0 0-1.612-1.054c-1.671 0-1.725 1.612-1.725 2.194h3.477ZM147.017 16.124v4.004h-6.006l-.11-1.666a4.515 4.515 0 0 1-3.977 2.002c-2.588 0-4.2-1.53-4.2-4.313a4.397 4.397 0 0 1 1.952-3.833c1.834-1.253 4.684-1.143 6.089-1.116.036-.51.018-1.02-.055-1.526a1.218 1.218 0 0 0-1.253-1.058 1.291 1.291 0 0 0-.944.39 1.856 1.856 0 0 0-.438 1.39h-4.851c0-.807.17-1.605.5-2.342 1.03-2.084 3.645-2.697 5.647-2.697 1.889 0 4.059.554 5.254 1.78 1.085 1.081 1.194 2.342 1.194 3.392v5.593h1.198Zm-6.245-2.389a4.09 4.09 0 0 0-1.561.113 1.733 1.733 0 0 0-1.28 1.776c0 .972.504 1.503 1.253 1.503a1.435 1.435 0 0 0 1.249-.695c.226-.398.342-.85.336-1.307l.003-1.39ZM154.023 1.222v4.504h2.307v3.989h-2.307v5.187c.027.527.082 1.612 1.417 1.612.256.002.51-.044.749-.137v3.67c-.996.21-2.01.332-3.028.362-1.612 0-2.838-.449-3.451-1.058-.78-.78-.804-1.807-.804-2.615V9.715h-1.253V5.726h1.644V2.3l4.726-1.077ZM0 .5h8.427v4.004L6.7 4.477 9.562 15.71 12.65 4.477l-1.722.027V.5h7.728v4.004l-1.307-.027-4.867 15.651H6.143L1.222 4.478 0 4.503V.5ZM30.72 15.18c-.195 1.03-.445 2.392-1.72 3.613-1.277 1.222-3.123 1.67-4.922 1.67-3.837 0-7.201-1.861-7.201-7.477a9.475 9.475 0 0 1 .39-2.893c.972-3.31 3.669-4.683 6.635-4.683 2.224 0 4.032.78 5.074 1.834 2.115 2.057 2.002 5.394 1.975 6.674h-8.794c0 1.113.027 3.084 1.835 3.084 1.502 0 1.697-1.276 1.78-1.807l4.948-.016Zm-4.949-4.005c.02-.385-.026-.77-.136-1.14a1.62 1.62 0 0 0-1.616-1.054c-1.667 0-1.721 1.612-1.721 2.194h3.473ZM46.29 16.124h1.197v4.004h-6.37v-8.462c.018-.354-.019-.71-.108-1.053a1.221 1.221 0 0 0-1.199-.75 1.471 1.471 0 0 0-1.053.445c-.5.5-.531 1.136-.559 1.952v3.903h.976v3.965h-7.287v-4.004h1.171v-6.41h-1.17V5.727h5.702l.163 2.197c.22-.436.511-.832.863-1.17a5.034 5.034 0 0 1 3.642-1.421c1.502 0 2.505.558 3.032 1.116.945.945.972 2.112 1 3.122v6.554ZM54.38 1.222v4.504h2.307v3.989H54.38v5.187c.027.527.082 1.612 1.417 1.612.257.002.513-.044.753-.137v3.67c-.998.21-2.013.332-3.032.362-1.612 0-2.834-.449-3.447-1.058-.78-.78-.808-1.807-.808-2.615V9.715h-1.252V5.726h1.643V2.3l4.726-1.077ZM63.86 5.726v8.427c0 .581.055 1.916 1.363 1.916 1.307 0 1.362-1.444 1.362-2.193V9.715l-1.054.027V5.726h6.245v10.425l1.194-.027v4.004h-5.928v-1.612a4.255 4.255 0 0 1-1.952 1.561c-.7.277-1.445.418-2.197.418a4.204 4.204 0 0 1-3.06-1.112c-1.085-1.054-1.14-2.447-1.171-3.778v-5.89l-1.171.027V5.726h6.37ZM79.847 8.228c.223-.78.75-2.666 3.513-2.666.46-.007.92.048 1.366.164v4.617a5.213 5.213 0 0 0-1.226-.14 3.556 3.556 0 0 0-2.447.835c-.667.667-.695 1.417-.695 2.732l-.054 2.342h1.694v4.016H74.09v-4.004h1.194v-6.41H74.09V5.727h5.59l.167 2.502ZM99.639 15.18c-.191 1.03-.441 2.392-1.721 3.613-1.28 1.222-3.123 1.67-4.922 1.67-3.836 0-7.2-1.861-7.2-7.477a9.475 9.475 0 0 1 .39-2.893c.971-3.31 3.668-4.683 6.615-4.683 2.225 0 4.032.78 5.074 1.834 2.111 2.057 2.002 5.394 1.975 6.674h-8.77c0 1.113.027 3.084 1.83 3.084 1.503 0 1.698-1.276 1.784-1.807l4.945-.016Zm-4.945-4.005a3.264 3.264 0 0 0-.14-1.14 1.612 1.612 0 0 0-1.612-1.054c-1.67 0-1.726 1.612-1.726 2.194h3.478Z" fill="#84839C"/></svg>
