<?xml version="1.0" standalone="no"?>
<!DOCTYPE svg PUBLIC "-//W3C//DTD SVG 20010904//EN"
 "http://www.w3.org/TR/2001/REC-SVG-20010904/DTD/svg10.dtd">
<svg version="1.0" xmlns="http://www.w3.org/2000/svg"
 width="665.000000pt" height="200.000000pt" viewBox="0 0 665.000000 200.000000"
 preserveAspectRatio="xMidYMid meet">

<g transform="translate(0.000000,200.000000) scale(0.100000,-0.100000)"
fill="#000000" stroke="none">
<path d="M1480 1010 l0 -990 160 0 160 0 0 80 c0 44 4 80 8 80 5 0 21 -14 38
-31 39 -41 133 -92 219 -120 51 -17 94 -22 160 -22 116 0 178 15 294 70 131
63 230 161 295 295 64 129 80 199 80 338 0 136 -17 207 -77 330 -59 121 -178
240 -297 299 -145 71 -282 88 -424 51 -91 -23 -180 -68 -241 -122 l-45 -40 0
386 0 386 -165 0 -165 0 0 -990z m872 57 c73 -36 150 -119 179 -195 33 -87 38
-213 10 -300 -53 -162 -188 -262 -356 -262 -168 0 -307 102 -356 263 -17 55
-20 86 -17 155 6 110 34 185 94 251 85 95 154 122 294 118 81 -2 104 -7 152
-30z"/>
<path d="M5340 1010 l0 -990 165 0 165 0 2 311 3 311 265 -311 265 -311 219 0
c204 0 218 1 205 17 -8 9 -153 177 -322 372 l-309 354 309 309 308 308 -232 0
-231 0 -241 -247 -241 -248 0 558 0 557 -165 0 -165 0 0 -990z"/>
<path d="M608 1405 c-472 -451 -604 -583 -597 -595 4 -8 16 -25 26 -37 l18
-23 565 426 c311 234 573 432 583 439 16 11 17 29 15 190 l-3 179 -607 -579z"/>
<path d="M3485 1394 c-105 -20 -206 -75 -285 -153 -74 -73 -132 -176 -134
-238 l-1 -37 140 -32 c77 -18 143 -33 147 -34 4 0 12 17 17 38 34 123 147 191
297 179 75 -6 146 -37 175 -79 45 -63 43 -153 -4 -176 -12 -6 -96 -13 -187
-16 -250 -8 -394 -53 -500 -156 -69 -68 -101 -139 -108 -245 -14 -234 132
-400 386 -438 143 -22 285 17 395 107 l57 46 0 -47 c0 -98 -9 -93 169 -93
l156 0 -3 473 c-2 259 -7 497 -13 527 -23 136 -123 267 -249 328 -122 59 -301
77 -455 46z m395 -851 c0 -71 -33 -147 -80 -186 -63 -53 -109 -70 -205 -74
-80 -4 -95 -2 -135 19 -109 56 -122 188 -25 248 66 41 112 49 283 49 l162 1 0
-57z"/>
<path d="M4935 1376 c-67 -21 -125 -55 -176 -103 l-49 -46 0 77 0 76 -160 0
-160 0 0 -680 0 -680 164 0 165 0 3 403 c3 394 3 403 26 451 34 74 64 108 120
139 57 31 146 45 230 37 l52 -6 0 173 0 173 -87 -1 c-49 0 -106 -6 -128 -13z"/>
<path d="M588 821 l-437 -206 -1 -37 c0 -25 5 -38 13 -38 8 0 216 43 462 95
247 52 449 95 450 95 2 0 -42 266 -47 286 -2 6 -200 -82 -440 -195z"/>
<path d="M46 339 c-10 -17 -16 -32 -14 -34 2 -3 263 -65 579 -140 316 -74 584
-137 597 -140 l22 -5 0 155 c0 117 -3 155 -12 155 -7 0 -249 9 -538 20 -678
25 -612 27 -634 -11z"/>
</g>
</svg>
