<svg width="143" height="35" viewBox="0 0 143 35" fill="none" xmlns="http://www.w3.org/2000/svg"><g clip-path="url(#clip0_44_7)"><path d="M37.4533 12.4047H51.8835V15.0971H46.2095V30.2318H43.0895V15.0971H37.4407V12.4047H37.4533ZM51.2671 17.3239H53.9342V19.8149H53.9845C54.0726 19.4626 54.2361 19.1229 54.4752 18.7958C54.7142 18.4687 55.0036 18.1542 55.3433 17.89C55.6829 17.6132 56.0604 17.3994 56.4755 17.2232C56.8907 17.0597 57.3185 16.9716 57.7462 16.9716C58.0733 16.9716 58.3123 16.9842 58.4382 16.9968C58.564 17.0093 58.6898 17.0345 58.8282 17.0471V19.7897C58.6269 19.752 58.4256 19.7268 58.2117 19.7017C57.9978 19.6765 57.7965 19.6639 57.5952 19.6639C57.1172 19.6639 56.6643 19.7646 56.2365 19.9533C55.8088 20.142 55.4439 20.4313 55.1294 20.7962C54.8149 21.1736 54.5632 21.6265 54.3745 22.1801C54.1858 22.7336 54.0978 23.3627 54.0978 24.0798V30.2193H51.2545V17.3239H51.2671ZM71.8997 30.2318H69.1067V28.4328H69.0564C68.7042 29.087 68.1883 29.6028 67.4964 29.9928C66.8044 30.3828 66.0999 30.5841 65.3828 30.5841C63.6844 30.5841 62.4515 30.1689 61.6966 29.326C60.9417 28.4831 60.5643 27.2124 60.5643 25.514V17.3239H63.4076V25.2372C63.4076 26.3695 63.6215 27.1747 64.0618 27.6402C64.4896 28.1057 65.106 28.3447 65.886 28.3447C66.4899 28.3447 66.9806 28.2566 67.3832 28.0679C67.7857 27.8792 68.1128 27.6402 68.3519 27.3257C68.6035 27.0237 68.7796 26.6463 68.8929 26.2185C69.0061 25.7908 69.0564 25.3253 69.0564 24.8221V17.3364H71.8997V30.2318ZM76.7433 26.0927C76.8314 26.9231 77.1459 27.5018 77.6869 27.8415C78.2405 28.1686 78.8947 28.3447 79.6621 28.3447C79.9263 28.3447 80.2282 28.3196 80.5679 28.2818C80.9076 28.2441 81.2347 28.156 81.5241 28.0428C81.826 27.9295 82.065 27.7534 82.2663 27.527C82.4551 27.3005 82.5431 27.0111 82.5305 26.6463C82.518 26.2815 82.3796 25.9795 82.1279 25.7531C81.8763 25.514 81.5618 25.3379 81.1718 25.1869C80.7818 25.0485 80.3415 24.9227 79.8382 24.8221C79.335 24.7214 78.8318 24.6082 78.3159 24.495C77.7875 24.3817 77.2717 24.2308 76.7811 24.0672C76.2904 23.9037 75.8501 23.6772 75.4601 23.3878C75.0701 23.1111 74.7556 22.7462 74.5291 22.3059C74.2901 21.8656 74.1768 21.3246 74.1768 20.6704C74.1768 19.9659 74.353 19.3871 74.6926 18.9091C75.0323 18.431 75.4727 18.0536 75.9885 17.7642C76.5169 17.4748 77.0956 17.2735 77.7372 17.1477C78.3788 17.0345 78.9953 16.9716 79.574 16.9716C80.2408 16.9716 80.8824 17.0471 81.4863 17.1855C82.0902 17.3239 82.6438 17.5503 83.1344 17.8774C83.6251 18.1919 84.0277 18.6071 84.3548 19.1103C84.6819 19.6136 84.8832 20.23 84.9712 20.9472H82.0021C81.8637 20.2678 81.5618 19.8023 81.0712 19.5758C80.5805 19.3368 80.0144 19.2236 79.3853 19.2236C79.184 19.2236 78.945 19.2362 78.6682 19.2739C78.3914 19.3116 78.1398 19.3745 77.8882 19.4626C77.6491 19.5507 77.4479 19.6891 77.2717 19.8652C77.1082 20.0413 77.0201 20.2678 77.0201 20.5572C77.0201 20.9094 77.1459 21.1862 77.385 21.4001C77.624 21.6139 77.9385 21.7901 78.3285 21.941C78.7185 22.0794 79.1589 22.2052 79.6621 22.3059C80.1653 22.4065 80.6811 22.5198 81.2095 22.633C81.7254 22.7462 82.2286 22.8972 82.7318 23.0607C83.2351 23.2243 83.6754 23.4508 84.0654 23.7401C84.4554 24.0295 84.7699 24.3817 85.009 24.8095C85.248 25.2372 85.3738 25.7782 85.3738 26.4073C85.3738 27.1747 85.1977 27.8163 84.8454 28.3573C84.4932 28.8857 84.0402 29.326 83.4867 29.6531C82.9331 29.9802 82.3041 30.2318 81.6247 30.3828C80.9453 30.5338 80.266 30.6093 79.5992 30.6093C78.7814 30.6093 78.0266 30.5212 77.3346 30.3325C76.6427 30.1438 76.0388 29.867 75.5356 29.5022C75.0323 29.1247 74.6297 28.6592 74.3404 28.1057C74.051 27.5521 73.9001 26.8853 73.8749 26.1179H76.7433V26.0927ZM86.1287 17.3239H88.28V13.449H91.1233V17.3239H93.6898V19.45H91.1233V26.3444C91.1233 26.6463 91.1358 26.8979 91.161 27.1244C91.1862 27.3382 91.2491 27.527 91.3371 27.6779C91.4252 27.8289 91.5636 27.9421 91.7523 28.0176C91.941 28.0931 92.1801 28.1308 92.5072 28.1308C92.7085 28.1308 92.9098 28.1308 93.111 28.1183C93.3123 28.1057 93.5136 28.0805 93.7149 28.0302V30.2318C93.4004 30.2696 93.0859 30.2947 92.7965 30.3325C92.4946 30.3702 92.1926 30.3828 91.8781 30.3828C91.1233 30.3828 90.5194 30.3073 90.0665 30.1689C89.6136 30.0306 89.2487 29.8167 88.9971 29.5399C88.7329 29.2631 88.5694 28.9234 88.4687 28.5083C88.3806 28.0931 88.3177 27.615 88.3052 27.0866V19.4752H86.1538V17.3239H86.1287ZM95.7027 17.3239H98.395V19.0726H98.4453C98.8479 18.3178 99.4015 17.7894 100.119 17.4623C100.836 17.1352 101.603 16.9716 102.446 16.9716C103.465 16.9716 104.346 17.1477 105.101 17.5126C105.855 17.8648 106.485 18.3555 106.988 18.9845C107.491 19.6136 107.856 20.3433 108.107 21.1736C108.359 22.004 108.485 22.8972 108.485 23.8408C108.485 24.7088 108.372 25.5518 108.145 26.3569C107.919 27.1747 107.579 27.8918 107.126 28.5208C106.673 29.1499 106.095 29.6405 105.39 30.018C104.685 30.3954 103.868 30.5841 102.912 30.5841C102.496 30.5841 102.081 30.5464 101.666 30.4709C101.251 30.3954 100.848 30.2696 100.471 30.106C100.093 29.9425 99.7286 29.7286 99.4141 29.4644C99.087 29.2002 98.8228 28.8983 98.5963 28.5586H98.546V35H95.7027V17.3239ZM105.642 23.7904C105.642 23.2117 105.566 22.6456 105.415 22.092C105.264 21.5385 105.038 21.0604 104.736 20.6326C104.434 20.2049 104.056 19.8652 103.616 19.6136C103.163 19.362 102.647 19.2236 102.069 19.2236C100.873 19.2236 99.9676 19.6387 99.3637 20.4691C98.7599 21.2994 98.4579 22.4065 98.4579 23.7904C98.4579 24.4446 98.5334 25.0485 98.697 25.6021C98.8605 26.1556 99.087 26.6337 99.4141 27.0363C99.7286 27.4389 100.106 27.7534 100.546 27.9799C100.987 28.2189 101.503 28.3321 102.081 28.3321C102.735 28.3321 103.276 28.1937 103.729 27.9295C104.182 27.6653 104.547 27.3131 104.836 26.8979C105.126 26.4702 105.34 25.9921 105.465 25.4511C105.579 24.9101 105.642 24.3566 105.642 23.7904ZM110.661 12.4047H113.505V15.0971H110.661V12.4047ZM110.661 17.3239H113.505V30.2318H110.661V17.3239ZM116.046 12.4047H118.889V30.2318H116.046V12.4047ZM127.608 30.5841C126.576 30.5841 125.658 30.408 124.853 30.0683C124.047 29.7286 123.368 29.2505 122.802 28.6592C122.248 28.0554 121.821 27.3382 121.531 26.5079C121.242 25.6776 121.091 24.7592 121.091 23.7653C121.091 22.784 121.242 21.8781 121.531 21.0478C121.821 20.2175 122.248 19.5004 122.802 18.8965C123.355 18.2926 124.047 17.8271 124.853 17.4874C125.658 17.1477 126.576 16.9716 127.608 16.9716C128.639 16.9716 129.558 17.1477 130.363 17.4874C131.168 17.8271 131.848 18.3052 132.414 18.8965C132.967 19.5004 133.395 20.2175 133.684 21.0478C133.974 21.8781 134.125 22.784 134.125 23.7653C134.125 24.7592 133.974 25.6776 133.684 26.5079C133.395 27.3382 132.967 28.0554 132.414 28.6592C131.86 29.2631 131.168 29.7286 130.363 30.0683C129.558 30.408 128.639 30.5841 127.608 30.5841ZM127.608 28.3321C128.237 28.3321 128.79 28.1937 129.256 27.9295C129.721 27.6653 130.099 27.3131 130.401 26.8853C130.703 26.4576 130.917 25.9669 131.068 25.426C131.206 24.885 131.281 24.3314 131.281 23.7653C131.281 23.2117 131.206 22.6707 131.068 22.1172C130.929 21.5636 130.703 21.0855 130.401 20.6578C130.099 20.23 129.721 19.8904 129.256 19.6262C128.79 19.362 128.237 19.2236 127.608 19.2236C126.979 19.2236 126.425 19.362 125.96 19.6262C125.494 19.8904 125.117 20.2426 124.815 20.6578C124.513 21.0855 124.299 21.5636 124.148 22.1172C124.01 22.6707 123.934 23.2117 123.934 23.7653C123.934 24.3314 124.01 24.885 124.148 25.426C124.286 25.9669 124.513 26.4576 124.815 26.8853C125.117 27.3131 125.494 27.6653 125.96 27.9295C126.425 28.2063 126.979 28.3321 127.608 28.3321ZM134.955 17.3239H137.106V13.449H139.95V17.3239H142.516V19.45H139.95V26.3444C139.95 26.6463 139.962 26.8979 139.987 27.1244C140.013 27.3382 140.075 27.527 140.164 27.6779C140.252 27.8289 140.39 27.9421 140.579 28.0176C140.767 28.0931 141.006 28.1308 141.334 28.1308C141.535 28.1308 141.736 28.1308 141.937 28.1183C142.139 28.1057 142.34 28.0805 142.541 28.0302V30.2318C142.227 30.2696 141.912 30.2947 141.623 30.3325C141.321 30.3702 141.019 30.3828 140.705 30.3828C139.95 30.3828 139.346 30.3073 138.893 30.1689C138.44 30.0306 138.075 29.8167 137.823 29.5399C137.559 29.2631 137.396 28.9234 137.295 28.5083C137.207 28.0931 137.144 27.615 137.132 27.0866V19.4752H134.98V17.3239H134.955Z" fill="#191919"/>
<path d="M34.1319 12.4047H21.0981L17.0722 0L13.0338 12.4047L0 12.3922L10.5554 20.0665L6.51689 32.4587L17.0722 24.7969L27.615 32.4587L23.5891 20.0665L34.1319 12.4047Z" fill="#00B67A"/>
<path d="M24.495 22.872L23.5892 20.0665L17.0723 24.7969L24.495 22.872Z" fill="#005128"/></g><defs><clipPath id="clip0_44_7"><rect width="142.516" height="35" fill="white"/></clipPath></defs></svg>
